<svg xmlns="http://www.w3.org/2000/svg" width="597.722900390625" height="671.081298828125" viewBox="-247.80612182617188 -228.41580200195312 597.722900390625 671.081298828125"><title>Neo4j Graph Visualization</title><desc>Created using Neo4j (http://www.neo4j.com/)</desc><g class="layer relationships"><g class="relationship" transform="translate(214.58482037522396 309.576194086739) rotate(528.7169082757334)"><path class="outline" fill="#A5ABB6" stroke="none" d="M 25 0.5 L 31.249252838901974 0.5 L 31.249252838901974 -0.5 L 25 -0.5 Z M 76.81175283890198 0.5 L 83.06100567780395 0.5 L 83.06100567780395 3.5 L 90.06100567780395 0 L 83.06100567780395 -3.5 L 83.06100567780395 -0.5 L 76.81175283890198 -0.5 Z"/><text text-anchor="middle" pointer-events="none" font-size="8px" fill="#000000" x="54.030502838901974" y="3" transform="rotate(180 54.030502838901974 0)" font-family="sans-serif">ACTED_IN</text></g><g class="relationship" transform="translate(214.58482037522396 309.576194086739) rotate(469.46760000768774)"><path class="outline" fill="#A5ABB6" stroke="none" d="M 25 0.5 L 28.919204438694656 0.5 L 28.919204438694656 -0.5 L 25 -0.5 Z M 74.48170443869466 0.5 L 78.40090887738931 0.5 L 78.40090887738931 3.5 L 85.40090887738931 0 L 78.40090887738931 -3.5 L 78.40090887738931 -0.5 L 74.48170443869466 -0.5 Z"/><text text-anchor="middle" pointer-events="none" font-size="8px" fill="#000000" x="51.700454438694656" y="3" transform="rotate(180 51.700454438694656 0)" font-family="sans-serif">ACTED_IN</text></g><g class="relationship" transform="translate(214.58482037522396 309.576194086739) rotate(375.179807251559)"><path class="outline" fill="#A5ABB6" stroke="none" d="M 25 0.5 L 28.806792339555713 0.5 L 28.806792339555713 -0.5 L 25 -0.5 Z M 74.36929233955571 0.5 L 78.17608467911143 0.5 L 78.17608467911143 3.5 L 85.17608467911143 0 L 78.17608467911143 -3.5 L 78.17608467911143 -0.5 L 74.36929233955571 -0.5 Z"/><text text-anchor="middle" pointer-events="none" font-size="8px" fill="#000000" x="51.58804233955571" y="3" font-family="sans-serif">ACTED_IN</text></g><g class="relationship" transform="translate(214.58482037522396 309.576194086739) rotate(240.03977592228972)"><path class="outline" fill="#A5ABB6" stroke="none" d="M 25 0.5 L 27.98312169533125 0.5 L 27.98312169533125 -0.5 L 25 -0.5 Z M 73.54562169533125 0.5 L 76.5287433906625 0.5 L 76.5287433906625 3.5 L 83.5287433906625 0 L 76.5287433906625 -3.5 L 76.5287433906625 -0.5 L 73.54562169533125 -0.5 Z"/><text text-anchor="middle" pointer-events="none" font-size="8px" fill="#000000" x="50.76437169533125" y="3" transform="rotate(180 50.76437169533125 0)" font-family="sans-serif">ACTED_IN</text></g><g class="relationship" transform="translate(214.58482037522396 309.576194086739) rotate(315.1192060762313)"><path class="outline" fill="#A5ABB6" stroke="none" d="M 25 0.5 L 31.054724236315003 0.5 L 31.054724236315003 -0.5 L 25 -0.5 Z M 76.617224236315 0.5 L 82.67194847263 0.5 L 82.67194847263 3.5 L 89.67194847263 0 L 82.67194847263 -3.5 L 82.67194847263 -0.5 L 76.617224236315 -0.5 Z"/><text text-anchor="middle" pointer-events="none" font-size="8px" fill="#000000" x="53.835974236315" y="3" font-family="sans-serif">ACTED_IN</text></g><g class="relationship" transform="translate(215.75551360058188 -99.71508410910425) rotate(393.308808979098)"><path class="outline" fill="#A5ABB6" stroke="none" d="M 25 0.5 L 31.702413514219543 0.5 L 31.702413514219543 -0.5 L 25 -0.5 Z M 77.26491351421954 0.5 L 83.96732702843909 0.5 L 83.96732702843909 3.5 L 90.96732702843909 0 L 83.96732702843909 -3.5 L 83.96732702843909 -0.5 L 77.26491351421954 -0.5 Z"/><text text-anchor="middle" pointer-events="none" font-size="8px" fill="#000000" x="54.48366351421954" y="3" font-family="sans-serif">ACTED_IN</text></g><g class="relationship" transform="translate(215.75551360058188 -99.71508410910425) rotate(330.077980630805)"><path class="outline" fill="#A5ABB6" stroke="none" d="M 25 0.5 L 28.32411547834554 0.5 L 28.32411547834554 -0.5 L 25 -0.5 Z M 73.88661547834553 0.5 L 77.21073095669108 0.5 L 77.21073095669108 3.5 L 84.21073095669108 0 L 77.21073095669108 -3.5 L 77.21073095669108 -0.5 L 73.88661547834553 -0.5 Z"/><text text-anchor="middle" pointer-events="none" font-size="8px" fill="#000000" x="51.10536547834554" y="3" font-family="sans-serif">ACTED_IN</text></g><g class="relationship" transform="translate(215.75551360058188 -99.71508410910425) rotate(457.78030080824504)"><path class="outline" fill="#A5ABB6" stroke="none" d="M 25 0.5 L 28.206465489328792 0.5 L 28.206465489328792 -0.5 L 25 -0.5 Z M 73.76896548932879 0.5 L 76.97543097865758 0.5 L 76.97543097865758 3.5 L 83.97543097865758 0 L 76.97543097865758 -3.5 L 76.97543097865758 -0.5 L 73.76896548932879 -0.5 Z"/><text text-anchor="middle" pointer-events="none" font-size="8px" fill="#000000" x="50.98771548932879" y="3" transform="rotate(180 50.98771548932879 0)" font-family="sans-serif">ACTED_IN</text></g><g class="relationship" transform="translate(215.75551360058188 -99.71508410910425) rotate(242.88310233195176)"><path class="outline" fill="#A5ABB6" stroke="none" d="M 25 0.5 L 29.72545357809721 0.5 L 29.72545357809721 -0.5 L 25 -0.5 Z M 75.28795357809722 0.5 L 80.01340715619442 0.5 L 80.01340715619442 3.5 L 87.01340715619442 0 L 80.01340715619442 -3.5 L 80.01340715619442 -0.5 L 75.28795357809722 -0.5 Z"/><text text-anchor="middle" pointer-events="none" font-size="8px" fill="#000000" x="52.50670357809721" y="3" transform="rotate(180 52.50670357809721 0)" font-family="sans-serif">ACTED_IN</text></g><g class="relationship" transform="translate(215.75551360058188 -99.71508410910425) rotate(183.59160631152895)"><path class="outline" fill="#A5ABB6" stroke="none" d="M 25 0.5 L 30.01414128914878 0.5 L 30.01414128914878 -0.5 L 25 -0.5 Z M 75.57664128914878 0.5 L 80.59078257829756 0.5 L 80.59078257829756 3.5 L 87.59078257829756 0 L 80.59078257829756 -3.5 L 80.59078257829756 -0.5 L 75.57664128914878 -0.5 Z"/><text text-anchor="middle" pointer-events="none" font-size="8px" fill="#000000" x="52.79539128914878" y="3" transform="rotate(180 52.79539128914878 0)" font-family="sans-serif">ACTED_IN</text></g><g class="relationship" transform="translate(-142.11847744039432 91.33644791121978) rotate(289.7016201401449)"><path class="outline" fill="#A5ABB6" stroke="none" d="M 25 0.5 L 31.326340970452357 0.5 L 31.326340970452357 -0.5 L 25 -0.5 Z M 76.88884097045235 0.5 L 83.21518194090471 0.5 L 83.21518194090471 3.5 L 90.21518194090471 0 L 83.21518194090471 -3.5 L 83.21518194090471 -0.5 L 76.88884097045235 -0.5 Z"/><text text-anchor="middle" pointer-events="none" font-size="8px" fill="#000000" x="54.10759097045236" y="3" font-family="sans-serif">ACTED_IN</text></g><g class="relationship" transform="translate(-142.11847744039432 91.33644791121978) rotate(229.9074039165908)"><path class="outline" fill="#A5ABB6" stroke="none" d="M 25 0.5 L 28.87849756256336 0.5 L 28.87849756256336 -0.5 L 25 -0.5 Z M 74.44099756256335 0.5 L 78.31949512512672 0.5 L 78.31949512512672 3.5 L 85.31949512512672 0 L 78.31949512512672 -3.5 L 78.31949512512672 -0.5 L 74.44099756256335 -0.5 Z"/><text text-anchor="middle" pointer-events="none" font-size="8px" fill="#000000" x="51.65974756256336" y="3" transform="rotate(180 51.65974756256336 0)" font-family="sans-serif">ACTED_IN</text></g><g class="relationship" transform="translate(-142.11847744039432 91.33644791121978) rotate(494.06437419782503)"><path class="outline" fill="#A5ABB6" stroke="none" d="M 25 0.5 L 28.85274256165293 0.5 L 28.85274256165293 -0.5 L 25 -0.5 Z M 74.41524256165293 0.5 L 78.26798512330586 0.5 L 78.26798512330586 3.5 L 85.26798512330586 0 L 78.26798512330586 -3.5 L 78.26798512330586 -0.5 L 74.41524256165293 -0.5 Z"/><text text-anchor="middle" pointer-events="none" font-size="8px" fill="#000000" x="51.63399256165293" y="3" transform="rotate(180 51.63399256165293 0)" font-family="sans-serif">ACTED_IN</text></g><g class="relationship" transform="translate(-142.11847744039432 91.33644791121978) rotate(434.5251837601957)"><path class="outline" fill="#A5ABB6" stroke="none" d="M 25 0.5 L 31.283510447907574 0.5 L 31.283510447907574 -0.5 L 25 -0.5 Z M 76.84601044790757 0.5 L 83.12952089581515 0.5 L 83.12952089581515 3.5 L 90.12952089581515 0 L 83.12952089581515 -3.5 L 83.12952089581515 -0.5 L 76.84601044790757 -0.5 Z"/><text text-anchor="middle" pointer-events="none" font-size="8px" fill="#000000" x="54.064760447907574" y="3" font-family="sans-serif">ACTED_IN</text></g><g class="relationship" transform="translate(-142.11847744039432 91.33644791121978) rotate(363.05395802982287)"><path class="outline" fill="#A5ABB6" stroke="none" d="M 25 0.5 L 28.259102789515026 0.5 L 28.259102789515026 -0.5 L 25 -0.5 Z M 73.82160278951503 0.5 L 77.08070557903005 0.5 L 77.08070557903005 3.5 L 84.08070557903005 0 L 77.08070557903005 -3.5 L 77.08070557903005 -0.5 L 73.82160278951503 -0.5 Z"/><text text-anchor="middle" pointer-events="none" font-size="8px" fill="#000000" x="51.040352789515026" y="3" font-family="sans-serif">ACTED_IN</text></g></g><g class="layer nodes"><g class="node" transform="translate(101.74766312510197,332.0886566641399)"><circle class="outline" cx="0" cy="0" r="25" fill="#57C7E3" stroke="#23b3d7" stroke-width="2px"/><text text-anchor="middle" pointer-events="none" font-family="sans-serif" dy="1.5625" font-size="25" fill="#2A2C34"/><text text-anchor="middle" pointer-events="none" font-family="sans-serif" dy="1.5625" font-size="25" fill="#2A2C34"/><text text-anchor="middle" pointer-events="none" x="0" y="0" font-size="10px" fill="#2A2C34" font-family="sans-serif"> Cloud</text><text text-anchor="middle" pointer-events="none" x="0" y="10" font-size="10px" fill="#2A2C34" font-family="sans-serif"> Atlas</text></g><g class="node" transform="translate(214.58482037522396,309.576194086739)"><circle class="outline" cx="0" cy="0" r="25" fill="#F79767" stroke="#f36924" stroke-width="2px"/><text text-anchor="middle" pointer-events="none" font-family="sans-serif" dy="1.5625" font-size="25" fill="#FFFFFF"/><text text-anchor="middle" pointer-events="none" font-family="sans-serif" dy="1.5625" font-size="25" fill="#FFFFFF"/><text text-anchor="middle" pointer-events="none" x="0" y="0" font-size="10px" fill="#FFFFFF" font-family="sans-serif"> Hugo</text><text text-anchor="middle" pointer-events="none" x="0" y="10" font-size="10px" fill="#FFFFFF" font-family="sans-serif"> Weaving</text></g><g class="node" transform="translate(177.79109493898756,413.6654944469416)"><circle class="outline" cx="0" cy="0" r="25" fill="#57C7E3" stroke="#23b3d7" stroke-width="2px"/><text text-anchor="middle" pointer-events="none" font-family="sans-serif" dy="1.5625" font-size="25" fill="#2A2C34"/><text text-anchor="middle" pointer-events="none" font-family="sans-serif" dy="1.5625" font-size="25" fill="#2A2C34"/><text text-anchor="middle" pointer-events="none" x="0" y="0" font-size="10px" fill="#2A2C34" font-family="sans-serif"> V for</text><text text-anchor="middle" pointer-events="none" x="0" y="10" font-size="10px" fill="#2A2C34" font-family="sans-serif"> Vendetta</text></g><g class="node" transform="translate(320.9167334195657,338.4256984767503)"><circle class="outline" cx="0" cy="0" r="25" fill="#57C7E3" stroke="#23b3d7" stroke-width="2px"/><text text-anchor="middle" pointer-events="none" font-family="sans-serif" dy="1.5625" font-size="25" fill="#2A2C34"/><text text-anchor="middle" pointer-events="none" font-family="sans-serif" dy="1.5625" font-size="25" fill="#2A2C34"/><text text-anchor="middle" pointer-events="none" font-family="sans-serif" dy="1.5625" font-size="25" fill="#2A2C34"/><text text-anchor="middle" pointer-events="none" x="0" y="-5" font-size="10px" fill="#2A2C34" font-family="sans-serif"> The</text><text text-anchor="middle" pointer-events="none" x="0" y="5" font-size="10px" fill="#2A2C34" font-family="sans-serif"> Matrix</text><text text-anchor="middle" pointer-events="none" x="0" y="15" font-size="10px" fill="#2A2C34" font-family="sans-serif"> Revol…</text></g><g class="node" transform="translate(160.3857106264335,215.54989646530314)"><circle class="outline" cx="0" cy="0" r="25" fill="#57C7E3" stroke="#23b3d7" stroke-width="2px"/><text text-anchor="middle" pointer-events="none" font-family="sans-serif" dy="1.5625" font-size="25" fill="#2A2C34"/><text text-anchor="middle" pointer-events="none" font-family="sans-serif" dy="1.5625" font-size="25" fill="#2A2C34"/><text text-anchor="middle" pointer-events="none" font-family="sans-serif" dy="1.5625" font-size="25" fill="#2A2C34"/><text text-anchor="middle" pointer-events="none" x="0" y="-5" font-size="10px" fill="#2A2C34" font-family="sans-serif"> The</text><text text-anchor="middle" pointer-events="none" x="0" y="5" font-size="10px" fill="#2A2C34" font-family="sans-serif"> Matrix</text><text text-anchor="middle" pointer-events="none" x="0" y="15" font-size="10px" fill="#2A2C34" font-family="sans-serif"> Reloa…</text></g><g class="node" transform="translate(295.83865825156033,228.65975819837604)"><circle class="outline" cx="0" cy="0" r="25" fill="#57C7E3" stroke="#23b3d7" stroke-width="2px"/><text text-anchor="middle" pointer-events="none" font-family="sans-serif" dy="1.5625" font-size="25" fill="#2A2C34"/><text text-anchor="middle" pointer-events="none" font-family="sans-serif" dy="1.5625" font-size="25" fill="#2A2C34"/><text text-anchor="middle" pointer-events="none" x="0" y="0" font-size="10px" fill="#2A2C34" font-family="sans-serif"> The</text><text text-anchor="middle" pointer-events="none" x="0" y="10" font-size="10px" fill="#2A2C34" font-family="sans-serif"> Matrix</text></g><g class="node" transform="translate(312.6720692741478,-36.03147417300269)"><circle class="outline" cx="0" cy="0" r="25" fill="#57C7E3" stroke="#23b3d7" stroke-width="2px"/><text text-anchor="middle" pointer-events="none" font-family="sans-serif" dy="1.5625" font-size="25" fill="#2A2C34"/><text text-anchor="middle" pointer-events="none" font-family="sans-serif" dy="1.5625" font-size="25" fill="#2A2C34"/><text text-anchor="middle" pointer-events="none" font-family="sans-serif" dy="1.5625" font-size="25" fill="#2A2C34"/><text text-anchor="middle" pointer-events="none" x="0" y="-5" font-size="10px" fill="#2A2C34" font-family="sans-serif"> The</text><text text-anchor="middle" pointer-events="none" x="0" y="5" font-size="10px" fill="#2A2C34" font-family="sans-serif"> Matrix</text><text text-anchor="middle" pointer-events="none" x="0" y="15" font-size="10px" fill="#2A2C34" font-family="sans-serif"> Revol…</text></g><g class="node" transform="translate(215.75551360058188,-99.71508410910425)"><circle class="outline" cx="0" cy="0" r="25" fill="#F79767" stroke="#f36924" stroke-width="2px"/><text text-anchor="middle" pointer-events="none" font-family="sans-serif" dy="1.5625" font-size="25" fill="#FFFFFF"/><text text-anchor="middle" pointer-events="none" font-family="sans-serif" dy="1.5625" font-size="25" fill="#FFFFFF"/><text text-anchor="middle" pointer-events="none" x="0" y="0" font-size="10px" fill="#FFFFFF" font-family="sans-serif"> Hugo</text><text text-anchor="middle" pointer-events="none" x="0" y="10" font-size="10px" fill="#FFFFFF" font-family="sans-serif"> Weaving</text></g><g class="node" transform="translate(310.4090122808473,-154.1916748952369)"><circle class="outline" cx="0" cy="0" r="25" fill="#57C7E3" stroke="#23b3d7" stroke-width="2px"/><text text-anchor="middle" pointer-events="none" font-family="sans-serif" dy="1.5625" font-size="25" fill="#2A2C34"/><text text-anchor="middle" pointer-events="none" font-family="sans-serif" dy="1.5625" font-size="25" fill="#2A2C34"/><text text-anchor="middle" pointer-events="none" x="0" y="0" font-size="10px" fill="#2A2C34" font-family="sans-serif"> Cloud</text><text text-anchor="middle" pointer-events="none" x="0" y="10" font-size="10px" fill="#2A2C34" font-family="sans-serif"> Atlas</text></g><g class="node" transform="translate(201.0029722926321,8.257167335150626)"><circle class="outline" cx="0" cy="0" r="25" fill="#57C7E3" stroke="#23b3d7" stroke-width="2px"/><text text-anchor="middle" pointer-events="none" font-family="sans-serif" dy="1.5625" font-size="25" fill="#2A2C34"/><text text-anchor="middle" pointer-events="none" font-family="sans-serif" dy="1.5625" font-size="25" fill="#2A2C34"/><text text-anchor="middle" pointer-events="none" font-family="sans-serif" dy="1.5625" font-size="25" fill="#2A2C34"/><text text-anchor="middle" pointer-events="none" x="0" y="-5" font-size="10px" fill="#2A2C34" font-family="sans-serif"> The</text><text text-anchor="middle" pointer-events="none" x="0" y="5" font-size="10px" fill="#2A2C34" font-family="sans-serif"> Matrix</text><text text-anchor="middle" pointer-events="none" x="0" y="15" font-size="10px" fill="#2A2C34" font-family="sans-serif"> Reloa…</text></g><g class="node" transform="translate(164.6989704791984,-199.41580019095443)"><circle class="outline" cx="0" cy="0" r="25" fill="#57C7E3" stroke="#23b3d7" stroke-width="2px"/><text text-anchor="middle" pointer-events="none" font-family="sans-serif" dy="1.5625" font-size="25" fill="#2A2C34"/><text text-anchor="middle" pointer-events="none" font-family="sans-serif" dy="1.5625" font-size="25" fill="#2A2C34"/><text text-anchor="middle" pointer-events="none" x="0" y="0" font-size="10px" fill="#2A2C34" font-family="sans-serif"> V for</text><text text-anchor="middle" pointer-events="none" x="0" y="10" font-size="10px" fill="#2A2C34" font-family="sans-serif"> Vendetta</text></g><g class="node" transform="translate(103.38586873491974,-106.76825604508049)"><circle class="outline" cx="0" cy="0" r="25" fill="#57C7E3" stroke="#23b3d7" stroke-width="2px"/><text text-anchor="middle" pointer-events="none" font-family="sans-serif" dy="1.5625" font-size="25" fill="#2A2C34"/><text text-anchor="middle" pointer-events="none" font-family="sans-serif" dy="1.5625" font-size="25" fill="#2A2C34"/><text text-anchor="middle" pointer-events="none" x="0" y="0" font-size="10px" fill="#2A2C34" font-family="sans-serif"> The</text><text text-anchor="middle" pointer-events="none" x="0" y="10" font-size="10px" fill="#2A2C34" font-family="sans-serif"> Matrix</text></g><g class="node" transform="translate(-103.2769186949038,-17.13415393046074)"><circle class="outline" cx="0" cy="0" r="25" fill="#57C7E3" stroke="#23b3d7" stroke-width="2px"/><text text-anchor="middle" pointer-events="none" font-family="sans-serif" dy="1.5625" font-size="25" fill="#2A2C34"/><text text-anchor="middle" pointer-events="none" font-family="sans-serif" dy="1.5625" font-size="25" fill="#2A2C34"/><text text-anchor="middle" pointer-events="none" font-family="sans-serif" dy="1.5625" font-size="25" fill="#2A2C34"/><text text-anchor="middle" pointer-events="none" x="0" y="-5" font-size="10px" fill="#2A2C34" font-family="sans-serif"> The</text><text text-anchor="middle" pointer-events="none" x="0" y="5" font-size="10px" fill="#2A2C34" font-family="sans-serif"> Matrix</text><text text-anchor="middle" pointer-events="none" x="0" y="15" font-size="10px" fill="#2A2C34" font-family="sans-serif"> Reloa…</text></g><g class="node" transform="translate(-142.11847744039432,91.33644791121978)"><circle class="outline" cx="0" cy="0" r="25" fill="#F79767" stroke="#f36924" stroke-width="2px"/><text text-anchor="middle" pointer-events="none" font-family="sans-serif" dy="1.5625" font-size="25" fill="#FFFFFF"/><text text-anchor="middle" pointer-events="none" font-family="sans-serif" dy="1.5625" font-size="25" fill="#FFFFFF"/><text text-anchor="middle" pointer-events="none" x="0" y="0" font-size="10px" fill="#FFFFFF" font-family="sans-serif"> Hugo</text><text text-anchor="middle" pointer-events="none" x="0" y="10" font-size="10px" fill="#FFFFFF" font-family="sans-serif"> Weaving</text></g><g class="node" transform="translate(-213.16696592518994,6.941523367804716)"><circle class="outline" cx="0" cy="0" r="25" fill="#57C7E3" stroke="#23b3d7" stroke-width="2px"/><text text-anchor="middle" pointer-events="none" font-family="sans-serif" dy="1.5625" font-size="25" fill="#2A2C34"/><text text-anchor="middle" pointer-events="none" font-family="sans-serif" dy="1.5625" font-size="25" fill="#2A2C34"/><text text-anchor="middle" pointer-events="none" x="0" y="0" font-size="10px" fill="#2A2C34" font-family="sans-serif"> The</text><text text-anchor="middle" pointer-events="none" x="0" y="10" font-size="10px" fill="#2A2C34" font-family="sans-serif"> Matrix</text></g><g class="node" transform="translate(-218.80612743130249,170.57048656901864)"><circle class="outline" cx="0" cy="0" r="25" fill="#57C7E3" stroke="#23b3d7" stroke-width="2px"/><text text-anchor="middle" pointer-events="none" font-family="sans-serif" dy="1.5625" font-size="25" fill="#2A2C34"/><text text-anchor="middle" pointer-events="none" font-family="sans-serif" dy="1.5625" font-size="25" fill="#2A2C34"/><text text-anchor="middle" pointer-events="none" x="0" y="0" font-size="10px" fill="#2A2C34" font-family="sans-serif"> V for</text><text text-anchor="middle" pointer-events="none" x="0" y="10" font-size="10px" fill="#2A2C34" font-family="sans-serif"> Vendetta</text></g><g class="node" transform="translate(-111.40021774020789,202.2922729169032)"><circle class="outline" cx="0" cy="0" r="25" fill="#57C7E3" stroke="#23b3d7" stroke-width="2px"/><text text-anchor="middle" pointer-events="none" font-family="sans-serif" dy="1.5625" font-size="25" fill="#2A2C34"/><text text-anchor="middle" pointer-events="none" font-family="sans-serif" dy="1.5625" font-size="25" fill="#2A2C34"/><text text-anchor="middle" pointer-events="none" font-family="sans-serif" dy="1.5625" font-size="25" fill="#2A2C34"/><text text-anchor="middle" pointer-events="none" x="0" y="-5" font-size="10px" fill="#2A2C34" font-family="sans-serif"> The</text><text text-anchor="middle" pointer-events="none" x="0" y="5" font-size="10px" fill="#2A2C34" font-family="sans-serif"> Matrix</text><text text-anchor="middle" pointer-events="none" x="0" y="15" font-size="10px" fill="#2A2C34" font-family="sans-serif"> Revol…</text></g><g class="node" transform="translate(-33.19268775716529,97.1478738553402)"><circle class="outline" cx="0" cy="0" r="25" fill="#57C7E3" stroke="#23b3d7" stroke-width="2px"/><text text-anchor="middle" pointer-events="none" font-family="sans-serif" dy="1.5625" font-size="25" fill="#2A2C34"/><text text-anchor="middle" pointer-events="none" font-family="sans-serif" dy="1.5625" font-size="25" fill="#2A2C34"/><text text-anchor="middle" pointer-events="none" x="0" y="0" font-size="10px" fill="#2A2C34" font-family="sans-serif"> Cloud</text><text text-anchor="middle" pointer-events="none" x="0" y="10" font-size="10px" fill="#2A2C34" font-family="sans-serif"> Atlas</text></g></g></svg>