<svg xmlns="http://www.w3.org/2000/svg" width="529.6925048828125" height="553.9791259765625" viewBox="-212.64437866210938 -172.4708251953125 529.6925048828125 553.9791259765625"><title>Neo4j Graph Visualization</title><desc>Created using Neo4j (http://www.neo4j.com/)</desc><g class="layer relationships"><g class="relationship" transform="translate(106.95060362436881 331.08441734699863) rotate(370.13470009363937)"><path class="outline" fill="#A5ABB6" stroke="none" d="M 25 0.5 L 34.59479798374192 0.5 L 34.59479798374192 -0.5 L 25 -0.5 Z M 80.15729798374193 0.5 L 89.75209596748384 0.5 L 89.75209596748384 3.5 L 96.75209596748384 0 L 89.75209596748384 -3.5 L 89.75209596748384 -0.5 L 80.15729798374193 -0.5 Z"/><text text-anchor="middle" pointer-events="none" font-size="8px" fill="#000000" x="57.37604798374192" y="3" font-family="sans-serif">ACTED_IN</text></g><g class="relationship" transform="translate(106.95060362436881 331.08441734699863) rotate(334.5795391193758)"><path class="outline" fill="#A5ABB6" stroke="none" d="M 25 0.5 L 25.5523086845577 0.5 L 25.5523086845577 -0.5 L 25 -0.5 Z M 66.6655899345577 0.5 L 67.2178986191154 0.5 L 67.2178986191154 3.5 L 74.2178986191154 0 L 67.2178986191154 -3.5 L 67.2178986191154 -0.5 L 66.6655899345577 -0.5 Z"/><text text-anchor="middle" pointer-events="none" font-size="8px" fill="#000000" x="46.1089493095577" y="3" font-family="sans-serif">ACTED…</text></g><g class="relationship" transform="translate(106.95060362436881 331.08441734699863) rotate(299.0981192658523)"><path class="outline" fill="#A5ABB6" stroke="none" d="M 25 0.5 L 34.844098568295216 0.5 L 34.844098568295216 -0.5 L 25 -0.5 Z M 80.40659856829521 0.5 L 90.25069713659043 0.5 L 90.25069713659043 3.5 L 97.25069713659043 0 L 90.25069713659043 -3.5 L 90.25069713659043 -0.5 L 80.40659856829521 -0.5 Z"/><text text-anchor="middle" pointer-events="none" font-size="8px" fill="#000000" x="57.625348568295216" y="3" font-family="sans-serif">ACTED_IN</text></g><g class="relationship" transform="translate(286.3469869096594 245.97334106456935) rotate(479.2014953941635)"><path class="outline" fill="#A5ABB6" stroke="none" d="M 25 0.5 L 34.741657874594544 0.5 L 34.741657874594544 -0.5 L 25 -0.5 Z M 80.30415787459455 0.5 L 90.04581574918909 0.5 L 90.04581574918909 3.5 L 97.04581574918909 0 L 90.04581574918909 -3.5 L 90.04581574918909 -0.5 L 80.30415787459455 -0.5 Z"/><text text-anchor="middle" pointer-events="none" font-size="8px" fill="#000000" x="57.522907874594544" y="3" transform="rotate(180 57.522907874594544 0)" font-family="sans-serif">ACTED_IN</text></g><g class="relationship" transform="translate(286.3469869096594 245.97334106456935) rotate(514.6582531067952)"><path class="outline" fill="#A5ABB6" stroke="none" d="M 25 0.5 L 25.615546548126893 0.5 L 25.615546548126893 -0.5 L 25 -0.5 Z M 66.7288277981269 0.5 L 67.34437434625379 0.5 L 67.34437434625379 3.5 L 74.34437434625379 0 L 67.34437434625379 -3.5 L 67.34437434625379 -0.5 L 66.7288277981269 -0.5 Z"/><text text-anchor="middle" pointer-events="none" font-size="8px" fill="#000000" x="46.17218717312689" y="3" transform="rotate(180 46.17218717312689 0)" font-family="sans-serif">ACTED…</text></g><g class="relationship" transform="translate(286.3469869096594 245.97334106456935) rotate(190.25950079457868)"><path class="outline" fill="#A5ABB6" stroke="none" d="M 25 0.5 L 34.66574587998439 0.5 L 34.66574587998439 -0.5 L 25 -0.5 Z M 80.2282458799844 0.5 L 89.89399175996878 0.5 L 89.89399175996878 3.5 L 96.89399175996878 0 L 89.89399175996878 -3.5 L 89.89399175996878 -0.5 L 80.2282458799844 -0.5 Z"/><text text-anchor="middle" pointer-events="none" font-size="8px" fill="#000000" x="57.44699587998439" y="3" transform="rotate(180 57.44699587998439 0)" font-family="sans-serif">ACTED_IN</text></g><g class="relationship" transform="translate(265.44464042129874 -143.47081765353602) rotate(534.3180111041353)"><path class="outline" fill="#A5ABB6" stroke="none" d="M 25 0.5 L 32.2446760117966 0.5 L 32.2446760117966 -0.5 L 25 -0.5 Z M 77.8071760117966 0.5 L 85.0518520235932 0.5 L 85.0518520235932 3.5 L 92.0518520235932 0 L 85.0518520235932 -3.5 L 85.0518520235932 -0.5 L 77.8071760117966 -0.5 Z"/><text text-anchor="middle" pointer-events="none" font-size="8px" fill="#000000" x="55.0259260117966" y="3" transform="rotate(180 55.0259260117966 0)" font-family="sans-serif">ACTED_IN</text></g><g class="relationship" transform="translate(265.44464042129874 -143.47081765353602) rotate(439.6220768506735)"><path class="outline" fill="#A5ABB6" stroke="none" d="M 25 0.5 L 36.45729705416792 0.5 L 36.45729705416792 -0.5 L 25 -0.5 Z M 82.01979705416792 0.5 L 93.47709410833583 0.5 L 93.47709410833583 3.5 L 100.47709410833583 0 L 93.47709410833583 -3.5 L 93.47709410833583 -0.5 L 82.01979705416792 -0.5 Z"/><text text-anchor="middle" pointer-events="none" font-size="8px" fill="#000000" x="59.23854705416792" y="3" font-family="sans-serif">ACTED_IN</text></g><g class="relationship" transform="translate(265.44464042129874 -143.47081765353602) rotate(466.7610541307264)"><path class="outline" fill="#A5ABB6" stroke="none" d="M 25 0.5 L 25.83551104777385 0.5 L 25.83551104777385 -0.5 L 25 -0.5 Z M 61.17144854777385 0.5 L 62.0069595955477 0.5 L 62.0069595955477 3.5 L 69.0069595955477 0 L 62.0069595955477 -3.5 L 62.0069595955477 -0.5 L 61.17144854777385 -0.5 Z"/><text text-anchor="middle" pointer-events="none" font-size="8px" fill="#000000" x="43.50347979777385" y="3" transform="rotate(180 43.50347979777385 0)" font-family="sans-serif">ACTE…</text></g><g class="relationship" transform="translate(156.29006765848874 -16.463366400390726) rotate(358.442276112703)"><path class="outline" fill="#A5ABB6" stroke="none" d="M 25 0.5 L 39.622122462907186 0.5 L 39.622122462907186 -0.5 L 25 -0.5 Z M 85.18462246290719 0.5 L 99.80674492581437 0.5 L 99.80674492581437 3.5 L 106.80674492581437 0 L 99.80674492581437 -3.5 L 99.80674492581437 -0.5 L 85.18462246290719 -0.5 Z"/><text text-anchor="middle" pointer-events="none" font-size="8px" fill="#000000" x="62.403372462907186" y="3" font-family="sans-serif">ACTED_IN</text></g><g class="relationship" transform="translate(156.29006765848874 -16.463366400390726) rotate(266.37000874428315)"><path class="outline" fill="#A5ABB6" stroke="none" d="M 25 0.5 L 31.54401585513333 0.5 L 31.54401585513333 -0.5 L 25 -0.5 Z M 77.10651585513332 0.5 L 83.65053171026666 0.5 L 83.65053171026666 3.5 L 90.65053171026666 0 L 83.65053171026666 -3.5 L 83.65053171026666 -0.5 L 77.10651585513332 -0.5 Z"/><text text-anchor="middle" pointer-events="none" font-size="8px" fill="#000000" x="54.32526585513333" y="3" transform="rotate(180 54.32526585513333 0)" font-family="sans-serif">ACTED_IN</text></g><g class="relationship" transform="translate(156.29006765848874 -16.463366400390726) rotate(335.72919543341595)"><path class="outline" fill="#A5ABB6" stroke="none" d="M 25 0.5 L 26.499777686288276 0.5 L 26.499777686288276 -0.5 L 25 -0.5 Z M 56.499777686288276 0.5 L 57.99955537257655 0.5 L 57.99955537257655 3.5 L 64.99955537257655 0 L 57.99955537257655 -3.5 L 57.99955537257655 -0.5 L 56.499777686288276 -0.5 Z"/><text text-anchor="middle" pointer-events="none" font-size="8px" fill="#000000" x="41.499777686288276" y="3" font-family="sans-serif">ACT…</text></g><g class="relationship" transform="translate(-105.50113395207795 -8.813976198167767) rotate(419.1903737298549)"><path class="outline" fill="#A5ABB6" stroke="none" d="M 25 0.5 L 33.05175141560085 0.5 L 33.05175141560085 -0.5 L 25 -0.5 Z M 78.61425141560085 0.5 L 86.6660028312017 0.5 L 86.6660028312017 3.5 L 93.6660028312017 0 L 86.6660028312017 -3.5 L 86.6660028312017 -0.5 L 78.61425141560085 -0.5 Z"/><text text-anchor="middle" pointer-events="none" font-size="8px" fill="#000000" x="55.83300141560085" y="3" font-family="sans-serif">ACTED_IN</text></g><g class="relationship" transform="translate(-105.50113395207795 -8.813976198167767) rotate(460.12080994550115)"><path class="outline" fill="#A5ABB6" stroke="none" d="M 25 0.5 L 25.017140385952935 0.5 L 25.017140385952935 -0.5 L 25 -0.5 Z M 70.57964038595293 0.5 L 70.59678077190587 0.5 L 70.59678077190587 3.5 L 77.59678077190587 0 L 70.59678077190587 -3.5 L 70.59678077190587 -0.5 L 70.57964038595293 -0.5 Z"/><text text-anchor="middle" pointer-events="none" font-size="8px" fill="#000000" x="47.798390385952935" y="3" transform="rotate(180 47.798390385952935 0)" font-family="sans-serif">ACTED_IN</text></g><g class="relationship" transform="translate(-105.50113395207795 -8.813976198167767) rotate(489.1342331229219)"><path class="outline" fill="#A5ABB6" stroke="none" d="M 25 0.5 L 35.625242642206416 0.5 L 35.625242642206416 -0.5 L 25 -0.5 Z M 81.18774264220642 0.5 L 91.81298528441283 0.5 L 91.81298528441283 3.5 L 98.81298528441283 0 L 91.81298528441283 -3.5 L 91.81298528441283 -0.5 L 81.18774264220642 -0.5 Z"/><text text-anchor="middle" pointer-events="none" font-size="8px" fill="#000000" x="58.406492642206416" y="3" transform="rotate(180 58.406492642206416 0)" font-family="sans-serif">ACTED_IN</text></g><g class="relationship" transform="translate(-113.60142461981542 190.89862106606688) rotate(235.9569002764091)"><path class="outline" fill="#A5ABB6" stroke="none" d="M 25 0.5 L 36.27761915288939 0.5 L 36.27761915288939 -0.5 L 25 -0.5 Z M 81.8401191528894 0.5 L 93.11773830577879 0.5 L 93.11773830577879 3.5 L 100.11773830577879 0 L 93.11773830577879 -3.5 L 93.11773830577879 -0.5 L 81.8401191528894 -0.5 Z"/><text text-anchor="middle" pointer-events="none" font-size="8px" fill="#000000" x="59.05886915288939" y="3" transform="rotate(180 59.05886915288939 0)" font-family="sans-serif">ACTED_IN</text></g><g class="relationship" transform="translate(-113.60142461981542 190.89862106606688) rotate(305.1584285309696)"><path class="outline" fill="#A5ABB6" stroke="none" d="M 25 0.5 L 33.52666663128163 0.5 L 33.52666663128163 -0.5 L 25 -0.5 Z M 79.08916663128163 0.5 L 87.61583326256326 0.5 L 87.61583326256326 3.5 L 94.61583326256326 0 L 87.61583326256326 -3.5 L 87.61583326256326 -0.5 L 79.08916663128163 -0.5 Z"/><text text-anchor="middle" pointer-events="none" font-size="8px" fill="#000000" x="56.30791663128163" y="3" font-family="sans-serif">ACTED_IN</text></g><g class="relationship" transform="translate(-113.60142461981542 190.89862106606688) rotate(264.25652099834235)"><path class="outline" fill="#A5ABB6" stroke="none" d="M 25 0.5 L 25.548522412267587 0.5 L 25.548522412267587 -0.5 L 25 -0.5 Z M 66.66180366226759 0.5 L 67.21032607453517 0.5 L 67.21032607453517 3.5 L 74.21032607453517 0 L 67.21032607453517 -3.5 L 67.21032607453517 -0.5 L 66.66180366226759 -0.5 Z"/><text text-anchor="middle" pointer-events="none" font-size="8px" fill="#000000" x="46.10516303726759" y="3" transform="rotate(180 46.10516303726759 0)" font-family="sans-serif">ACTED…</text></g></g><g class="layer nodes"><g class="node" transform="translate(226.8029763046733,352.50827403473795)"><circle class="outline" cx="0" cy="0" r="25" fill="#57C7E3" stroke="#23b3d7" stroke-width="2px"/><text text-anchor="middle" pointer-events="none" font-family="sans-serif" dy="1.5625" font-size="25" fill="#2A2C34"/><text text-anchor="middle" pointer-events="none" font-family="sans-serif" dy="1.5625" font-size="25" fill="#2A2C34"/><text text-anchor="middle" pointer-events="none" font-family="sans-serif" dy="1.5625" font-size="25" fill="#2A2C34"/><text text-anchor="middle" pointer-events="none" x="0" y="-5" font-size="10px" fill="#2A2C34" font-family="sans-serif"> The</text><text text-anchor="middle" pointer-events="none" x="0" y="5" font-size="10px" fill="#2A2C34" font-family="sans-serif"> Matrix</text><text text-anchor="middle" pointer-events="none" x="0" y="15" font-size="10px" fill="#2A2C34" font-family="sans-serif"> Revol…</text></g><g class="node" transform="translate(106.95060362436881,331.08441734699863)"><circle class="outline" cx="0" cy="0" r="25" fill="#F79767" stroke="#f36924" stroke-width="2px"/><text text-anchor="middle" pointer-events="none" font-family="sans-serif" dy="1.5625" font-size="25" fill="#FFFFFF"/><text text-anchor="middle" pointer-events="none" font-family="sans-serif" dy="1.5625" font-size="25" fill="#FFFFFF"/><text text-anchor="middle" pointer-events="none" x="0" y="0" font-size="10px" fill="#FFFFFF" font-family="sans-serif"> Hugo</text><text text-anchor="middle" pointer-events="none" x="0" y="10" font-size="10px" fill="#FFFFFF" font-family="sans-serif"> Weaving</text></g><g class="node" transform="translate(286.3469869096594,245.97334106456935)"><circle class="outline" cx="0" cy="0" r="25" fill="#F79767" stroke="#f36924" stroke-width="2px"/><text text-anchor="middle" pointer-events="none" font-family="sans-serif" dy="1.5625" font-size="25" fill="#FFFFFF"/><text text-anchor="middle" pointer-events="none" font-family="sans-serif" dy="1.5625" font-size="25" fill="#FFFFFF"/><text text-anchor="middle" pointer-events="none" x="0" y="0" font-size="10px" fill="#FFFFFF" font-family="sans-serif"> Keanu</text><text text-anchor="middle" pointer-events="none" x="0" y="10" font-size="10px" fill="#FFFFFF" font-family="sans-serif"> Reeves</text></g><g class="node" transform="translate(196.56242952482515,288.4943707964328)"><circle class="outline" cx="0" cy="0" r="25" fill="#57C7E3" stroke="#23b3d7" stroke-width="2px"/><text text-anchor="middle" pointer-events="none" font-family="sans-serif" dy="1.5625" font-size="25" fill="#2A2C34"/><text text-anchor="middle" pointer-events="none" font-family="sans-serif" dy="1.5625" font-size="25" fill="#2A2C34"/><text text-anchor="middle" pointer-events="none" font-family="sans-serif" dy="1.5625" font-size="25" fill="#2A2C34"/><text text-anchor="middle" pointer-events="none" x="0" y="-5" font-size="10px" fill="#2A2C34" font-family="sans-serif"> The</text><text text-anchor="middle" pointer-events="none" x="0" y="5" font-size="10px" fill="#2A2C34" font-family="sans-serif"> Matrix</text><text text-anchor="middle" pointer-events="none" x="0" y="15" font-size="10px" fill="#2A2C34" font-family="sans-serif"> Reloa…</text></g><g class="node" transform="translate(166.40193654863282,224.26320239458067)"><circle class="outline" cx="0" cy="0" r="25" fill="#57C7E3" stroke="#23b3d7" stroke-width="2px"/><text text-anchor="middle" pointer-events="none" font-family="sans-serif" dy="1.5625" font-size="25" fill="#2A2C34"/><text text-anchor="middle" pointer-events="none" font-family="sans-serif" dy="1.5625" font-size="25" fill="#2A2C34"/><text text-anchor="middle" pointer-events="none" x="0" y="0" font-size="10px" fill="#2A2C34" font-family="sans-serif"> The</text><text text-anchor="middle" pointer-events="none" x="0" y="10" font-size="10px" fill="#2A2C34" font-family="sans-serif"> Matrix</text></g><g class="node" transform="translate(288.0481027577829,-20.046409061575115)"><circle class="outline" cx="0" cy="0" r="25" fill="#57C7E3" stroke="#23b3d7" stroke-width="2px"/><text text-anchor="middle" pointer-events="none" font-family="sans-serif" dy="1.5625" font-size="25" fill="#2A2C34"/><text text-anchor="middle" pointer-events="none" font-family="sans-serif" dy="1.5625" font-size="25" fill="#2A2C34"/><text text-anchor="middle" pointer-events="none" font-family="sans-serif" dy="1.5625" font-size="25" fill="#2A2C34"/><text text-anchor="middle" pointer-events="none" x="0" y="-5" font-size="10px" fill="#2A2C34" font-family="sans-serif"> The</text><text text-anchor="middle" pointer-events="none" x="0" y="5" font-size="10px" fill="#2A2C34" font-family="sans-serif"> Matrix</text><text text-anchor="middle" pointer-events="none" x="0" y="15" font-size="10px" fill="#2A2C34" font-family="sans-serif"> Reloa…</text></g><g class="node" transform="translate(265.44464042129874,-143.47081765353602)"><circle class="outline" cx="0" cy="0" r="25" fill="#F79767" stroke="#f36924" stroke-width="2px"/><text text-anchor="middle" pointer-events="none" font-family="sans-serif" dy="1.5625" font-size="25" fill="#FFFFFF"/><text text-anchor="middle" pointer-events="none" font-family="sans-serif" dy="1.5625" font-size="25" fill="#FFFFFF"/><text text-anchor="middle" pointer-events="none" x="0" y="0" font-size="10px" fill="#FFFFFF" font-family="sans-serif"> Hugo</text><text text-anchor="middle" pointer-events="none" x="0" y="10" font-size="10px" fill="#FFFFFF" font-family="sans-serif"> Weaving</text></g><g class="node" transform="translate(156.29006765848874,-16.463366400390726)"><circle class="outline" cx="0" cy="0" r="25" fill="#F79767" stroke="#f36924" stroke-width="2px"/><text text-anchor="middle" pointer-events="none" font-family="sans-serif" dy="1.5625" font-size="25" fill="#FFFFFF"/><text text-anchor="middle" pointer-events="none" font-family="sans-serif" dy="1.5625" font-size="25" fill="#FFFFFF"/><text text-anchor="middle" pointer-events="none" x="0" y="0" font-size="10px" fill="#FFFFFF" font-family="sans-serif"> Keanu</text><text text-anchor="middle" pointer-events="none" x="0" y="10" font-size="10px" fill="#FFFFFF" font-family="sans-serif"> Reeves</text></g><g class="node" transform="translate(148.96789431514577,-131.8818712529378)"><circle class="outline" cx="0" cy="0" r="25" fill="#57C7E3" stroke="#23b3d7" stroke-width="2px"/><text text-anchor="middle" pointer-events="none" font-family="sans-serif" dy="1.5625" font-size="25" fill="#2A2C34"/><text text-anchor="middle" pointer-events="none" font-family="sans-serif" dy="1.5625" font-size="25" fill="#2A2C34"/><text text-anchor="middle" pointer-events="none" font-family="sans-serif" dy="1.5625" font-size="25" fill="#2A2C34"/><text text-anchor="middle" pointer-events="none" x="0" y="-5" font-size="10px" fill="#2A2C34" font-family="sans-serif"> The</text><text text-anchor="middle" pointer-events="none" x="0" y="5" font-size="10px" fill="#2A2C34" font-family="sans-serif"> Matrix</text><text text-anchor="middle" pointer-events="none" x="0" y="15" font-size="10px" fill="#2A2C34" font-family="sans-serif"> Revol…</text></g><g class="node" transform="translate(238.33481865904784,-53.45767407762304)"><circle class="outline" cx="0" cy="0" r="25" fill="#57C7E3" stroke="#23b3d7" stroke-width="2px"/><text text-anchor="middle" pointer-events="none" font-family="sans-serif" dy="1.5625" font-size="25" fill="#2A2C34"/><text text-anchor="middle" pointer-events="none" font-family="sans-serif" dy="1.5625" font-size="25" fill="#2A2C34"/><text text-anchor="middle" pointer-events="none" x="0" y="0" font-size="10px" fill="#2A2C34" font-family="sans-serif"> The</text><text text-anchor="middle" pointer-events="none" x="0" y="10" font-size="10px" fill="#2A2C34" font-family="sans-serif"> Matrix</text></g><g class="node" transform="translate(-183.64438318394699,87.22397424083437)"><circle class="outline" cx="0" cy="0" r="25" fill="#57C7E3" stroke="#23b3d7" stroke-width="2px"/><text text-anchor="middle" pointer-events="none" font-family="sans-serif" dy="1.5625" font-size="25" fill="#2A2C34"/><text text-anchor="middle" pointer-events="none" font-family="sans-serif" dy="1.5625" font-size="25" fill="#2A2C34"/><text text-anchor="middle" pointer-events="none" font-family="sans-serif" dy="1.5625" font-size="25" fill="#2A2C34"/><text text-anchor="middle" pointer-events="none" x="0" y="-5" font-size="10px" fill="#2A2C34" font-family="sans-serif"> The</text><text text-anchor="middle" pointer-events="none" x="0" y="5" font-size="10px" fill="#2A2C34" font-family="sans-serif"> Matrix</text><text text-anchor="middle" pointer-events="none" x="0" y="15" font-size="10px" fill="#2A2C34" font-family="sans-serif"> Revol…</text></g><g class="node" transform="translate(-105.50113395207795,-8.813976198167767)"><circle class="outline" cx="0" cy="0" r="25" fill="#F79767" stroke="#f36924" stroke-width="2px"/><text text-anchor="middle" pointer-events="none" font-family="sans-serif" dy="1.5625" font-size="25" fill="#FFFFFF"/><text text-anchor="middle" pointer-events="none" font-family="sans-serif" dy="1.5625" font-size="25" fill="#FFFFFF"/><text text-anchor="middle" pointer-events="none" x="0" y="0" font-size="10px" fill="#FFFFFF" font-family="sans-serif"> Hugo</text><text text-anchor="middle" pointer-events="none" x="0" y="10" font-size="10px" fill="#FFFFFF" font-family="sans-serif"> Weaving</text></g><g class="node" transform="translate(-113.60142461981542,190.89862106606688)"><circle class="outline" cx="0" cy="0" r="25" fill="#F79767" stroke="#f36924" stroke-width="2px"/><text text-anchor="middle" pointer-events="none" font-family="sans-serif" dy="1.5625" font-size="25" fill="#FFFFFF"/><text text-anchor="middle" pointer-events="none" font-family="sans-serif" dy="1.5625" font-size="25" fill="#FFFFFF"/><text text-anchor="middle" pointer-events="none" x="0" y="0" font-size="10px" fill="#FFFFFF" font-family="sans-serif"> Keanu</text><text text-anchor="middle" pointer-events="none" x="0" y="10" font-size="10px" fill="#FFFFFF" font-family="sans-serif"> Reeves</text></g><g class="node" transform="translate(-44.721929598223106,93.10515128066774)"><circle class="outline" cx="0" cy="0" r="25" fill="#57C7E3" stroke="#23b3d7" stroke-width="2px"/><text text-anchor="middle" pointer-events="none" font-family="sans-serif" dy="1.5625" font-size="25" fill="#2A2C34"/><text text-anchor="middle" pointer-events="none" font-family="sans-serif" dy="1.5625" font-size="25" fill="#2A2C34"/><text text-anchor="middle" pointer-events="none" font-family="sans-serif" dy="1.5625" font-size="25" fill="#2A2C34"/><text text-anchor="middle" pointer-events="none" x="0" y="-5" font-size="10px" fill="#2A2C34" font-family="sans-serif"> The</text><text text-anchor="middle" pointer-events="none" x="0" y="5" font-size="10px" fill="#2A2C34" font-family="sans-serif"> Matrix</text><text text-anchor="middle" pointer-events="none" x="0" y="15" font-size="10px" fill="#2A2C34" font-family="sans-serif"> Reloa…</text></g><g class="node" transform="translate(-123.52988021523078,92.18633931093035)"><circle class="outline" cx="0" cy="0" r="25" fill="#57C7E3" stroke="#23b3d7" stroke-width="2px"/><text text-anchor="middle" pointer-events="none" font-family="sans-serif" dy="1.5625" font-size="25" fill="#2A2C34"/><text text-anchor="middle" pointer-events="none" font-family="sans-serif" dy="1.5625" font-size="25" fill="#2A2C34"/><text text-anchor="middle" pointer-events="none" x="0" y="0" font-size="10px" fill="#2A2C34" font-family="sans-serif"> The</text><text text-anchor="middle" pointer-events="none" x="0" y="10" font-size="10px" fill="#2A2C34" font-family="sans-serif"> Matrix</text></g></g></svg>