<svg xmlns="http://www.w3.org/2000/svg" width="163.018310546875" height="244.18911743164062" viewBox="-2.0567493438720703 -21.25609016418457 163.018310546875 244.18911743164062"><title>Neo4j Graph Visualization</title><desc>Created using Neo4j (http://www.neo4j.com/)</desc><g class="layer relationships"><g class="relationship" transform="translate(131.96156644548296 7.743909416804911) rotate(522.3122801957934)"><path class="outline" fill="#A5ABB6" stroke="none" d="M 21.40063509461097,12.933012701892217 L 21.90063509461097,12.06698729810778 A 60.04665138833123 60.04665138833123 0 0 0 40.555740025712964,19.025759707191057 L 40.366416882786254,20.007674544410833 A 61.04665138833123 61.04665138833123 0 0 1 21.40063509461097,12.933012701892217 Z M 59.770087051819424,20.605395020177376 L 59.64156032537981,19.61368897472302 A 60.04665138833123 60.04665138833123 0 0 0 78.6896111626044,13.816343656876823 L 77.35236838111787,11.130867583000498 L 85.17859579856356,11.143689845720997 L 80.47260153791974,17.396978422045255 L 79.13535875643322,14.71150234816893 A 61.04665138833123 61.04665138833123 0 0 1 59.770087051819424,20.605395020177376"/><text text-anchor="middle" pointer-events="none" font-size="8px" fill="#000000" x="50.05973538615529" y="23.583006708980065" transform="rotate(180 50.05973538615529 20.583006708980065)" font-family="sans-serif">trek</text></g><g class="relationship" transform="translate(29.488612622175648 40.423002283970845) rotate(451.3680079307443)"><path class="outline" fill="#A5ABB6" stroke="none" d="M 25 0.5 L 40.14032109495774 0.5 L 40.14032109495774 -0.5 L 25 -0.5 Z M 59.47625859495774 0.5 L 74.61657968991548 0.5 L 74.61657968991548 3.5 L 81.61657968991548 0 L 74.61657968991548 -3.5 L 74.61657968991548 -0.5 L 59.47625859495774 -0.5 Z"/><text text-anchor="middle" pointer-events="none" font-size="8px" fill="#000000" x="49.80828984495774" y="3" transform="rotate(180 49.80828984495774 0)" font-family="sans-serif">trek</text></g><g class="relationship" transform="translate(26.94325115915332 147.00919369636094) rotate(385.9398743541109)"><path class="outline" fill="#A5ABB6" stroke="none" d="M 25 0.5 L 40.468131677459986 0.5 L 40.468131677459986 -0.5 L 25 -0.5 Z M 59.804069177459986 0.5 L 75.27220085491997 0.5 L 75.27220085491997 3.5 L 82.27220085491997 0 L 75.27220085491997 -3.5 L 75.27220085491997 -0.5 L 59.804069177459986 -0.5 Z"/><text text-anchor="middle" pointer-events="none" font-size="8px" fill="#000000" x="50.136100427459986" y="3" font-family="sans-serif">trek</text></g><g class="relationship" transform="translate(131.96156644548296 7.743909416804911) rotate(522.3122801957934)"><path class="outline" fill="#A5ABB6" stroke="none" d="M 25 0.5 L 39.27292216543314 0.5 L 39.27292216543314 -0.5 L 25 -0.5 Z M 61.28464091543314 0.5 L 75.55756308086627 0.5 L 75.55756308086627 3.5 L 82.55756308086627 0 L 75.55756308086627 -3.5 L 75.55756308086627 -0.5 L 61.28464091543314 -0.5 Z"/><text text-anchor="middle" pointer-events="none" font-size="8px" fill="#000000" x="50.27878154043314" y="3" transform="rotate(180 50.27878154043314 0)" font-family="sans-serif">road</text></g><g class="relationship" transform="translate(131.96156644548296 7.743909416804911) rotate(522.3122801957934)"><path class="outline" fill="#A5ABB6" stroke="none" d="M 21.40063509461097,-12.933012701892217 L 21.90063509461097,-12.06698729810778 A 60.04665138833123 60.04665138833123 0 0 1 23.51810899737533,-12.967877653450927 L 23.045045951649495,-13.848906231176194 A 61.04665138833123 61.04665138833123 0 0 0 21.40063509461097,-12.933012701892217 Z M 77.43769196009448,-15.524444826047514 L 77.01975370154825,-14.615969393224283 A 60.04665138833123 60.04665138833123 0 0 1 78.6896111626044,-13.816343656876823 L 77.35236838111787,-11.130867583000498 L 85.17859579856356,-11.143689845720997 L 80.47260153791974,-17.396978422045255 L 79.13535875643322,-14.71150234816893 A 61.04665138833123 61.04665138833123 0 0 0 77.43769196009448,-15.524444826047514"/><text text-anchor="middle" pointer-events="none" font-size="8px" fill="#000000" x="50.059735386155296" y="-17.583006708980065" transform="rotate(180 50.059735386155296 -20.583006708980065)" font-family="sans-serif">PublicTrans…</text></g></g><g class="layer nodes"><g class="node" transform="translate(131.96156644548296,7.743909416804911)"><circle class="outline" cx="0" cy="0" r="25" fill="#D9C8AE" stroke="#c0a378" stroke-width="2px"/><text text-anchor="middle" pointer-events="none" font-family="sans-serif" dy="1.5625" font-size="25" fill="#2A2C34"/><text text-anchor="middle" pointer-events="none" x="0" y="5" font-size="10px" fill="#2A2C34" font-family="sans-serif"> Darjeeling</text></g><g class="node" transform="translate(123.40816115164824,193.93302790029344)"><circle class="outline" cx="0" cy="0" r="25" fill="#F16667" stroke="#eb2728" stroke-width="2px"/><text text-anchor="middle" pointer-events="none" font-family="sans-serif" dy="1.5625" font-size="25" fill="#FFFFFF"/><text text-anchor="middle" pointer-events="none" x="0" y="5" font-size="10px" fill="#FFFFFF" font-family="sans-serif"> Sandak…</text></g><g class="node" transform="translate(29.488612622175648,40.423002283970845)"><circle class="outline" cx="0" cy="0" r="25" fill="#D9C8AE" stroke="#c0a378" stroke-width="2px"/><text text-anchor="middle" pointer-events="none" font-family="sans-serif" dy="1.5625" font-size="25" fill="#2A2C34"/><text text-anchor="middle" pointer-events="none" x="0" y="5" font-size="10px" fill="#2A2C34" font-family="sans-serif"> Rimbik</text></g><g class="node" transform="translate(26.94325115915332,147.00919369636094)"><circle class="outline" cx="0" cy="0" r="25" fill="#8DCC93" stroke="#5db665" stroke-width="2px"/><text text-anchor="middle" pointer-events="none" font-family="sans-serif" dy="1.5625" font-size="25" fill="#2A2C34"/><text text-anchor="middle" pointer-events="none" x="0" y="5" font-size="10px" fill="#2A2C34" font-family="sans-serif"> BhikeBh…</text></g></g></svg>