<svg xmlns="http://www.w3.org/2000/svg" width="841.3924560546875" height="812.945556640625" viewBox="-374.6582336425781 -318.7857971191406 841.3924560546875 812.945556640625"><title>Neo4j Graph Visualization</title><desc>Created using Neo4j (http://www.neo4j.com/)</desc><g class="layer relationships"><g class="relationship" transform="translate(264.1541772244125 336.5998465425325) rotate(191.59524624047117)"><path class="outline" fill="#A5ABB6" stroke="none" d="M 24.018736134675446,6.953439040707552 L 24.277555179777966,5.987513214418485 A 81.15501749964163 81.15501749964163 0 0 0 26.236214263635215,6.48627791219441 L 26.001530005810213,7.458349565483985 A 82.15501749964163 82.15501749964163 0 0 1 24.018736134675446,6.953439040707552 Z M 61.70118356058093,8.09535072261393 L 61.501327669291776,7.1155254204722524 A 81.15501749964163 81.15501749964163 0 0 0 63.476533529001806,6.686954023513696 L 62.803949820369056,3.7633208120998876 L 70.41044164040615,5.604864238606247 L 64.37331180717881,10.585131638732106 L 63.70072809854606,7.661498427318298 A 82.15501749964163 82.15501749964163 0 0 1 61.70118356058093,8.09535072261393"/><text text-anchor="middle" pointer-events="none" font-size="8px" fill="#000000" x="43.825252731417166" y="12.239807619768229" transform="rotate(180 43.825252731417166 9.239807619768229)" font-family="sans-serif">WROTE</text></g><g class="relationship" transform="translate(264.1541772244125 336.5998465425325) rotate(335.3277095204551)"><path class="outline" fill="#A5ABB6" stroke="none" d="M 25 0.5 L 25.030912106197405 0.5 L 25.030912106197405 -0.5 L 25 -0.5 Z M 68.8082558561974 0.5 L 68.83916796239481 0.5 L 68.83916796239481 3.5 L 75.83916796239481 0 L 68.83916796239481 -3.5 L 68.83916796239481 -0.5 L 68.8082558561974 -0.5 Z"/><text text-anchor="middle" pointer-events="none" font-size="8px" fill="#000000" x="46.919583981197405" y="3" font-family="sans-serif">DIRECT…</text></g><g class="relationship" transform="translate(264.1541772244125 336.5998465425325) rotate(191.59524624047117)"><path class="outline" fill="#A5ABB6" stroke="none" d="M 24.018736134675446,-6.953439040707552 L 24.277555179777966,-5.987513214418485 A 81.15501749964163 81.15501749964163 0 0 1 25.589638028639513,-6.327367261092917 L 25.346986595710415,-7.297480801920727 A 82.15501749964163 82.15501749964163 0 0 0 24.018736134675446,-6.953439040707552 Z M 62.361049355655794,-7.957935413111613 L 62.15316150460133,-6.979782745383332 A 81.15501749964163 81.15501749964163 0 0 1 63.476533529001806,-6.686954023513696 L 62.803949820369056,-3.7633208120998876 L 70.41044164040615,-5.604864238606247 L 64.37331180717881,-10.585131638732106 L 63.70072809854606,-7.661498427318298 A 82.15501749964163 82.15501749964163 0 0 0 62.361049355655794,-7.957935413111613"/><text text-anchor="middle" pointer-events="none" font-size="8px" fill="#000000" x="43.825252731417145" y="-6.239807619768229" transform="rotate(180 43.825252731417145 -9.239807619768229)" font-family="sans-serif">PROD…</text></g><g class="relationship" transform="translate(264.1541772244125 336.5998465425325) rotate(387.7663990711224)"><path class="outline" fill="#A5ABB6" stroke="none" d="M 25 0.5 L 33.819770921144766 0.5 L 33.819770921144766 -0.5 L 25 -0.5 Z M 80.71039592114477 0.5 L 89.53016684228953 0.5 L 89.53016684228953 3.5 L 96.53016684228953 0 L 89.53016684228953 -3.5 L 89.53016684228953 -0.5 L 80.71039592114477 -0.5 Z"/><text text-anchor="middle" pointer-events="none" font-size="8px" fill="#000000" x="57.265083421144766" y="3" font-family="sans-serif">DIRECTED</text></g><g class="relationship" transform="translate(264.1541772244125 336.5998465425325) rotate(505.637981516781)"><path class="outline" fill="#A5ABB6" stroke="none" d="M 25 0.5 L 33.19320203161936 0.5 L 33.19320203161936 -0.5 L 25 -0.5 Z M 80.08382703161936 0.5 L 88.27702906323871 0.5 L 88.27702906323871 3.5 L 95.27702906323871 0 L 88.27702906323871 -3.5 L 88.27702906323871 -0.5 L 80.08382703161936 -0.5 Z"/><text text-anchor="middle" pointer-events="none" font-size="8px" fill="#000000" x="56.63851453161936" y="3" transform="rotate(180 56.63851453161936 0)" font-family="sans-serif">DIRECTED</text></g><g class="relationship" transform="translate(264.1541772244125 336.5998465425325) rotate(470.49654618504815)"><path class="outline" fill="#A5ABB6" stroke="none" d="M 25 0.5 L 41.67901536316606 0.5 L 41.67901536316606 -0.5 L 25 -0.5 Z M 88.56964036316606 0.5 L 105.24865572633212 0.5 L 105.24865572633212 3.5 L 112.24865572633212 0 L 105.24865572633212 -3.5 L 105.24865572633212 -0.5 L 88.56964036316606 -0.5 Z"/><text text-anchor="middle" pointer-events="none" font-size="8px" fill="#000000" x="65.12432786316606" y="3" transform="rotate(180 65.12432786316606 0)" font-family="sans-serif">DIRECTED</text></g><g class="relationship" transform="translate(275.8160013823174 395.4025606793925) rotate(216.68547569364085)"><path class="outline" fill="#A5ABB6" stroke="none" d="M 24.018736134675446,6.953439040707552 L 24.277555179777966,5.987513214418485 A 152.0295313683829 152.0295313683829 0 0 0 43.84457613053925,9.875403952000937 L 43.714462480859865,10.866903038317759 A 153.0295313683829 153.0295313683829 0 0 1 24.018736134675446,6.953439040707552 Z M 79.5198372966392,11.340147048452366 L 79.415974049862,10.345555460930683 A 152.0295313683829 152.0295313683829 0 0 0 99.07891528070876,6.976171922777774 L 98.37931655842745,4.058885233440855 L 106.00251734287511,5.829989352344211 L 100.01171357708382,10.865887508560334 L 99.31211485480252,7.948600819223414 A 153.0295313683829 153.0295313683829 0 0 1 79.5198372966392,11.340147048452366"/><text text-anchor="middle" pointer-events="none" font-size="8px" fill="#000000" x="61.60986794562131" y="14.65447275219762" transform="rotate(180 61.60986794562131 11.65447275219762)" font-family="sans-serif">WROTE</text></g><g class="relationship" transform="translate(275.8160013823174 395.4025606793925) rotate(216.68547569364085)"><path class="outline" fill="#A5ABB6" stroke="none" d="M 24.018736134675446,-6.953439040707552 L 24.277555179777966,-5.987513214418485 A 152.0295313683829 152.0295313683829 0 0 1 35.96558224243188,-8.63039160921727 L 35.783643175564194,-9.613701415914704 A 153.0295313683829 153.0295313683829 0 0 0 24.018736134675446,-6.953439040707552 Z M 87.48100783109527,-10.296991795888403 L 87.32512083136486,-9.309216900826243 A 152.0295313683829 152.0295313683829 0 0 1 99.07891528070876,-6.976171922777774 L 98.37931655842745,-4.058885233440855 L 106.00251734287511,-5.829989352344211 L 100.01171357708382,-10.865887508560334 L 99.31211485480252,-7.948600819223414 A 153.0295313683829 153.0295313683829 0 0 0 87.48100783109527,-10.296991795888403"/><text text-anchor="middle" pointer-events="none" font-size="8px" fill="#000000" x="61.609867945621296" y="-8.65447275219762" transform="rotate(180 61.609867945621296 -11.65447275219762)" font-family="sans-serif">PRODUCED</text></g><g class="relationship" transform="translate(275.8160013823174 395.4025606793925) rotate(308.4009589989213)"><path class="outline" fill="#A5ABB6" stroke="none" d="M 25 0.5 L 37.427503580084775 0.5 L 37.427503580084775 -0.5 L 25 -0.5 Z M 84.31812858008477 0.5 L 96.74563216016955 0.5 L 96.74563216016955 3.5 L 103.74563216016955 0 L 96.74563216016955 -3.5 L 96.74563216016955 -0.5 L 84.31812858008477 -0.5 Z"/><text text-anchor="middle" pointer-events="none" font-size="8px" fill="#000000" x="60.872816080084775" y="3" font-family="sans-serif">DIRECTED</text></g><g class="relationship" transform="translate(275.8160013823174 395.4025606793925) rotate(358.69401384843184)"><path class="outline" fill="#A5ABB6" stroke="none" d="M 25 0.5 L 25.004478593278662 0.5 L 25.004478593278662 -0.5 L 25 -0.5 Z M 63.89510359327866 0.5 L 63.899582186557325 0.5 L 63.899582186557325 3.5 L 70.89958218655732 0 L 63.899582186557325 -3.5 L 63.899582186557325 -0.5 L 63.89510359327866 -0.5 Z"/><text text-anchor="middle" pointer-events="none" font-size="8px" fill="#000000" x="44.44979109327866" y="3" font-family="sans-serif">DIREC…</text></g><g class="relationship" transform="translate(275.8160013823174 395.4025606793925) rotate(535.3193061033082)"><path class="outline" fill="#A5ABB6" stroke="none" d="M 25 0.5 L 28.71484170337878 0.5 L 28.71484170337878 -0.5 L 25 -0.5 Z M 75.60546670337878 0.5 L 79.32030840675756 0.5 L 79.32030840675756 3.5 L 86.32030840675756 0 L 79.32030840675756 -3.5 L 79.32030840675756 -0.5 L 75.60546670337878 -0.5 Z"/><text text-anchor="middle" pointer-events="none" font-size="8px" fill="#000000" x="52.16015420337878" y="3" transform="rotate(180 52.16015420337878 0)" font-family="sans-serif">DIRECTED</text></g><g class="relationship" transform="translate(275.8160013823174 395.4025606793925) rotate(490.5670422262618)"><path class="outline" fill="#A5ABB6" stroke="none" d="M 25 0.5 L 25.857657510766586 0.5 L 25.857657510766586 -0.5 L 25 -0.5 Z M 58.970938760766586 0.5 L 59.82859627153317 0.5 L 59.82859627153317 3.5 L 66.82859627153317 0 L 59.82859627153317 -3.5 L 59.82859627153317 -0.5 L 58.970938760766586 -0.5 Z"/><text text-anchor="middle" pointer-events="none" font-size="8px" fill="#000000" x="42.414298135766586" y="3" transform="rotate(180 42.414298135766586 0)" font-family="sans-serif">DIRE…</text></g><g class="relationship" transform="translate(437.7342686396334 212.9043576654411) rotate(495.12054170084923)"><path class="outline" fill="#A5ABB6" stroke="none" d="M 25 0.5 L 30.878100139746905 0.5 L 30.878100139746905 -0.5 L 25 -0.5 Z M 77.7687251397469 0.5 L 83.64682527949381 0.5 L 83.64682527949381 3.5 L 90.64682527949381 0 L 83.64682527949381 -3.5 L 83.64682527949381 -0.5 L 77.7687251397469 -0.5 Z"/><text text-anchor="middle" pointer-events="none" font-size="8px" fill="#000000" x="54.323412639746905" y="3" transform="rotate(180 54.323412639746905 0)" font-family="sans-serif">DIRECTED</text></g><g class="relationship" transform="translate(145.04641110007415 209.23675402006694) rotate(436.36802270224865)"><path class="outline" fill="#A5ABB6" stroke="none" d="M 25 0.5 L 28.78144473085395 0.5 L 28.78144473085395 -0.5 L 25 -0.5 Z M 75.67206973085395 0.5 L 79.4535144617079 0.5 L 79.4535144617079 3.5 L 86.4535144617079 0 L 79.4535144617079 -3.5 L 79.4535144617079 -0.5 L 75.67206973085395 -0.5 Z"/><text text-anchor="middle" pointer-events="none" font-size="8px" fill="#000000" x="52.22675723085395" y="3" font-family="sans-serif">DIRECTED</text></g><g class="relationship" transform="translate(254.5557165459029 -111.85858772337461) rotate(235.4938561742121)"><path class="outline" fill="#A5ABB6" stroke="none" d="M 24.018736134675446,-6.953439040707552 L 24.277555179777966,-5.987513214418485 A 153.17917709368788 153.17917709368788 0 0 1 44.134263475280676,-9.92333492056045 L 44.00507502796729,-10.914954981410744 A 154.17917709368788 154.17917709368788 0 0 0 24.018736134675446,-6.953439040707552 Z M 79.81082535522492,-11.386204819367151 L 79.70777913244729,-10.391528250842867 A 153.17917709368788 153.17917709368788 0 0 1 99.66119251322489,-6.979659072367674 L 98.96126809138372,-4.062450508738687 L 106.58466656533272,-5.832703515343102 L 100.5944250756798,-10.869270490539657 L 99.89450065383862,-7.95206192691067 A 154.17917709368788 154.17917709368788 0 0 0 79.81082535522492,-11.386204819367151"/><text text-anchor="middle" pointer-events="none" font-size="8px" fill="#000000" x="61.90080257421895" y="-8.693658714698444" transform="rotate(180 61.90080257421895 -11.693658714698444)" font-family="sans-serif">WROTE</text></g><g class="relationship" transform="translate(254.5557165459029 -111.85858772337461) rotate(405.1741074251885)"><path class="outline" fill="#A5ABB6" stroke="none" d="M 25 0.5 L 25.9960192347977 0.5 L 25.9960192347977 -0.5 L 25 -0.5 Z M 59.1093004847977 0.5 L 60.1053197195954 0.5 L 60.1053197195954 3.5 L 67.1053197195954 0 L 60.1053197195954 -3.5 L 60.1053197195954 -0.5 L 59.1093004847977 -0.5 Z"/><text text-anchor="middle" pointer-events="none" font-size="8px" fill="#000000" x="42.5526598597977" y="3" font-family="sans-serif">DIRE…</text></g><g class="relationship" transform="translate(254.5557165459029 -111.85858772337461) rotate(358.7106966988483)"><path class="outline" fill="#A5ABB6" stroke="none" d="M 25 0.5 L 29.559891923284212 0.5 L 29.559891923284212 -0.5 L 25 -0.5 Z M 76.45051692328421 0.5 L 81.01040884656842 0.5 L 81.01040884656842 3.5 L 88.01040884656842 0 L 81.01040884656842 -3.5 L 81.01040884656842 -0.5 L 76.45051692328421 -0.5 Z"/><text text-anchor="middle" pointer-events="none" font-size="8px" fill="#000000" x="53.00520442328421" y="3" font-family="sans-serif">DIRECTED</text></g><g class="relationship" transform="translate(254.5557165459029 -111.85858772337461) rotate(317.0912783625696)"><path class="outline" fill="#A5ABB6" stroke="none" d="M 25 0.5 L 39.175672329191144 0.5 L 39.175672329191144 -0.5 L 25 -0.5 Z M 86.06629732919114 0.5 L 100.24196965838229 0.5 L 100.24196965838229 3.5 L 107.24196965838229 0 L 100.24196965838229 -3.5 L 100.24196965838229 -0.5 L 86.06629732919114 -0.5 Z"/><text text-anchor="middle" pointer-events="none" font-size="8px" fill="#000000" x="62.620984829191144" y="3" font-family="sans-serif">DIRECTED</text></g><g class="relationship" transform="translate(254.5557165459029 -111.85858772337461) rotate(235.4938561742121)"><path class="outline" fill="#A5ABB6" stroke="none" d="M 24.018736134675446,6.953439040707552 L 24.277555179777966,5.987513214418485 A 153.17917709368788 153.17917709368788 0 0 0 36.25366119225686,8.687189015239198 L 36.07302578960304,9.670739141723914 A 154.17917709368788 154.17917709368788 0 0 1 24.018736134675446,6.953439040707552 Z M 87.77287239480103,10.35117577864375 L 87.61818465213943,9.363212367241147 A 153.17917709368788 153.17917709368788 0 0 0 99.66119251322489,6.979659072367674 L 98.96126809138372,4.062450508738687 L 106.58466656533272,5.832703515343102 L 100.5944250756798,10.869270490539657 L 99.89450065383862,7.95206192691067 A 154.17917709368788 154.17917709368788 0 0 1 87.77287239480103,10.35117577864375"/><text text-anchor="middle" pointer-events="none" font-size="8px" fill="#000000" x="61.900802574218986" y="14.693658714698444" transform="rotate(180 61.900802574218986 11.693658714698444)" font-family="sans-serif">PRODUCED</text></g><g class="relationship" transform="translate(254.5557165459029 -111.85858772337461) rotate(536.477487616865)"><path class="outline" fill="#A5ABB6" stroke="none" d="M 25 0.5 L 25.295437209609197 0.5 L 25.295437209609197 -0.5 L 25 -0.5 Z M 64.18606220960919 0.5 L 64.4814994192184 0.5 L 64.4814994192184 3.5 L 71.4814994192184 0 L 64.4814994192184 -3.5 L 64.4814994192184 -0.5 L 64.18606220960919 -0.5 Z"/><text text-anchor="middle" pointer-events="none" font-size="8px" fill="#000000" x="44.7407497096092" y="3" transform="rotate(180 44.7407497096092 0)" font-family="sans-serif">DIREC…</text></g><g class="relationship" transform="translate(265.8732077304512 -170.72107260769064) rotate(426.6499602074149)"><path class="outline" fill="#A5ABB6" stroke="none" d="M 25 0.5 L 40.68801194541567 0.5 L 40.68801194541567 -0.5 L 25 -0.5 Z M 87.57863694541567 0.5 L 103.26664889083133 0.5 L 103.26664889083133 3.5 L 110.26664889083133 0 L 103.26664889083133 -3.5 L 103.26664889083133 -0.5 L 87.57863694541567 -0.5 Z"/><text text-anchor="middle" pointer-events="none" font-size="8px" fill="#000000" x="64.13332444541567" y="3" font-family="sans-serif">DIRECTED</text></g><g class="relationship" transform="translate(265.8732077304512 -170.72107260769064) rotate(209.8277494617492)"><path class="outline" fill="#A5ABB6" stroke="none" d="M 24.018736134675446,-6.953439040707552 L 24.277555179777966,-5.987513214418485 A 88.70116231480571 88.70116231480571 0 0 1 24.635674815173882,-6.082669806633859 L 24.380893142593322,-7.0496684102094065 A 89.70116231480571 89.70116231480571 0 0 0 24.018736134675446,-6.953439040707552 Z M 67.09131719722399,-7.784648502788016 L 66.86995761419028,-6.809456247384432 A 88.70116231480571 88.70116231480571 0 0 1 67.23113923687869,-6.726677713148131 L 66.55484480942806,-3.803900635196543 L 74.16366815667418,-5.635786895421925 L 68.13286514014621,-10.623713817083582 L 67.45657071269558,-7.700936739131993 A 89.70116231480571 89.70116231480571 0 0 0 67.09131719722399,-7.784648502788016"/><text text-anchor="middle" pointer-events="none" font-size="8px" fill="#000000" x="45.700319017481895" y="-6.496727360287963" transform="rotate(180 45.700319017481895 -9.496727360287963)" font-family="sans-serif">PRODU…</text></g><g class="relationship" transform="translate(265.8732077304512 -170.72107260769064) rotate(209.8277494617492)"><path class="outline" fill="#A5ABB6" stroke="none" d="M 24.018736134675446,6.953439040707552 L 24.277555179777966,5.987513214418485 A 88.70116231480571 88.70116231480571 0 0 0 28.074615160824393,6.915766042413793 L 27.858603446335763,7.8921568141869045 A 89.70116231480571 89.70116231480571 0 0 1 24.018736134675446,6.953439040707552 Z M 63.58667874604017,8.50698152437576 L 63.404389319521094,7.52373660830483 A 88.70116231480571 88.70116231480571 0 0 0 67.23113923687869,6.726677713148131 L 66.55484480942806,3.803900635196543 L 74.16366815667418,5.635786895421925 L 68.13286514014621,10.623713817083582 L 67.45657071269558,7.700936739131993 A 89.70116231480571 89.70116231480571 0 0 1 63.58667874604017,8.50698152437576"/><text text-anchor="middle" pointer-events="none" font-size="8px" fill="#000000" x="45.700319017481945" y="12.496727360287963" transform="rotate(180 45.700319017481945 9.496727360287963)" font-family="sans-serif">WROTE</text></g><g class="relationship" transform="translate(265.8732077304512 -170.72107260769064) rotate(508.9500596625228)"><path class="outline" fill="#A5ABB6" stroke="none" d="M 25 0.5 L 35.86223000769996 0.5 L 35.86223000769996 -0.5 L 25 -0.5 Z M 82.75285500769996 0.5 L 93.61508501539991 0.5 L 93.61508501539991 3.5 L 100.61508501539991 0 L 93.61508501539991 -3.5 L 93.61508501539991 -0.5 L 82.75285500769996 -0.5 Z"/><text text-anchor="middle" pointer-events="none" font-size="8px" fill="#000000" x="59.30754250769996" y="3" transform="rotate(180 59.30754250769996 0)" font-family="sans-serif">DIRECTED</text></g><g class="relationship" transform="translate(265.8732077304512 -170.72107260769064) rotate(388.98543815367054)"><path class="outline" fill="#A5ABB6" stroke="none" d="M 25 0.5 L 31.165651985350443 0.5 L 31.165651985350443 -0.5 L 25 -0.5 Z M 78.05627698535045 0.5 L 84.22192897070089 0.5 L 84.22192897070089 3.5 L 91.22192897070089 0 L 84.22192897070089 -3.5 L 84.22192897070089 -0.5 L 78.05627698535045 -0.5 Z"/><text text-anchor="middle" pointer-events="none" font-size="8px" fill="#000000" x="54.61096448535044" y="3" font-family="sans-serif">DIRECTED</text></g><g class="relationship" transform="translate(265.8732077304512 -170.72107260769064) rotate(339.97783056631147)"><path class="outline" fill="#A5ABB6" stroke="none" d="M 25 0.5 L 25.465572528054977 0.5 L 25.465572528054977 -0.5 L 25 -0.5 Z M 58.57885377805498 0.5 L 59.044426306109955 0.5 L 59.044426306109955 3.5 L 66.04442630610995 0 L 59.044426306109955 -3.5 L 59.044426306109955 -0.5 L 58.57885377805498 -0.5 Z"/><text text-anchor="middle" pointer-events="none" font-size="8px" fill="#000000" x="42.02221315305498" y="3" font-family="sans-serif">DIRE…</text></g><g class="relationship" transform="translate(46.8236403583418 -109.33155030515486) rotate(361.7480856813542)"><path class="outline" fill="#A5ABB6" stroke="none" d="M 25 0.5 L 28.797057377199202 0.5 L 28.797057377199202 -0.5 L 25 -0.5 Z M 75.6876823771992 0.5 L 79.4847397543984 0.5 L 79.4847397543984 3.5 L 86.4847397543984 0 L 79.4847397543984 -3.5 L 79.4847397543984 -0.5 L 75.6876823771992 -0.5 Z"/><text text-anchor="middle" pointer-events="none" font-size="8px" fill="#000000" x="52.2423698771992" y="3" font-family="sans-serif">DIRECTED</text></g><g class="relationship" transform="translate(86.25149721151222 -289.78578722515533) rotate(396.6537497712227)"><path class="outline" fill="#A5ABB6" stroke="none" d="M 25 0.5 L 31.73473825191153 0.5 L 31.73473825191153 -0.5 L 25 -0.5 Z M 78.62536325191152 0.5 L 85.36010150382306 0.5 L 85.36010150382306 3.5 L 92.36010150382306 0 L 85.36010150382306 -3.5 L 85.36010150382306 -0.5 L 78.62536325191152 -0.5 Z"/><text text-anchor="middle" pointer-events="none" font-size="8px" fill="#000000" x="55.18005075191153" y="3" font-family="sans-serif">DIRECTED</text></g><g class="relationship" transform="translate(-178.45651209002207 101.7266784035908) rotate(295.9116387293493)"><path class="outline" fill="#A5ABB6" stroke="none" d="M 25 0.5 L 39.520172867255624 0.5 L 39.520172867255624 -0.5 L 25 -0.5 Z M 86.41079786725562 0.5 L 100.93097073451125 0.5 L 100.93097073451125 3.5 L 107.93097073451125 0 L 100.93097073451125 -3.5 L 100.93097073451125 -0.5 L 86.41079786725562 -0.5 Z"/><text text-anchor="middle" pointer-events="none" font-size="8px" fill="#000000" x="62.965485367255624" y="3" font-family="sans-serif">DIRECTED</text></g><g class="relationship" transform="translate(-178.45651209002207 101.7266784035908) rotate(393.51711993182806)"><path class="outline" fill="#A5ABB6" stroke="none" d="M 24.018736134675446,-6.953439040707552 L 24.277555179777966,-5.987513214418485 A 134.25578644760347 134.25578644760347 0 0 1 31.528257932009247,-7.716112536612741 L 31.323445518159534,-8.694913780549967 A 135.25578644760347 135.25578644760347 0 0 0 24.018736134675446,-6.953439040707552 Z M 82.97249293684408,-9.425387754125978 L 82.79544333373164,-8.441185824622835 A 134.25578644760347 134.25578644760347 0 0 1 90.09213150075172,-6.918330673541864 L 89.39793523491163,-3.999753701027061 L 97.0178438142596,-5.784968882000782 L 91.01772652187184,-10.809766636894935 L 90.32353025603175,-7.891189664380131 A 135.25578644760347 135.25578644760347 0 0 0 82.97249293684408,-9.425387754125978"/><text text-anchor="middle" pointer-events="none" font-size="8px" fill="#000000" x="57.119845217904036" y="-8.048692943875608" font-family="sans-serif">PRODUCED</text></g><g class="relationship" transform="translate(-178.45651209002207 101.7266784035908) rotate(259.4688434520211)"><path class="outline" fill="#A5ABB6" stroke="none" d="M 25 0.5 L 30.687408306859595 0.5 L 30.687408306859595 -0.5 L 25 -0.5 Z M 77.5780333068596 0.5 L 83.26544161371919 0.5 L 83.26544161371919 3.5 L 90.26544161371919 0 L 83.26544161371919 -3.5 L 83.26544161371919 -0.5 L 77.5780333068596 -0.5 Z"/><text text-anchor="middle" pointer-events="none" font-size="8px" fill="#000000" x="54.132720806859595" y="3" transform="rotate(180 54.132720806859595 0)" font-family="sans-serif">DIRECTED</text></g><g class="relationship" transform="translate(-178.45651209002207 101.7266784035908) rotate(209.12634646803377)"><path class="outline" fill="#A5ABB6" stroke="none" d="M 25 0.5 L 26.125739103281973 0.5 L 26.125739103281973 -0.5 L 25 -0.5 Z M 59.23902035328197 0.5 L 60.364759456563945 0.5 L 60.364759456563945 3.5 L 67.36475945656395 0 L 60.364759456563945 -3.5 L 60.364759456563945 -0.5 L 59.23902035328197 -0.5 Z"/><text text-anchor="middle" pointer-events="none" font-size="8px" fill="#000000" x="42.68237972828197" y="3" transform="rotate(180 42.68237972828197 0)" font-family="sans-serif">DIRE…</text></g><g class="relationship" transform="translate(-178.45651209002207 101.7266784035908) rotate(393.51711993182806)"><path class="outline" fill="#A5ABB6" stroke="none" d="M 24.018736134675446,6.953439040707552 L 24.277555179777966,5.987513214418485 A 134.25578644760347 134.25578644760347 0 0 0 39.377323363880734,9.116641040402897 L 39.2309744668712,10.105874076822573 A 135.25578644760347 135.25578644760347 0 0 1 24.018736134675446,6.953439040707552 Z M 75.02822424353538,10.612155617225056 L 74.90990978885509,9.619179439356856 A 134.25578644760347 134.25578644760347 0 0 0 90.09213150075172,6.918330673541864 L 89.39793523491163,3.999753701027061 L 97.0178438142596,5.784968882000782 L 91.01772652187184,10.809766636894935 L 90.32353025603175,7.891189664380131 A 135.25578644760347 135.25578644760347 0 0 1 75.02822424353538,10.612155617225056"/><text text-anchor="middle" pointer-events="none" font-size="8px" fill="#000000" x="57.11984521790407" y="14.048692943875608" font-family="sans-serif">WROTE</text></g><g class="relationship" transform="translate(-178.45651209002207 101.7266784035908) rotate(446.7891301794811)"><path class="outline" fill="#A5ABB6" stroke="none" d="M 25 0.5 L 27.263819868599064 0.5 L 27.263819868599064 -0.5 L 25 -0.5 Z M 60.377101118599064 0.5 L 62.64092098719813 0.5 L 62.64092098719813 3.5 L 69.64092098719813 0 L 62.64092098719813 -3.5 L 62.64092098719813 -0.5 L 60.377101118599064 -0.5 Z"/><text text-anchor="middle" pointer-events="none" font-size="8px" fill="#000000" x="43.820460493599064" y="3" font-family="sans-serif">DIRE…</text></g><g class="relationship" transform="translate(-124.75186875764533 75.09179185491006) rotate(423.122472009715)"><path class="outline" fill="#A5ABB6" stroke="none" d="M 24.018736134675446,-6.953439040707552 L 24.277555179777966,-5.987513214418485 A 101.65590663167458 101.65590663167458 0 0 1 31.25916029581589,-7.5968392164786 L 31.069020045161917,-8.57859615436152 A 102.65590663167458 102.65590663167458 0 0 0 24.018736134675446,-6.953439040707552 Z M 66.82944991614664,-9.158417991980755 L 66.67123778217561,-8.171012846832966 A 101.65590663167458 101.65590663167458 0 0 1 73.70134670131756,-6.7888736489970745 L 73.01924250479968,-3.8674469658347728 L 80.63169299478258,-5.684201637649056 L 74.61081896334142,-10.68410922654681 L 73.92871476682353,-7.762682543384508 A 102.65590663167458 102.65590663167458 0 0 0 66.82944991614664,-9.158417991980755"/><text text-anchor="middle" pointer-events="none" font-size="8px" fill="#000000" x="48.931895311735474" y="-6.937928702586021" font-family="sans-serif">WROTE</text></g><g class="relationship" transform="translate(-124.75186875764533 75.09179185491006) rotate(229.2212908333035)"><path class="outline" fill="#A5ABB6" stroke="none" d="M 25 0.5 L 30.2949521175955 0.5 L 30.2949521175955 -0.5 L 25 -0.5 Z M 77.1855771175955 0.5 L 82.480529235191 0.5 L 82.480529235191 3.5 L 89.480529235191 0 L 82.480529235191 -3.5 L 82.480529235191 -0.5 L 77.1855771175955 -0.5 Z"/><text text-anchor="middle" pointer-events="none" font-size="8px" fill="#000000" x="53.7402646175955" y="3" transform="rotate(180 53.7402646175955 0)" font-family="sans-serif">DIRECTED</text></g><g class="relationship" transform="translate(-124.75186875764533 75.09179185491006) rotate(187.76374149794384)"><path class="outline" fill="#A5ABB6" stroke="none" d="M 25 0.5 L 40.871195794740075 0.5 L 40.871195794740075 -0.5 L 25 -0.5 Z M 87.76182079474007 0.5 L 103.63301658948015 0.5 L 103.63301658948015 3.5 L 110.63301658948015 0 L 103.63301658948015 -3.5 L 103.63301658948015 -0.5 L 87.76182079474007 -0.5 Z"/><text text-anchor="middle" pointer-events="none" font-size="8px" fill="#000000" x="64.31650829474007" y="3" transform="rotate(180 64.31650829474007 0)" font-family="sans-serif">DIRECTED</text></g><g class="relationship" transform="translate(-124.75186875764533 75.09179185491006) rotate(471.7821694606075)"><path class="outline" fill="#A5ABB6" stroke="none" d="M 25 0.5 L 38.274943628293656 0.5 L 38.274943628293656 -0.5 L 25 -0.5 Z M 85.16556862829366 0.5 L 98.44051225658731 0.5 L 98.44051225658731 3.5 L 105.44051225658731 0 L 98.44051225658731 -3.5 L 98.44051225658731 -0.5 L 85.16556862829366 -0.5 Z"/><text text-anchor="middle" pointer-events="none" font-size="8px" fill="#000000" x="61.720256128293656" y="3" transform="rotate(180 61.720256128293656 0)" font-family="sans-serif">DIRECTED</text></g><g class="relationship" transform="translate(-124.75186875764533 75.09179185491006) rotate(272.7009540250975)"><path class="outline" fill="#A5ABB6" stroke="none" d="M 25 0.5 L 26.4612389776127 0.5 L 26.4612389776127 -0.5 L 25 -0.5 Z M 59.5745202276127 0.5 L 61.0357592052254 0.5 L 61.0357592052254 3.5 L 68.0357592052254 0 L 61.0357592052254 -3.5 L 61.0357592052254 -0.5 L 59.5745202276127 -0.5 Z"/><text text-anchor="middle" pointer-events="none" font-size="8px" fill="#000000" x="43.0178796026127" y="3" font-family="sans-serif">DIRE…</text></g><g class="relationship" transform="translate(-124.75186875764533 75.09179185491006) rotate(423.122472009715)"><path class="outline" fill="#A5ABB6" stroke="none" d="M 24.018736134675446,6.953439040707552 L 24.277555179777966,5.987513214418485 A 101.65590663167458 101.65590663167458 0 0 0 25.003155351969937,6.179069399827284 L 24.751474113181228,7.146879584750849 A 102.65590663167458 102.65590663167458 0 0 1 24.018736134675446,6.953439040707552 Z M 73.19009068918335,7.932266331391148 L 72.96991776813499,6.956805473725893 A 101.65590663167458 101.65590663167458 0 0 0 73.70134670131756,6.7888736489970745 L 73.01924250479968,3.8674469658347728 L 80.63169299478258,5.684201637649056 L 74.61081896334142,10.68410922654681 L 73.92871476682353,7.762682543384508 A 102.65590663167458 102.65590663167458 0 0 1 73.19009068918335,7.932266331391148"/><text text-anchor="middle" pointer-events="none" font-size="8px" fill="#000000" x="48.93189531173548" y="12.937928702586035" font-family="sans-serif">PRODUC…</text></g><g class="relationship" transform="translate(-345.6582270430561 130.04629569274783) rotate(319.73640387548255)"><path class="outline" fill="#A5ABB6" stroke="none" d="M 25 0.5 L 29.743840206841192 0.5 L 29.743840206841192 -0.5 L 25 -0.5 Z M 76.63446520684118 0.5 L 81.37830541368238 0.5 L 81.37830541368238 3.5 L 88.37830541368238 0 L 81.37830541368238 -3.5 L 81.37830541368238 -0.5 L 76.63446520684118 -0.5 Z"/><text text-anchor="middle" pointer-events="none" font-size="8px" fill="#000000" x="53.18915270684119" y="3" font-family="sans-serif">DIRECTED</text></g><g class="relationship" transform="translate(-76.24778449661505 287.8325661874864) rotate(269.4970172436226)"><path class="outline" fill="#A5ABB6" stroke="none" d="M 25 0.5 L 32.608982098882805 0.5 L 32.608982098882805 -0.5 L 25 -0.5 Z M 79.4996070988828 0.5 L 87.10858919776561 0.5 L 87.10858919776561 3.5 L 94.10858919776561 0 L 87.10858919776561 -3.5 L 87.10858919776561 -0.5 L 79.4996070988828 -0.5 Z"/><text text-anchor="middle" pointer-events="none" font-size="8px" fill="#000000" x="56.054294598882805" y="3" transform="rotate(180 56.054294598882805 0)" font-family="sans-serif">DIRECTED</text></g></g><g class="layer nodes"><g class="node" transform="translate(216.09643448123245,465.15974254869593)"><circle class="outline" cx="0" cy="0" r="25" fill="#57C7E3" stroke="#23b3d7" stroke-width="2px"/><text text-anchor="middle" pointer-events="none" font-family="sans-serif" dy="1.5625" font-size="25" fill="#2A2C34"/><text text-anchor="middle" pointer-events="none" font-family="sans-serif" dy="1.5625" font-size="25" fill="#2A2C34"/><text text-anchor="middle" pointer-events="none" x="0" y="0" font-size="10px" fill="#2A2C34" font-family="sans-serif"> The</text><text text-anchor="middle" pointer-events="none" x="0" y="10" font-size="10px" fill="#2A2C34" font-family="sans-serif"> Matrix</text></g><g class="node" transform="translate(264.1541772244125,336.5998465425325)"><circle class="outline" cx="0" cy="0" r="25" fill="#F79767" stroke="#f36924" stroke-width="2px"/><text text-anchor="middle" pointer-events="none" font-family="sans-serif" dy="1.5625" font-size="25" fill="#FFFFFF"/><text text-anchor="middle" pointer-events="none" font-family="sans-serif" dy="1.5625" font-size="25" fill="#FFFFFF"/><text text-anchor="middle" pointer-events="none" x="0" y="0" font-size="10px" fill="#FFFFFF" font-family="sans-serif"> Lana</text><text text-anchor="middle" pointer-events="none" x="0" y="10" font-size="10px" fill="#FFFFFF" font-family="sans-serif"> Wacho…</text></g><g class="node" transform="translate(275.8160013823174,395.4025606793925)"><circle class="outline" cx="0" cy="0" r="25" fill="#F79767" stroke="#f36924" stroke-width="2px"/><text text-anchor="middle" pointer-events="none" font-family="sans-serif" dy="1.5625" font-size="25" fill="#FFFFFF"/><text text-anchor="middle" pointer-events="none" font-family="sans-serif" dy="1.5625" font-size="25" fill="#FFFFFF"/><text text-anchor="middle" pointer-events="none" x="0" y="0" font-size="10px" fill="#FFFFFF" font-family="sans-serif"> Andy</text><text text-anchor="middle" pointer-events="none" x="0" y="10" font-size="10px" fill="#FFFFFF" font-family="sans-serif"> Wacho…</text></g><g class="node" transform="translate(164.8669529017012,404.4865964026545)"><circle class="outline" cx="0" cy="0" r="25" fill="#57C7E3" stroke="#23b3d7" stroke-width="2px"/><text text-anchor="middle" pointer-events="none" font-family="sans-serif" dy="1.5625" font-size="25" fill="#2A2C34"/><text text-anchor="middle" pointer-events="none" font-family="sans-serif" dy="1.5625" font-size="25" fill="#2A2C34"/><text text-anchor="middle" pointer-events="none" font-family="sans-serif" dy="1.5625" font-size="25" fill="#2A2C34"/><text text-anchor="middle" pointer-events="none" x="0" y="-5" font-size="10px" fill="#2A2C34" font-family="sans-serif"> The</text><text text-anchor="middle" pointer-events="none" x="0" y="5" font-size="10px" fill="#2A2C34" font-family="sans-serif"> Matrix</text><text text-anchor="middle" pointer-events="none" x="0" y="15" font-size="10px" fill="#2A2C34" font-family="sans-serif"> Reloa…</text></g><g class="node" transform="translate(371.6906720736841,393.2168380578657)"><circle class="outline" cx="0" cy="0" r="25" fill="#57C7E3" stroke="#23b3d7" stroke-width="2px"/><text text-anchor="middle" pointer-events="none" font-family="sans-serif" dy="1.5625" font-size="25" fill="#2A2C34"/><text text-anchor="middle" pointer-events="none" font-family="sans-serif" dy="1.5625" font-size="25" fill="#2A2C34"/><text text-anchor="middle" pointer-events="none" font-family="sans-serif" dy="1.5625" font-size="25" fill="#2A2C34"/><text text-anchor="middle" pointer-events="none" x="0" y="-5" font-size="10px" fill="#2A2C34" font-family="sans-serif"> The</text><text text-anchor="middle" pointer-events="none" x="0" y="5" font-size="10px" fill="#2A2C34" font-family="sans-serif"> Matrix</text><text text-anchor="middle" pointer-events="none" x="0" y="15" font-size="10px" fill="#2A2C34" font-family="sans-serif"> Revol…</text></g><g class="node" transform="translate(355.78775379234355,294.50678962435194)"><circle class="outline" cx="0" cy="0" r="25" fill="#57C7E3" stroke="#23b3d7" stroke-width="2px"/><text text-anchor="middle" pointer-events="none" font-family="sans-serif" dy="1.5625" font-size="25" fill="#2A2C34"/><text text-anchor="middle" pointer-events="none" font-family="sans-serif" dy="1.5625" font-size="25" fill="#2A2C34"/><text text-anchor="middle" pointer-events="none" x="0" y="0" font-size="10px" fill="#2A2C34" font-family="sans-serif"> Cloud</text><text text-anchor="middle" pointer-events="none" x="0" y="10" font-size="10px" fill="#2A2C34" font-family="sans-serif"> Atlas</text></g><g class="node" transform="translate(437.7342686396334,212.9043576654411)"><circle class="outline" cx="0" cy="0" r="25" fill="#F79767" stroke="#f36924" stroke-width="2px"/><text text-anchor="middle" pointer-events="none" font-family="sans-serif" dy="1.5625" font-size="25" fill="#FFFFFF"/><text text-anchor="middle" pointer-events="none" font-family="sans-serif" dy="1.5625" font-size="25" fill="#FFFFFF"/><text text-anchor="middle" pointer-events="none" x="0" y="0" font-size="10px" fill="#FFFFFF" font-family="sans-serif"> Tom</text><text text-anchor="middle" pointer-events="none" x="0" y="10" font-size="10px" fill="#FFFFFF" font-family="sans-serif"> Tykwer</text></g><g class="node" transform="translate(171.31428102656184,317.5505799860592)"><circle class="outline" cx="0" cy="0" r="25" fill="#57C7E3" stroke="#23b3d7" stroke-width="2px"/><text text-anchor="middle" pointer-events="none" font-family="sans-serif" dy="1.5625" font-size="25" fill="#2A2C34"/><text text-anchor="middle" pointer-events="none" font-family="sans-serif" dy="1.5625" font-size="25" fill="#2A2C34"/><text text-anchor="middle" pointer-events="none" x="0" y="0" font-size="10px" fill="#2A2C34" font-family="sans-serif"> V for</text><text text-anchor="middle" pointer-events="none" x="0" y="10" font-size="10px" fill="#2A2C34" font-family="sans-serif"> Vendetta</text></g><g class="node" transform="translate(145.04641110007415,209.23675402006694)"><circle class="outline" cx="0" cy="0" r="25" fill="#F79767" stroke="#f36924" stroke-width="2px"/><text text-anchor="middle" pointer-events="none" font-family="sans-serif" dy="1.5625" font-size="25" fill="#FFFFFF"/><text text-anchor="middle" pointer-events="none" font-family="sans-serif" dy="1.5625" font-size="25" fill="#FFFFFF"/><text text-anchor="middle" pointer-events="none" x="0" y="0" font-size="10px" fill="#FFFFFF" font-family="sans-serif"> James</text><text text-anchor="middle" pointer-events="none" x="0" y="10" font-size="10px" fill="#FFFFFF" font-family="sans-serif"> Marshall</text></g><g class="node" transform="translate(367.53751425995756,-114.40139974336006)"><circle class="outline" cx="0" cy="0" r="25" fill="#57C7E3" stroke="#23b3d7" stroke-width="2px"/><text text-anchor="middle" pointer-events="none" font-family="sans-serif" dy="1.5625" font-size="25" fill="#2A2C34"/><text text-anchor="middle" pointer-events="none" font-family="sans-serif" dy="1.5625" font-size="25" fill="#2A2C34"/><text text-anchor="middle" pointer-events="none" x="0" y="0" font-size="10px" fill="#2A2C34" font-family="sans-serif"> The</text><text text-anchor="middle" pointer-events="none" x="0" y="10" font-size="10px" fill="#2A2C34" font-family="sans-serif"> Matrix</text></g><g class="node" transform="translate(254.5557165459029,-111.85858772337461)"><circle class="outline" cx="0" cy="0" r="25" fill="#F79767" stroke="#f36924" stroke-width="2px"/><text text-anchor="middle" pointer-events="none" font-family="sans-serif" dy="1.5625" font-size="25" fill="#FFFFFF"/><text text-anchor="middle" pointer-events="none" font-family="sans-serif" dy="1.5625" font-size="25" fill="#FFFFFF"/><text text-anchor="middle" pointer-events="none" x="0" y="0" font-size="10px" fill="#FFFFFF" font-family="sans-serif"> Lana</text><text text-anchor="middle" pointer-events="none" x="0" y="10" font-size="10px" fill="#FFFFFF" font-family="sans-serif"> Wacho…</text></g><g class="node" transform="translate(265.8732077304512,-170.72107260769064)"><circle class="outline" cx="0" cy="0" r="25" fill="#F79767" stroke="#f36924" stroke-width="2px"/><text text-anchor="middle" pointer-events="none" font-family="sans-serif" dy="1.5625" font-size="25" fill="#FFFFFF"/><text text-anchor="middle" pointer-events="none" font-family="sans-serif" dy="1.5625" font-size="25" fill="#FFFFFF"/><text text-anchor="middle" pointer-events="none" x="0" y="0" font-size="10px" fill="#FFFFFF" font-family="sans-serif"> Lilly</text><text text-anchor="middle" pointer-events="none" x="0" y="10" font-size="10px" fill="#FFFFFF" font-family="sans-serif"> Wacho…</text></g><g class="node" transform="translate(319.4858038427538,-46.532684099527124)"><circle class="outline" cx="0" cy="0" r="25" fill="#57C7E3" stroke="#23b3d7" stroke-width="2px"/><text text-anchor="middle" pointer-events="none" font-family="sans-serif" dy="1.5625" font-size="25" fill="#2A2C34"/><text text-anchor="middle" pointer-events="none" font-family="sans-serif" dy="1.5625" font-size="25" fill="#2A2C34"/><text text-anchor="middle" pointer-events="none" font-family="sans-serif" dy="1.5625" font-size="25" fill="#2A2C34"/><text text-anchor="middle" pointer-events="none" x="0" y="-5" font-size="10px" fill="#2A2C34" font-family="sans-serif"> The</text><text text-anchor="middle" pointer-events="none" x="0" y="5" font-size="10px" fill="#2A2C34" font-family="sans-serif"> Matrix</text><text text-anchor="middle" pointer-events="none" x="0" y="15" font-size="10px" fill="#2A2C34" font-family="sans-serif"> Reloa…</text></g><g class="node" transform="translate(351.4149282780752,-201.89320129921396)"><circle class="outline" cx="0" cy="0" r="25" fill="#57C7E3" stroke="#23b3d7" stroke-width="2px"/><text text-anchor="middle" pointer-events="none" font-family="sans-serif" dy="1.5625" font-size="25" fill="#2A2C34"/><text text-anchor="middle" pointer-events="none" font-family="sans-serif" dy="1.5625" font-size="25" fill="#2A2C34"/><text text-anchor="middle" pointer-events="none" font-family="sans-serif" dy="1.5625" font-size="25" fill="#2A2C34"/><text text-anchor="middle" pointer-events="none" x="0" y="-5" font-size="10px" fill="#2A2C34" font-family="sans-serif"> The</text><text text-anchor="middle" pointer-events="none" x="0" y="5" font-size="10px" fill="#2A2C34" font-family="sans-serif"> Matrix</text><text text-anchor="middle" pointer-events="none" x="0" y="15" font-size="10px" fill="#2A2C34" font-family="sans-serif"> Revol…</text></g><g class="node" transform="translate(158.25649629727369,-105.9306952069196)"><circle class="outline" cx="0" cy="0" r="25" fill="#57C7E3" stroke="#23b3d7" stroke-width="2px"/><text text-anchor="middle" pointer-events="none" font-family="sans-serif" dy="1.5625" font-size="25" fill="#2A2C34"/><text text-anchor="middle" pointer-events="none" font-family="sans-serif" dy="1.5625" font-size="25" fill="#2A2C34"/><text text-anchor="middle" pointer-events="none" x="0" y="0" font-size="10px" fill="#2A2C34" font-family="sans-serif"> Cloud</text><text text-anchor="middle" pointer-events="none" x="0" y="10" font-size="10px" fill="#2A2C34" font-family="sans-serif"> Atlas</text></g><g class="node" transform="translate(46.8236403583418,-109.33155030515486)"><circle class="outline" cx="0" cy="0" r="25" fill="#F79767" stroke="#f36924" stroke-width="2px"/><text text-anchor="middle" pointer-events="none" font-family="sans-serif" dy="1.5625" font-size="25" fill="#FFFFFF"/><text text-anchor="middle" pointer-events="none" font-family="sans-serif" dy="1.5625" font-size="25" fill="#FFFFFF"/><text text-anchor="middle" pointer-events="none" x="0" y="0" font-size="10px" fill="#FFFFFF" font-family="sans-serif"> Tom</text><text text-anchor="middle" pointer-events="none" x="0" y="10" font-size="10px" fill="#FFFFFF" font-family="sans-serif"> Tykwer</text></g><g class="node" transform="translate(180.40455372422326,-219.72441859520427)"><circle class="outline" cx="0" cy="0" r="25" fill="#57C7E3" stroke="#23b3d7" stroke-width="2px"/><text text-anchor="middle" pointer-events="none" font-family="sans-serif" dy="1.5625" font-size="25" fill="#2A2C34"/><text text-anchor="middle" pointer-events="none" font-family="sans-serif" dy="1.5625" font-size="25" fill="#2A2C34"/><text text-anchor="middle" pointer-events="none" x="0" y="0" font-size="10px" fill="#2A2C34" font-family="sans-serif"> V for</text><text text-anchor="middle" pointer-events="none" x="0" y="10" font-size="10px" fill="#2A2C34" font-family="sans-serif"> Vendetta</text></g><g class="node" transform="translate(86.25149721151222,-289.78578722515533)"><circle class="outline" cx="0" cy="0" r="25" fill="#F79767" stroke="#f36924" stroke-width="2px"/><text text-anchor="middle" pointer-events="none" font-family="sans-serif" dy="1.5625" font-size="25" fill="#FFFFFF"/><text text-anchor="middle" pointer-events="none" font-family="sans-serif" dy="1.5625" font-size="25" fill="#FFFFFF"/><text text-anchor="middle" pointer-events="none" x="0" y="0" font-size="10px" fill="#FFFFFF" font-family="sans-serif"> James</text><text text-anchor="middle" pointer-events="none" x="0" y="10" font-size="10px" fill="#FFFFFF" font-family="sans-serif"> Marshall</text></g><g class="node" transform="translate(-120.36773694556437,-17.840613037823573)"><circle class="outline" cx="0" cy="0" r="25" fill="#57C7E3" stroke="#23b3d7" stroke-width="2px"/><text text-anchor="middle" pointer-events="none" font-family="sans-serif" dy="1.5625" font-size="25" fill="#2A2C34"/><text text-anchor="middle" pointer-events="none" font-family="sans-serif" dy="1.5625" font-size="25" fill="#2A2C34"/><text text-anchor="middle" pointer-events="none" x="0" y="0" font-size="10px" fill="#2A2C34" font-family="sans-serif"> The</text><text text-anchor="middle" pointer-events="none" x="0" y="10" font-size="10px" fill="#2A2C34" font-family="sans-serif"> Matrix</text></g><g class="node" transform="translate(-178.45651209002207,101.7266784035908)"><circle class="outline" cx="0" cy="0" r="25" fill="#F79767" stroke="#f36924" stroke-width="2px"/><text text-anchor="middle" pointer-events="none" font-family="sans-serif" dy="1.5625" font-size="25" fill="#FFFFFF"/><text text-anchor="middle" pointer-events="none" font-family="sans-serif" dy="1.5625" font-size="25" fill="#FFFFFF"/><text text-anchor="middle" pointer-events="none" x="0" y="0" font-size="10px" fill="#FFFFFF" font-family="sans-serif"> Lana</text><text text-anchor="middle" pointer-events="none" x="0" y="10" font-size="10px" fill="#FFFFFF" font-family="sans-serif"> Wacho…</text></g><g class="node" transform="translate(-124.75186875764533,75.09179185491006)"><circle class="outline" cx="0" cy="0" r="25" fill="#F79767" stroke="#f36924" stroke-width="2px"/><text text-anchor="middle" pointer-events="none" font-family="sans-serif" dy="1.5625" font-size="25" fill="#FFFFFF"/><text text-anchor="middle" pointer-events="none" font-family="sans-serif" dy="1.5625" font-size="25" fill="#FFFFFF"/><text text-anchor="middle" pointer-events="none" x="0" y="0" font-size="10px" fill="#FFFFFF" font-family="sans-serif"> Lilly</text><text text-anchor="middle" pointer-events="none" x="0" y="10" font-size="10px" fill="#FFFFFF" font-family="sans-serif"> Wacho…</text></g><g class="node" transform="translate(-199.523597272896,-11.59719354007003)"><circle class="outline" cx="0" cy="0" r="25" fill="#57C7E3" stroke="#23b3d7" stroke-width="2px"/><text text-anchor="middle" pointer-events="none" font-family="sans-serif" dy="1.5625" font-size="25" fill="#2A2C34"/><text text-anchor="middle" pointer-events="none" font-family="sans-serif" dy="1.5625" font-size="25" fill="#2A2C34"/><text text-anchor="middle" pointer-events="none" font-family="sans-serif" dy="1.5625" font-size="25" fill="#2A2C34"/><text text-anchor="middle" pointer-events="none" x="0" y="-5" font-size="10px" fill="#2A2C34" font-family="sans-serif"> The</text><text text-anchor="middle" pointer-events="none" x="0" y="5" font-size="10px" fill="#2A2C34" font-family="sans-serif"> Matrix</text><text text-anchor="middle" pointer-events="none" x="0" y="15" font-size="10px" fill="#2A2C34" font-family="sans-serif"> Reloa…</text></g><g class="node" transform="translate(-173.15558681484555,196.21902791682956)"><circle class="outline" cx="0" cy="0" r="25" fill="#57C7E3" stroke="#23b3d7" stroke-width="2px"/><text text-anchor="middle" pointer-events="none" font-family="sans-serif" dy="1.5625" font-size="25" fill="#2A2C34"/><text text-anchor="middle" pointer-events="none" font-family="sans-serif" dy="1.5625" font-size="25" fill="#2A2C34"/><text text-anchor="middle" pointer-events="none" font-family="sans-serif" dy="1.5625" font-size="25" fill="#2A2C34"/><text text-anchor="middle" pointer-events="none" x="0" y="-5" font-size="10px" fill="#2A2C34" font-family="sans-serif"> The</text><text text-anchor="middle" pointer-events="none" x="0" y="5" font-size="10px" fill="#2A2C34" font-family="sans-serif"> Matrix</text><text text-anchor="middle" pointer-events="none" x="0" y="15" font-size="10px" fill="#2A2C34" font-family="sans-serif"> Revol…</text></g><g class="node" transform="translate(-259.1416089626399,56.76932158487653)"><circle class="outline" cx="0" cy="0" r="25" fill="#57C7E3" stroke="#23b3d7" stroke-width="2px"/><text text-anchor="middle" pointer-events="none" font-family="sans-serif" dy="1.5625" font-size="25" fill="#2A2C34"/><text text-anchor="middle" pointer-events="none" font-family="sans-serif" dy="1.5625" font-size="25" fill="#2A2C34"/><text text-anchor="middle" pointer-events="none" x="0" y="0" font-size="10px" fill="#2A2C34" font-family="sans-serif"> Cloud</text><text text-anchor="middle" pointer-events="none" x="0" y="10" font-size="10px" fill="#2A2C34" font-family="sans-serif"> Atlas</text></g><g class="node" transform="translate(-345.6582270430561,130.04629569274783)"><circle class="outline" cx="0" cy="0" r="25" fill="#F79767" stroke="#f36924" stroke-width="2px"/><text text-anchor="middle" pointer-events="none" font-family="sans-serif" dy="1.5625" font-size="25" fill="#FFFFFF"/><text text-anchor="middle" pointer-events="none" font-family="sans-serif" dy="1.5625" font-size="25" fill="#FFFFFF"/><text text-anchor="middle" pointer-events="none" x="0" y="0" font-size="10px" fill="#FFFFFF" font-family="sans-serif"> Tom</text><text text-anchor="middle" pointer-events="none" x="0" y="10" font-size="10px" fill="#FFFFFF" font-family="sans-serif"> Tykwer</text></g><g class="node" transform="translate(-77.29339025536218,168.72856655154067)"><circle class="outline" cx="0" cy="0" r="25" fill="#57C7E3" stroke="#23b3d7" stroke-width="2px"/><text text-anchor="middle" pointer-events="none" font-family="sans-serif" dy="1.5625" font-size="25" fill="#2A2C34"/><text text-anchor="middle" pointer-events="none" font-family="sans-serif" dy="1.5625" font-size="25" fill="#2A2C34"/><text text-anchor="middle" pointer-events="none" x="0" y="0" font-size="10px" fill="#2A2C34" font-family="sans-serif"> V for</text><text text-anchor="middle" pointer-events="none" x="0" y="10" font-size="10px" fill="#2A2C34" font-family="sans-serif"> Vendetta</text></g><g class="node" transform="translate(-76.24778449661505,287.8325661874864)"><circle class="outline" cx="0" cy="0" r="25" fill="#F79767" stroke="#f36924" stroke-width="2px"/><text text-anchor="middle" pointer-events="none" font-family="sans-serif" dy="1.5625" font-size="25" fill="#FFFFFF"/><text text-anchor="middle" pointer-events="none" font-family="sans-serif" dy="1.5625" font-size="25" fill="#FFFFFF"/><text text-anchor="middle" pointer-events="none" x="0" y="0" font-size="10px" fill="#FFFFFF" font-family="sans-serif"> James</text><text text-anchor="middle" pointer-events="none" x="0" y="10" font-size="10px" fill="#FFFFFF" font-family="sans-serif"> Marshall</text></g></g></svg>