<svg xmlns="http://www.w3.org/2000/svg" width="745.4288330078125" height="771.9378662109375" viewBox="-252.70294189453125 -284.9127197265625 745.4288330078125 771.9378662109375"><title>Neo4j Graph Visualization</title><desc>Created using Neo4j (http://www.neo4j.com/)</desc><g class="layer relationships"><g class="relationship" transform="translate(77.04363723459127 262.6386026215654) rotate(294.351592478719)"><path class="outline" fill="#A5ABB6" stroke="none" d="M 21.40063509461097,12.933012701892217 L 21.90063509461097,12.06698729810778 A 56.195760524767465 56.195760524767465 0 0 0 23.625997866072073,13.02314891837409 L 23.156700587333415,13.906189157643226 A 57.195760524767465 57.195760524767465 0 0 1 21.40063509461097,12.933012701892217 Z M 73.57229452380622,15.511756821401562 L 73.16013496948744,14.600645136818521 A 56.195760524767465 56.195760524767465 0 0 0 74.94284091089337,13.756203745311574 L 73.61119282991909,11.067949034827919 L 81.43737658218427,11.097067341452227 L 76.71837168552572,17.34054335928978 L 75.38672360455145,14.652288648806124 A 57.195760524767465 57.195760524767465 0 0 1 73.57229452380622,15.511756821401562"/><text text-anchor="middle" pointer-events="none" font-size="8px" fill="#000000" x="48.19386035649893" y="23.067062799750303" font-family="sans-serif">PRODUCED</text></g><g class="relationship" transform="translate(77.04363723459127 262.6386026215654) rotate(294.351592478719)"><path class="outline" fill="#A5ABB6" stroke="none" d="M 25 0.5 L 26.53107770977403 0.5 L 26.53107770977403 -0.5 L 25 -0.5 Z M 70.30842145977402 0.5 L 71.83949916954806 0.5 L 71.83949916954806 3.5 L 78.83949916954806 0 L 71.83949916954806 -3.5 L 71.83949916954806 -0.5 L 70.30842145977402 -0.5 Z"/><text text-anchor="middle" pointer-events="none" font-size="8px" fill="#000000" x="48.41974958477403" y="3" font-family="sans-serif">DIRECT…</text></g><g class="relationship" transform="translate(77.04363723459127 262.6386026215654) rotate(294.351592478719)"><path class="outline" fill="#A5ABB6" stroke="none" d="M 21.40063509461097,-12.933012701892217 L 21.90063509461097,-12.06698729810778 A 56.195760524767465 56.195760524767465 0 0 1 30.87055540088888,-16.24021134888187 L 30.530174564728195,-17.18049901038475 A 57.195760524767465 57.195760524767465 0 0 0 21.40063509461097,-12.933012701892217 Z M 66.00542159500907,-18.310266708201212 L 65.72555983443185,-17.350226399169024 A 56.195760524767465 56.195760524767465 0 0 1 74.94284091089337,-13.756203745311574 L 73.61119282991909,-11.067949034827919 L 81.43737658218427,-11.097067341452227 L 76.71837168552572,-17.34054335928978 L 75.38672360455145,-14.652288648806124 A 57.195760524767465 57.195760524767465 0 0 0 66.00542159500907,-18.310266708201212"/><text text-anchor="middle" pointer-events="none" font-size="8px" fill="#000000" x="48.19386035649892" y="-17.067062799750303" font-family="sans-serif">WROTE</text></g><g class="relationship" transform="translate(263.8842849383269 383.1098581652223) rotate(278.30321742657696)"><path class="outline" fill="#A5ABB6" stroke="none" d="M 24.018736134675446,6.953439040707552 L 24.277555179777966,5.987513214418485 A 105.62663074238552 105.62663074238552 0 0 0 32.24101120072986,7.794530624463903 L 32.057584658114465,8.777564043765693 A 106.62663074238552 106.62663074238552 0 0 1 24.018736134675446,6.953439040707552 Z M 67.8251040747001,9.347378916269633 L 67.67308421741001,8.359001476730725 A 105.62663074238552 105.62663074238552 0 0 0 75.69005986409621,6.806569449786584 L 75.00630272418822,3.8855291943938535 L 82.61977998333059,5.697976165900029 L 76.60173605064021,10.701289790310224 L 75.91797891073222,7.780249534917494 A 106.62663074238552 106.62663074238552 0 0 1 67.8251040747001,9.347378916269633"/><text text-anchor="middle" pointer-events="none" font-size="8px" fill="#000000" x="49.92524256193308" y="13.073188525085712" font-family="sans-serif">WROTE</text></g><g class="relationship" transform="translate(263.8842849383269 383.1098581652223) rotate(278.30321742657696)"><path class="outline" fill="#A5ABB6" stroke="none" d="M 24.018736134675446,-6.953439040707552 L 24.277555179777966,-5.987513214418485 A 105.62663074238552 105.62663074238552 0 0 1 26.831527989966478,-6.637809972626613 L 26.59688819579943,-7.609892359563673 A 106.62663074238552 106.62663074238552 0 0 0 24.018736134675446,-6.953439040707552 Z M 73.32022448136186,-8.354245122706956 L 73.11666852686602,-7.375181808416571 A 105.62663074238552 105.62663074238552 0 0 1 75.69005986409621,-6.806569449786584 L 75.00630272418822,-3.8855291943938535 L 82.61977998333059,-5.697976165900029 L 76.60173605064021,-10.701289790310224 L 75.91797891073222,-7.780249534917494 A 106.62663074238552 106.62663074238552 0 0 0 73.32022448136186,-8.354245122706956"/><text text-anchor="middle" pointer-events="none" font-size="8px" fill="#000000" x="49.92524256193307" y="-7.073188525085712" font-family="sans-serif">DIRECTED</text></g><g class="relationship" transform="translate(385.3049201582531 273.9744767020781) rotate(538.2192088060588)"><path class="outline" fill="#A5ABB6" stroke="none" d="M 24.018736134675446,6.953439040707552 L 24.277555179777966,5.987513214418485 A 103.75383833429068 103.75383833429068 0 0 0 31.777624942247435,7.701846206357388 L 31.591093051845686,8.684295112847266 A 104.75383833429068 104.75383833429068 0 0 1 24.018736134675446,6.953439040707552 Z M 67.35539940831366,9.258789604840914 L 67.20051845002973,8.270856465017644 A 103.75383833429068 103.75383833429068 0 0 0 74.75178035439487,6.798298248565283 L 74.06879581549686,3.877077250484809 L 81.6817934397323,5.691537824150023 L 75.66242640625887,10.693259579339248 L 74.97944186736086,7.772038581258775 A 104.75383833429068 104.75383833429068 0 0 1 67.35539940831366,9.258789604840914"/><text text-anchor="middle" pointer-events="none" font-size="8px" fill="#000000" x="49.456574894198106" y="13.009391758880255" transform="rotate(180 49.456574894198106 10.009391758880255)" font-family="sans-serif">WROTE</text></g><g class="relationship" transform="translate(385.3049201582531 273.9744767020781) rotate(538.2192088060588)"><path class="outline" fill="#A5ABB6" stroke="none" d="M 24.018736134675446,-6.953439040707552 L 24.277555179777966,-5.987513214418485 A 103.75383833429068 103.75383833429068 0 0 1 26.372858668939326,-6.525599940573301 L 26.13423457298568,-7.4967119530776785 A 104.75383833429068 104.75383833429068 0 0 0 24.018736134675446,-6.953439040707552 Z M 72.84758581529479,-8.247084761200625 L 72.64027540435964,-7.268809547614026 A 103.75383833429068 103.75383833429068 0 0 1 74.75178035439487,-6.798298248565283 L 74.06879581549686,-3.877077250484809 L 81.6817934397323,-5.691537824150023 L 75.66242640625887,-10.693259579339248 L 74.97944186736086,-7.772038581258775 A 104.75383833429068 104.75383833429068 0 0 0 72.84758581529479,-8.247084761200625"/><text text-anchor="middle" pointer-events="none" font-size="8px" fill="#000000" x="49.456574894198056" y="-7.0093917588802555" transform="rotate(180 49.456574894198056 -10.009391758880255)" font-family="sans-serif">DIRECTED</text></g><g class="relationship" transform="translate(463.7258454411291 71.49232372755247) rotate(530.9871316868546)"><path class="outline" fill="#A5ABB6" stroke="none" d="M 21.40063509461097,12.933012701892217 L 21.90063509461097,12.06698729810778 A 56.74001907160776 56.74001907160776 0 0 0 23.868107778888362,13.15155081913273 L 23.402782999596244,14.03669083617904 A 57.74001907160776 57.74001907160776 0 0 1 21.40063509461097,12.933012701892217 Z M 73.84806674021544,15.635567186266819 L 73.43972911773284,14.722736212830199 A 56.74001907160776 56.74001907160776 0 0 0 75.4719348113681,13.764943535226093 L 74.1394736705383,11.077091733474644 L 81.96566587225979,11.103842840248438 L 77.24854966580786,17.34874593756136 L 75.91608852497805,14.66089413580991 A 57.74001907160776 57.74001907160776 0 0 1 73.84806674021544,15.635567186266819"/><text text-anchor="middle" pointer-events="none" font-size="8px" fill="#000000" x="48.4573179777276" y="23.13997872681825" transform="rotate(180 48.4573179777276 20.13997872681825)" font-family="sans-serif">PRODUCED</text></g><g class="relationship" transform="translate(463.7258454411291 71.49232372755247) rotate(530.9871316868546)"><path class="outline" fill="#A5ABB6" stroke="none" d="M 25 0.5 L 30.7954966934276 0.5 L 30.7954966934276 -0.5 L 25 -0.5 Z M 66.5689341934276 0.5 L 72.3644308868552 0.5 L 72.3644308868552 3.5 L 79.3644308868552 0 L 72.3644308868552 -3.5 L 72.3644308868552 -0.5 L 66.5689341934276 -0.5 Z"/><text text-anchor="middle" pointer-events="none" font-size="8px" fill="#000000" x="48.6822154434276" y="3" transform="rotate(180 48.6822154434276 0)" font-family="sans-serif">WROTE</text></g><g class="relationship" transform="translate(463.7258454411291 71.49232372755247) rotate(530.9871316868546)"><path class="outline" fill="#A5ABB6" stroke="none" d="M 21.40063509461097,-12.933012701892217 L 21.90063509461097,-12.06698729810778 A 56.74001907160776 56.74001907160776 0 0 1 26.037081441147016,-14.233310794279781 L 25.609983185175615,-15.137516014208416 A 57.74001907160776 57.74001907160776 0 0 0 21.40063509461097,-12.933012701892217 Z M 71.57558491699665,-16.594407681315545 L 71.20660443120637,-15.664970539220413 A 56.74001907160776 56.74001907160776 0 0 1 75.4719348113681,-13.764943535226093 L 74.1394736705383,-11.077091733474644 L 81.96566587225979,-11.103842840248438 L 77.24854966580786,-17.34874593756136 L 75.91608852497805,-14.66089413580991 A 57.74001907160776 57.74001907160776 0 0 0 71.57558491699665,-16.594407681315545"/><text text-anchor="middle" pointer-events="none" font-size="8px" fill="#000000" x="48.45731797772759" y="-17.139978726818242" transform="rotate(180 48.45731797772759 -20.139978726818242)" font-family="sans-serif">DIRECTED</text></g><g class="relationship" transform="translate(362.1185228682224 -120.67877385522691) rotate(503.91543534964467)"><path class="outline" fill="#A5ABB6" stroke="none" d="M 21.40063509461097,12.933012701892217 L 21.90063509461097,12.06698729810778 A 57.79609701536815 57.79609701536815 0 0 0 26.517706185226103,14.462387536558658 L 26.09759170222542,15.36985864969288 A 58.79609701536815 58.79609701536815 0 0 1 21.40063509461097,12.933012701892217 Z M 72.10307969108159,16.814680532210353 L 71.74073597831409,15.88263598723524 A 57.79609701536815 57.79609701536815 0 0 0 76.49901727535536,13.781672670946337 L 75.16499984164042,11.094592938868292 L 82.99120622248995,11.116811947624491 L 78.27770718697528,17.364445647050395 L 76.94368975326034,14.67736591497235 A 58.79609701536815 58.79609701536815 0 0 1 72.10307969108159,16.814680532210353"/><text text-anchor="middle" pointer-events="none" font-size="8px" fill="#000000" x="48.96877212423573" y="23.281468566877052" transform="rotate(180 48.96877212423573 20.281468566877052)" font-family="sans-serif">DIRECTED</text></g><g class="relationship" transform="translate(362.1185228682224 -120.67877385522691) rotate(503.91543534964467)"><path class="outline" fill="#A5ABB6" stroke="none" d="M 25 0.5 L 27.746456161570173 0.5 L 27.746456161570173 -0.5 L 25 -0.5 Z M 70.63708116157017 0.5 L 73.38353732314035 0.5 L 73.38353732314035 3.5 L 80.38353732314035 0 L 73.38353732314035 -3.5 L 73.38353732314035 -0.5 L 70.63708116157017 -0.5 Z"/><text text-anchor="middle" pointer-events="none" font-size="8px" fill="#000000" x="49.19176866157017" y="3" transform="rotate(180 49.19176866157017 0)" font-family="sans-serif">PRODU…</text></g><g class="relationship" transform="translate(362.1185228682224 -120.67877385522691) rotate(503.91543534964467)"><path class="outline" fill="#A5ABB6" stroke="none" d="M 21.40063509461097,-12.933012701892217 L 21.90063509461097,-12.06698729810778 A 57.79609701536815 57.79609701536815 0 0 1 31.621426251080987,-16.535852781466104 L 31.2896173860963,-17.479199418242622 A 58.79609701536815 58.79609701536815 0 0 0 21.40063509461097,-12.933012701892217 Z M 66.78892677366657,-18.594070301252138 L 66.51696581055721,-17.631762016685997 A 57.79609701536815 57.79609701536815 0 0 1 76.49901727535536,-13.781672670946337 L 75.16499984164042,-11.094592938868292 L 82.99120622248995,-11.116811947624491 L 78.27770718697528,-17.364445647050395 L 76.94368975326034,-14.67736591497235 A 58.79609701536815 58.79609701536815 0 0 0 66.78892677366657,-18.594070301252138"/><text text-anchor="middle" pointer-events="none" font-size="8px" fill="#000000" x="48.96877212423573" y="-17.281468566877052" transform="rotate(180 48.96877212423573 -20.281468566877052)" font-family="sans-serif">WROTE</text></g><g class="relationship" transform="translate(192.6514801086755 -228.74853400255432) rotate(195.03539251111107)"><path class="outline" fill="#A5ABB6" stroke="none" d="M 24.018736134675446,-6.953439040707552 L 24.277555179777966,-5.987513214418485 A 101.12736411733009 101.12736411733009 0 0 1 31.128649328374767,-7.570179188017207 L 30.937577467314817,-8.551755239024502 A 102.12736411733009 102.12736411733009 0 0 0 24.018736134675446,-6.953439040707552 Z M 66.69698146506701,-9.132933626800138 L 66.53790814900609,-8.14566685428251 A 101.12736411733009 101.12736411733009 0 0 1 73.436814777443,-6.786472258562818 L 72.75493489309001,-3.8649932113480774 L 80.36724586833623,-5.682332369608288 L 74.34598795658032,-10.681777654849139 L 73.66410807222732,-7.760298607634398 A 102.12736411733009 102.12736411733009 0 0 0 66.69698146506701,-9.132933626800138"/><text text-anchor="middle" pointer-events="none" font-size="8px" fill="#000000" x="48.79976612490009" y="-6.919925189082875" transform="rotate(180 48.79976612490009 -9.919925189082875)" font-family="sans-serif">WROTE</text></g><g class="relationship" transform="translate(192.6514801086755 -228.74853400255432) rotate(195.03539251111107)"><path class="outline" fill="#A5ABB6" stroke="none" d="M 24.018736134675446,6.953439040707552 L 24.277555179777966,5.987513214418485 A 101.12736411733009 101.12736411733009 0 0 0 25.730913447442926,6.365396541100097 L 25.486465965174563,7.335059074362405 A 102.12736411733009 102.12736411733009 0 0 1 24.018736134675446,6.953439040707552 Z M 72.18475216157596,8.09402123953764 L 71.97194426865661,7.116927180241788 A 101.12736411733009 101.12736411733009 0 0 0 73.436814777443,6.786472258562818 L 72.75493489309001,3.8649932113480774 L 80.36724586833623,5.682332369608288 L 74.34598795658032,10.681777654849139 L 73.66410807222732,7.760298607634398 A 102.12736411733009 102.12736411733009 0 0 1 72.18475216157596,8.09402123953764"/><text text-anchor="middle" pointer-events="none" font-size="8px" fill="#000000" x="48.79976612490011" y="12.919925189082875" transform="rotate(180 48.79976612490011 9.919925189082875)" font-family="sans-serif">DIRECTED</text></g><g class="relationship" transform="translate(-4.537661119310574 -214.8851758544532) rotate(336.8727368303986)"><path class="outline" fill="#A5ABB6" stroke="none" d="M 24.018736134675446,-6.953439040707552 L 24.277555179777966,-5.987513214418485 A 100.61217391896257 100.61217391896257 0 0 1 25.60518211707553,-6.3335653292743075 L 25.359558561997574,-7.302930621200346 A 101.61217391896257 101.61217391896257 0 0 0 24.018736134675446,-6.953439040707552 Z M 72.0547340869569,-8.063597941396083 L 71.84081452112692,-7.086746663383352 A 100.61217391896257 100.61217391896257 0 0 1 73.17900846089898,-6.78412093679753 L 72.49734821210625,-3.862590634846888 L 80.10952254024927,-5.680502073272895 L 74.08788879262265,-10.679494672731721 L 73.40622854382991,-7.757964370781078 A 101.61217391896257 101.61217391896257 0 0 0 72.0547340869569,-8.063597941396083"/><text text-anchor="middle" pointer-events="none" font-size="8px" fill="#000000" x="48.67099684480405" y="-6.902376702272051" font-family="sans-serif">DIRECTED</text></g><g class="relationship" transform="translate(-4.537661119310574 -214.8851758544532) rotate(336.8727368303986)"><path class="outline" fill="#A5ABB6" stroke="none" d="M 24.018736134675446,6.953439040707552 L 24.277555179777966,5.987513214418485 A 100.61217391896257 100.61217391896257 0 0 0 31.001478479350723,7.544110844220398 L 30.80948955070099,8.525507935756707 A 101.61217391896257 101.61217391896257 0 0 1 24.018736134675446,6.953439040707552 Z M 66.56787363094972,9.108014241538001 L 66.40795212700928,8.120884507117324 A 100.61217391896257 100.61217391896257 0 0 0 73.17900846089898,6.78412093679753 L 72.49734821210625,3.862590634846888 L 80.10952254024927,5.680502073272895 L 74.08788879262265,10.679494672731721 L 73.40622854382991,7.757964370781078 A 101.61217391896257 101.61217391896257 0 0 1 66.56787363094972,9.108014241538001"/><text text-anchor="middle" pointer-events="none" font-size="8px" fill="#000000" x="48.670996844804066" y="12.90237670227205" font-family="sans-serif">WROTE</text></g><g class="relationship" transform="translate(-8.822686182493186 -7.42310294040732) rotate(371.55285058149656)"><path class="outline" fill="#A5ABB6" stroke="none" d="M 21.40063509461097,12.933012701892217 L 21.90063509461097,12.06698729810778 A 56.42148243765 56.42148243765 0 0 0 23.726330356238346,13.076516564825049 L 23.25868851456297,13.96043460848886 A 57.42148243765 57.42148243765 0 0 1 21.40063509461097,12.933012701892217 Z M 73.686702630814,15.563223150162337 L 73.27613631805855,14.651392407737852 A 56.42148243765 56.42148243765 0 0 0 75.16225503091897,13.75983829850784 L 73.83026882804849,11.071751105844129 L 81.65645618094604,11.099885023920669 L 76.93823663474627,17.343954555392788 L 75.6062504318758,14.655867362729078 A 57.42148243765 57.42148243765 0 0 1 73.686702630814,15.563223150162337"/><text text-anchor="middle" pointer-events="none" font-size="8px" fill="#000000" x="48.303114490604706" y="23.097303259646047" font-family="sans-serif">PRODUCED</text></g><g class="relationship" transform="translate(-8.822686182493186 -7.42310294040732) rotate(371.55285058149656)"><path class="outline" fill="#A5ABB6" stroke="none" d="M 25 0.5 L 25.08327889323848 0.5 L 25.08327889323848 -0.5 L 25 -0.5 Z M 71.97390389323849 0.5 L 72.05718278647696 0.5 L 72.05718278647696 3.5 L 79.05718278647696 0 L 72.05718278647696 -3.5 L 72.05718278647696 -0.5 L 71.97390389323849 -0.5 Z"/><text text-anchor="middle" pointer-events="none" font-size="8px" fill="#000000" x="48.52859139323848" y="3" font-family="sans-serif">DIRECTED</text></g><g class="relationship" transform="translate(-8.822686182493186 -7.42310294040732) rotate(371.55285058149656)"><path class="outline" fill="#A5ABB6" stroke="none" d="M 21.40063509461097,-12.933012701892217 L 21.90063509461097,-12.06698729810778 A 56.42148243765 56.42148243765 0 0 1 30.976309690892492,-16.282162283919902 L 30.637164638408464,-17.222896376730198 A 57.42148243765 57.42148243765 0 0 0 21.40063509461097,-12.933012701892217 Z M 66.11594210377592,-18.35054296346638 L 65.83722122944604,-17.390170809448584 A 56.42148243765 56.42148243765 0 0 1 75.16225503091897,-13.75983829850784 L 73.83026882804849,-11.071751105844129 L 81.65645618094604,-11.099885023920669 L 76.93823663474627,-17.343954555392788 L 75.6062504318758,-14.655867362729078 A 57.42148243765 57.42148243765 0 0 0 66.11594210377592,-18.35054296346638"/><text text-anchor="middle" pointer-events="none" font-size="8px" fill="#000000" x="48.303114490604685" y="-17.097303259646047" font-family="sans-serif">WROTE</text></g><g class="relationship" transform="translate(-168.8076055499187 -124.7739891302755) rotate(477.23731811589585)"><path class="outline" fill="#A5ABB6" stroke="none" d="M 21.40063509461097,12.933012701892217 L 21.90063509461097,12.06698729810778 A 56.96586049944019 56.96586049944019 0 0 0 23.968759585690837,13.204555294694266 L 23.50506421574378,14.090549992133063 A 57.96586049944019 57.96586049944019 0 0 1 21.40063509461097,12.933012701892217 Z M 73.96241265450773,15.68665954004986 L 73.55564137384323,14.773129504842167 A 56.96586049944019 56.96586049944019 0 0 0 75.69152820298018,13.768546352195571 L 74.3587318946247,11.080860730618152 L 82.18492737138673,11.10663590296235 L 77.46858994745415,17.352127180965464 L 76.13579363909867,14.664441559388045 A 57.96586049944019 57.96586049944019 0 0 1 73.96241265450773,15.68665954004986"/><text text-anchor="middle" pointer-events="none" font-size="8px" fill="#000000" x="48.56666541292896" y="23.170235783651336" transform="rotate(180 48.56666541292896 20.170235783651336)" font-family="sans-serif">PRODUCED</text></g><g class="relationship" transform="translate(-168.8076055499187 -124.7739891302755) rotate(477.23731811589585)"><path class="outline" fill="#A5ABB6" stroke="none" d="M 25 0.5 L 25.34584127559927 0.5 L 25.34584127559927 -0.5 L 25 -0.5 Z M 72.23646627559927 0.5 L 72.58230755119854 0.5 L 72.58230755119854 3.5 L 79.58230755119854 0 L 72.58230755119854 -3.5 L 72.58230755119854 -0.5 L 72.23646627559927 -0.5 Z"/><text text-anchor="middle" pointer-events="none" font-size="8px" fill="#000000" x="48.79115377559927" y="3" transform="rotate(180 48.79115377559927 0)" font-family="sans-serif">DIRECTED</text></g><g class="relationship" transform="translate(-168.8076055499187 -124.7739891302755) rotate(477.23731811589585)"><path class="outline" fill="#A5ABB6" stroke="none" d="M 21.40063509461097,-12.933012701892217 L 21.90063509461097,-12.06698729810778 A 56.96586049944019 56.96586049944019 0 0 1 31.23156979718347,-16.3829915274303 L 30.895368511374123,-17.324781682093295 A 57.96586049944019 57.96586049944019 0 0 0 21.40063509461097,-12.933012701892217 Z M 66.38247223121935,-18.447339779728956 L 66.10646654875316,-17.48618377613414 A 56.96586049944019 56.96586049944019 0 0 1 75.69152820298018,-13.768546352195571 L 74.3587318946247,-11.080860730618152 L 82.18492737138673,-11.10663590296235 L 77.46858994745415,-17.352127180965464 L 76.13579363909867,-14.664441559388045 A 57.96586049944019 57.96586049944019 0 0 0 66.38247223121935,-18.447339779728956"/><text text-anchor="middle" pointer-events="none" font-size="8px" fill="#000000" x="48.56666541292895" y="-17.170235783651336" transform="rotate(180 48.56666541292895 -20.170235783651336)" font-family="sans-serif">WROTE</text></g><g class="relationship" transform="translate(-223.70293756739684 147.98770458930449) rotate(385.86950450205404)"><path class="outline" fill="#A5ABB6" stroke="none" d="M 24.018736134675446,-6.953439040707552 L 24.277555179777966,-5.987513214418485 A 102.39149438063325 102.39149438063325 0 0 1 31.44086958064216,-7.633803614242893 L 31.252010588805735,-8.61580783073208 A 103.39149438063325 103.39149438063325 0 0 0 24.018736134675446,-6.953439040707552 Z M 67.01383455957853,-9.193751411202228 L 66.85680606632728,-8.206157338565475 A 102.39149438063325 102.39149438063325 0 0 1 74.06957689191304,-6.792197542898966 L 73.38716221330694,-3.870843369502161 L 80.99980574293994,-5.686788988384195 L 74.97946313005451,-10.687336440761372 L 74.2970484514484,-7.765982267364568 A 103.39149438063325 103.39149438063325 0 0 0 67.01383455957853,-9.193751411202228"/><text text-anchor="middle" pointer-events="none" font-size="8px" fill="#000000" x="49.11582101229864" y="-6.962985069953575" font-family="sans-serif">WROTE</text></g><g class="relationship" transform="translate(-223.70293756739684 147.98770458930449) rotate(385.86950450205404)"><path class="outline" fill="#A5ABB6" stroke="none" d="M 24.018736134675446,6.953439040707552 L 24.277555179777966,5.987513214418485 A 102.39149438063325 102.39149438063325 0 0 0 26.039687008998943,6.442928679710747 L 25.798077712029116,7.4133022920981375 A 103.39149438063325 103.39149438063325 0 0 1 24.018736134675446,6.953439040707552 Z M 72.5037763351413,8.168108834199046 L 72.29364925957,7.190434751433287 A 102.39149438063325 102.39149438063325 0 0 0 74.06957689191304,6.792197542898966 L 73.38716221330694,3.870843369502161 L 80.99980574293994,5.686788988384195 L 74.97946313005451,10.687336440761372 L 74.2970484514484,7.765982267364568 A 103.39149438063325 103.39149438063325 0 0 1 72.5037763351413,8.168108834199046"/><text text-anchor="middle" pointer-events="none" font-size="8px" fill="#000000" x="49.11582101229868" y="12.962985069953575" font-family="sans-serif">DIRECTED</text></g><g class="relationship" transform="translate(-160.92697658793222 295.32130204698655) rotate(287.52583586504875)"><path class="outline" fill="#A5ABB6" stroke="none" d="M 24.018736134675446,-6.953439040707552 L 24.277555179777966,-5.987513214418485 A 104.31110599037228 104.31110599037228 0 0 1 26.50926132622099,-6.559159929846672 L 26.27183699384109,-7.530565965649387 A 105.31110599037228 105.31110599037228 0 0 0 24.018736134675446,-6.953439040707552 Z M 72.98822244046207,-8.279138427005464 L 72.78204317560225,-7.300624190654318 A 104.31110599037228 104.31110599037228 0 0 1 75.03091875016067,-6.800773271393402 L 74.3477030225882,-3.879606335116457 L 81.9608442227356,-5.693464396437156 L 75.9418730535906,-10.695662519762664 L 75.25865732601814,-7.7744955834857175 A 105.31110599037228 105.31110599037228 0 0 0 72.98822244046207,-8.279138427005464"/><text text-anchor="middle" pointer-events="none" font-size="8px" fill="#000000" x="49.59600288568169" y="-7.028374843145912" font-family="sans-serif">DIRECTED</text></g><g class="relationship" transform="translate(-160.92697658793222 295.32130204698655) rotate(287.52583586504875)"><path class="outline" fill="#A5ABB6" stroke="none" d="M 24.018736134675446,6.953439040707552 L 24.277555179777966,5.987513214418485 A 104.31110599037228 104.31110599037228 0 0 0 31.91545592962379,7.7295267097482 L 31.72985920037468,8.71215270884045 A 105.31110599037228 105.31110599037228 0 0 1 24.018736134675446,6.953439040707552 Z M 67.49514510967107,9.285247306127218 L 67.34112631999697,8.297179387192827 A 104.31110599037228 104.31110599037228 0 0 0 75.03091875016067,6.800773271393402 L 74.3477030225882,3.879606335116457 L 81.9608442227356,5.693464396437156 L 75.9418730535906,10.695662519762664 L 75.25865732601814,7.7744955834857175 A 105.31110599037228 105.31110599037228 0 0 1 67.49514510967107,9.285247306127218"/><text text-anchor="middle" pointer-events="none" font-size="8px" fill="#000000" x="49.59600288568174" y="13.028374843145912" font-family="sans-serif">WROTE</text></g><g class="relationship" transform="translate(-24.22336423754731 424.09326707575644) rotate(378.81399083935355)"><path class="outline" fill="#A5ABB6" stroke="none" d="M 21.40063509461097,12.933012701892217 L 21.90063509461097,12.06698729810778 A 57.62258227086073 57.62258227086073 0 0 0 31.539894039041844,16.503995201950154 L 31.207176700883007,17.447021804379 A 58.62258227086073 58.62258227086073 0 0 1 21.40063509461097,12.933012701892217 Z M 66.7039829637006,18.563491978440403 L 66.43118609747302,17.6014203232211 A 57.62258227086073 57.62258227086073 0 0 0 76.33022804999979,13.778944612550722 L 74.99646440333413,11.091738901252626 L 82.82266865080629,11.114697055547193 L 78.10857957888734,17.361885560948185 L 76.77481593222168,14.674679849650088 A 58.62258227086073 58.62258227086073 0 0 1 66.7039829637006,18.563491978440403"/><text text-anchor="middle" pointer-events="none" font-size="8px" fill="#000000" x="48.88471803337161" y="23.25822128413892" font-family="sans-serif">WROTE</text></g><g class="relationship" transform="translate(-24.22336423754731 424.09326707575644) rotate(378.81399083935355)"><path class="outline" fill="#A5ABB6" stroke="none" d="M 25 0.5 L 25.662712289145226 0.5 L 25.662712289145226 -0.5 L 25 -0.5 Z M 72.55333728914522 0.5 L 73.21604957829045 0.5 L 73.21604957829045 3.5 L 80.21604957829045 0 L 73.21604957829045 -3.5 L 73.21604957829045 -0.5 L 72.55333728914522 -0.5 Z"/><text text-anchor="middle" pointer-events="none" font-size="8px" fill="#000000" x="49.108024789145226" y="3" font-family="sans-serif">DIRECTED</text></g><g class="relationship" transform="translate(-24.22336423754731 424.09326707575644) rotate(378.81399083935355)"><path class="outline" fill="#A5ABB6" stroke="none" d="M 21.40063509461097,-12.933012701892217 L 21.90063509461097,-12.06698729810778 A 57.62258227086073 57.62258227086073 0 0 1 24.2620517787002,-13.357786026116912 L 23.803032529493162,-14.246212347686352 A 58.62258227086073 58.62258227086073 0 0 0 21.40063509461097,-12.933012701892217 Z M 74.29464135641982,-15.834309453613557 L 73.8923609686775,-14.918792938395029 A 57.62258227086073 57.62258227086073 0 0 1 76.33022804999979,-13.778944612550722 L 74.99646440333413,-11.091738901252626 L 82.82266865080629,-11.114697055547193 L 78.10857957888734,-17.361885560948185 L 76.77481593222168,-14.674679849650088 A 58.62258227086073 58.62258227086073 0 0 0 74.29464135641982,-15.834309453613557"/><text text-anchor="middle" pointer-events="none" font-size="8px" fill="#000000" x="48.88471803337161" y="-17.258221284138912" font-family="sans-serif">PRODUCED</text></g></g><g class="layer nodes"><g class="node" transform="translate(77.04363723459127,262.6386026215654)"><circle class="outline" cx="0" cy="0" r="25" fill="#F79767" stroke="#f36924" stroke-width="2px"/><text text-anchor="middle" pointer-events="none" font-family="sans-serif" dy="1.5625" font-size="25" fill="#FFFFFF"/><text text-anchor="middle" pointer-events="none" font-family="sans-serif" dy="1.5625" font-size="25" fill="#FFFFFF"/><text text-anchor="middle" pointer-events="none" x="0" y="0" font-size="10px" fill="#FFFFFF" font-family="sans-serif"> Cameron</text><text text-anchor="middle" pointer-events="none" x="0" y="10" font-size="10px" fill="#FFFFFF" font-family="sans-serif"> Crowe</text></g><g class="node" transform="translate(119.86028389555578,168.0374590952174)"><circle class="outline" cx="0" cy="0" r="25" fill="#57C7E3" stroke="#23b3d7" stroke-width="2px"/><text text-anchor="middle" pointer-events="none" font-family="sans-serif" dy="1.5625" font-size="25" fill="#2A2C34"/><text text-anchor="middle" pointer-events="none" font-family="sans-serif" dy="1.5625" font-size="25" fill="#2A2C34"/><text text-anchor="middle" pointer-events="none" x="0" y="0" font-size="10px" fill="#2A2C34" font-family="sans-serif"> Jerry</text><text text-anchor="middle" pointer-events="none" x="0" y="10" font-size="10px" fill="#2A2C34" font-family="sans-serif"> Maguire</text></g><g class="node" transform="translate(263.8842849383269,383.1098581652223)"><circle class="outline" cx="0" cy="0" r="25" fill="#F79767" stroke="#f36924" stroke-width="2px"/><text text-anchor="middle" pointer-events="none" font-family="sans-serif" dy="1.5625" font-size="25" fill="#FFFFFF"/><text text-anchor="middle" pointer-events="none" font-family="sans-serif" dy="1.5625" font-size="25" fill="#FFFFFF"/><text text-anchor="middle" pointer-events="none" x="0" y="0" font-size="10px" fill="#FFFFFF" font-family="sans-serif"> Lana</text><text text-anchor="middle" pointer-events="none" x="0" y="10" font-size="10px" fill="#FFFFFF" font-family="sans-serif"> Wacho…</text></g><g class="node" transform="translate(279.3308249249644,277.2692835497597)"><circle class="outline" cx="0" cy="0" r="25" fill="#57C7E3" stroke="#23b3d7" stroke-width="2px"/><text text-anchor="middle" pointer-events="none" font-family="sans-serif" dy="1.5625" font-size="25" fill="#2A2C34"/><text text-anchor="middle" pointer-events="none" font-family="sans-serif" dy="1.5625" font-size="25" fill="#2A2C34"/><text text-anchor="middle" pointer-events="none" x="0" y="0" font-size="10px" fill="#2A2C34" font-family="sans-serif"> Speed</text><text text-anchor="middle" pointer-events="none" x="0" y="10" font-size="10px" fill="#2A2C34" font-family="sans-serif"> Racer</text></g><g class="node" transform="translate(385.3049201582531,273.9744767020781)"><circle class="outline" cx="0" cy="0" r="25" fill="#F79767" stroke="#f36924" stroke-width="2px"/><text text-anchor="middle" pointer-events="none" font-family="sans-serif" dy="1.5625" font-size="25" fill="#FFFFFF"/><text text-anchor="middle" pointer-events="none" font-family="sans-serif" dy="1.5625" font-size="25" fill="#FFFFFF"/><text text-anchor="middle" pointer-events="none" x="0" y="0" font-size="10px" fill="#FFFFFF" font-family="sans-serif"> Andy</text><text text-anchor="middle" pointer-events="none" x="0" y="10" font-size="10px" fill="#FFFFFF" font-family="sans-serif"> Wacho…</text></g><g class="node" transform="translate(463.7258454411291,71.49232372755247)"><circle class="outline" cx="0" cy="0" r="25" fill="#F79767" stroke="#f36924" stroke-width="2px"/><text text-anchor="middle" pointer-events="none" font-family="sans-serif" dy="1.5625" font-size="25" fill="#FFFFFF"/><text text-anchor="middle" pointer-events="none" font-family="sans-serif" dy="1.5625" font-size="25" fill="#FFFFFF"/><text text-anchor="middle" pointer-events="none" x="0" y="0" font-size="10px" fill="#FFFFFF" font-family="sans-serif"> Nancy</text><text text-anchor="middle" pointer-events="none" x="0" y="10" font-size="10px" fill="#FFFFFF" font-family="sans-serif"> Meyers</text></g><g class="node" transform="translate(360.6499832533818,87.84166831960579)"><circle class="outline" cx="0" cy="0" r="25" fill="#57C7E3" stroke="#23b3d7" stroke-width="2px"/><text text-anchor="middle" pointer-events="none" font-family="sans-serif" dy="1.5625" font-size="25" fill="#2A2C34"/><text text-anchor="middle" pointer-events="none" x="0" y="5" font-size="10px" fill="#2A2C34" font-family="sans-serif"> Somethi…</text></g><g class="node" transform="translate(362.1185228682224,-120.67877385522691)"><circle class="outline" cx="0" cy="0" r="25" fill="#F79767" stroke="#f36924" stroke-width="2px"/><text text-anchor="middle" pointer-events="none" font-family="sans-serif" dy="1.5625" font-size="25" fill="#FFFFFF"/><text text-anchor="middle" pointer-events="none" font-family="sans-serif" dy="1.5625" font-size="25" fill="#FFFFFF"/><text text-anchor="middle" pointer-events="none" x="0" y="0" font-size="10px" fill="#FFFFFF" font-family="sans-serif"> Cameron</text><text text-anchor="middle" pointer-events="none" x="0" y="10" font-size="10px" fill="#FFFFFF" font-family="sans-serif"> Crowe</text></g><g class="node" transform="translate(276.9529665402505,-58.6101186894771)"><circle class="outline" cx="0" cy="0" r="25" fill="#57C7E3" stroke="#23b3d7" stroke-width="2px"/><text text-anchor="middle" pointer-events="none" font-family="sans-serif" dy="1.5625" font-size="25" fill="#2A2C34"/><text text-anchor="middle" pointer-events="none" font-family="sans-serif" dy="1.5625" font-size="25" fill="#2A2C34"/><text text-anchor="middle" pointer-events="none" x="0" y="0" font-size="10px" fill="#2A2C34" font-family="sans-serif"> Jerry</text><text text-anchor="middle" pointer-events="none" x="0" y="10" font-size="10px" fill="#2A2C34" font-family="sans-serif"> Maguire</text></g><g class="node" transform="translate(192.6514801086755,-228.74853400255432)"><circle class="outline" cx="0" cy="0" r="25" fill="#F79767" stroke="#f36924" stroke-width="2px"/><text text-anchor="middle" pointer-events="none" font-family="sans-serif" dy="1.5625" font-size="25" fill="#FFFFFF"/><text text-anchor="middle" pointer-events="none" font-family="sans-serif" dy="1.5625" font-size="25" fill="#FFFFFF"/><text text-anchor="middle" pointer-events="none" x="0" y="0" font-size="10px" fill="#FFFFFF" font-family="sans-serif"> Lana</text><text text-anchor="middle" pointer-events="none" x="0" y="10" font-size="10px" fill="#FFFFFF" font-family="sans-serif"> Wacho…</text></g><g class="node" transform="translate(91.52334165642608,-255.91270161230395)"><circle class="outline" cx="0" cy="0" r="25" fill="#57C7E3" stroke="#23b3d7" stroke-width="2px"/><text text-anchor="middle" pointer-events="none" font-family="sans-serif" dy="1.5625" font-size="25" fill="#2A2C34"/><text text-anchor="middle" pointer-events="none" font-family="sans-serif" dy="1.5625" font-size="25" fill="#2A2C34"/><text text-anchor="middle" pointer-events="none" x="0" y="0" font-size="10px" fill="#2A2C34" font-family="sans-serif"> Speed</text><text text-anchor="middle" pointer-events="none" x="0" y="10" font-size="10px" fill="#2A2C34" font-family="sans-serif"> Racer</text></g><g class="node" transform="translate(-4.537661119310574,-214.8851758544532)"><circle class="outline" cx="0" cy="0" r="25" fill="#F79767" stroke="#f36924" stroke-width="2px"/><text text-anchor="middle" pointer-events="none" font-family="sans-serif" dy="1.5625" font-size="25" fill="#FFFFFF"/><text text-anchor="middle" pointer-events="none" font-family="sans-serif" dy="1.5625" font-size="25" fill="#FFFFFF"/><text text-anchor="middle" pointer-events="none" x="0" y="0" font-size="10px" fill="#FFFFFF" font-family="sans-serif"> Lilly</text><text text-anchor="middle" pointer-events="none" x="0" y="10" font-size="10px" fill="#FFFFFF" font-family="sans-serif"> Wacho…</text></g><g class="node" transform="translate(-8.822686182493186,-7.42310294040732)"><circle class="outline" cx="0" cy="0" r="25" fill="#F79767" stroke="#f36924" stroke-width="2px"/><text text-anchor="middle" pointer-events="none" font-family="sans-serif" dy="1.5625" font-size="25" fill="#FFFFFF"/><text text-anchor="middle" pointer-events="none" font-family="sans-serif" dy="1.5625" font-size="25" fill="#FFFFFF"/><text text-anchor="middle" pointer-events="none" x="0" y="0" font-size="10px" fill="#FFFFFF" font-family="sans-serif"> Nancy</text><text text-anchor="middle" pointer-events="none" x="0" y="10" font-size="10px" fill="#FFFFFF" font-family="sans-serif"> Meyers</text></g><g class="node" transform="translate(93.126338398448,13.416610984042915)"><circle class="outline" cx="0" cy="0" r="25" fill="#57C7E3" stroke="#23b3d7" stroke-width="2px"/><text text-anchor="middle" pointer-events="none" font-family="sans-serif" dy="1.5625" font-size="25" fill="#2A2C34"/><text text-anchor="middle" pointer-events="none" x="0" y="5" font-size="10px" fill="#2A2C34" font-family="sans-serif"> Somethi…</text></g><g class="node" transform="translate(-168.8076055499187,-124.7739891302755)"><circle class="outline" cx="0" cy="0" r="25" fill="#F79767" stroke="#f36924" stroke-width="2px"/><text text-anchor="middle" pointer-events="none" font-family="sans-serif" dy="1.5625" font-size="25" fill="#FFFFFF"/><text text-anchor="middle" pointer-events="none" font-family="sans-serif" dy="1.5625" font-size="25" fill="#FFFFFF"/><text text-anchor="middle" pointer-events="none" x="0" y="0" font-size="10px" fill="#FFFFFF" font-family="sans-serif"> Cameron</text><text text-anchor="middle" pointer-events="none" x="0" y="10" font-size="10px" fill="#FFFFFF" font-family="sans-serif"> Crowe</text></g><g class="node" transform="translate(-216.67253573944697,-31.787928289496453)"><circle class="outline" cx="0" cy="0" r="25" fill="#57C7E3" stroke="#23b3d7" stroke-width="2px"/><text text-anchor="middle" pointer-events="none" font-family="sans-serif" dy="1.5625" font-size="25" fill="#2A2C34"/><text text-anchor="middle" pointer-events="none" font-family="sans-serif" dy="1.5625" font-size="25" fill="#2A2C34"/><text text-anchor="middle" pointer-events="none" x="0" y="0" font-size="10px" fill="#2A2C34" font-family="sans-serif"> Jerry</text><text text-anchor="middle" pointer-events="none" x="0" y="10" font-size="10px" fill="#2A2C34" font-family="sans-serif"> Maguire</text></g><g class="node" transform="translate(-223.70293756739684,147.98770458930449)"><circle class="outline" cx="0" cy="0" r="25" fill="#F79767" stroke="#f36924" stroke-width="2px"/><text text-anchor="middle" pointer-events="none" font-family="sans-serif" dy="1.5625" font-size="25" fill="#FFFFFF"/><text text-anchor="middle" pointer-events="none" font-family="sans-serif" dy="1.5625" font-size="25" fill="#FFFFFF"/><text text-anchor="middle" pointer-events="none" x="0" y="0" font-size="10px" fill="#FFFFFF" font-family="sans-serif"> Lilly</text><text text-anchor="middle" pointer-events="none" x="0" y="10" font-size="10px" fill="#FFFFFF" font-family="sans-serif"> Wacho…</text></g><g class="node" transform="translate(-128.9150639000674,193.95189328963727)"><circle class="outline" cx="0" cy="0" r="25" fill="#57C7E3" stroke="#23b3d7" stroke-width="2px"/><text text-anchor="middle" pointer-events="none" font-family="sans-serif" dy="1.5625" font-size="25" fill="#2A2C34"/><text text-anchor="middle" pointer-events="none" font-family="sans-serif" dy="1.5625" font-size="25" fill="#2A2C34"/><text text-anchor="middle" pointer-events="none" x="0" y="0" font-size="10px" fill="#2A2C34" font-family="sans-serif"> Speed</text><text text-anchor="middle" pointer-events="none" x="0" y="10" font-size="10px" fill="#2A2C34" font-family="sans-serif"> Racer</text></g><g class="node" transform="translate(-160.92697658793222,295.32130204698655)"><circle class="outline" cx="0" cy="0" r="25" fill="#F79767" stroke="#f36924" stroke-width="2px"/><text text-anchor="middle" pointer-events="none" font-family="sans-serif" dy="1.5625" font-size="25" fill="#FFFFFF"/><text text-anchor="middle" pointer-events="none" font-family="sans-serif" dy="1.5625" font-size="25" fill="#FFFFFF"/><text text-anchor="middle" pointer-events="none" x="0" y="0" font-size="10px" fill="#FFFFFF" font-family="sans-serif"> Lana</text><text text-anchor="middle" pointer-events="none" x="0" y="10" font-size="10px" fill="#FFFFFF" font-family="sans-serif"> Wacho…</text></g><g class="node" transform="translate(-24.22336423754731,424.09326707575644)"><circle class="outline" cx="0" cy="0" r="25" fill="#F79767" stroke="#f36924" stroke-width="2px"/><text text-anchor="middle" pointer-events="none" font-family="sans-serif" dy="1.5625" font-size="25" fill="#FFFFFF"/><text text-anchor="middle" pointer-events="none" font-family="sans-serif" dy="1.5625" font-size="25" fill="#FFFFFF"/><text text-anchor="middle" pointer-events="none" x="0" y="0" font-size="10px" fill="#FFFFFF" font-family="sans-serif"> Nancy</text><text text-anchor="middle" pointer-events="none" x="0" y="10" font-size="10px" fill="#FFFFFF" font-family="sans-serif"> Meyers</text></g><g class="node" transform="translate(75.37104852893607,458.0251110362695)"><circle class="outline" cx="0" cy="0" r="25" fill="#57C7E3" stroke="#23b3d7" stroke-width="2px"/><text text-anchor="middle" pointer-events="none" font-family="sans-serif" dy="1.5625" font-size="25" fill="#2A2C34"/><text text-anchor="middle" pointer-events="none" x="0" y="5" font-size="10px" fill="#2A2C34" font-family="sans-serif"> Somethi…</text></g></g></svg>