<svg xmlns="http://www.w3.org/2000/svg" width="659.13818359375" height="253.7655029296875" viewBox="-425.0263671875 -15.615044593811035 659.13818359375 253.7655029296875"><title>Neo4j Graph Visualization</title><desc>Created using Neo4j (http://www.neo4j.com/)</desc><g class="layer relationships"><g class="relationship" transform="translate(205.1118025229014 26.38586109746928) rotate(453.6510483921335)"><path class="outline" fill="#A5ABB6" stroke="none" d="M 24.018736134675446,-6.953439040707552 L 24.277555179777966,-5.987513214418485 A 101.39239326898291 101.39239326898291 0 0 1 37.954595373407315,-8.66077711778199 L 37.83066850071211,-9.65306847127853 A 102.39239326898291 102.39239326898291 0 0 0 24.018736134675446,-6.953439040707552 Z M 59.90450631677819,-10.011397179315281 L 59.81285235273997,-9.015606262066044 A 101.39239326898291 101.39239326898291 0 0 1 73.56945451261535,-6.78767776902791 L 72.88746202235569,-3.8662250065774484 L 80.49984304004303,-5.683270752163794 L 74.47877783296155,-10.68294811896186 L 73.7967853427019,-7.761495356511398 A 102.39239326898291 102.39239326898291 0 0 0 59.90450631677819,-10.011397179315281"/><text text-anchor="middle" pointer-events="none" font-size="8px" fill="#000000" x="48.86601733650398" y="-6.928952734234755" transform="rotate(180 48.86601733650398 -9.928952734234755)" font-family="sans-serif">road</text></g><g class="relationship" transform="translate(198.4352864878328 131.01834861337107) rotate(497.22046030353613)"><path class="outline" fill="#A5ABB6" stroke="none" d="M 21.40063509461097,-12.933012701892217 L 21.90063509461097,-12.06698729810778 A 67.76934403986107 67.76934403986107 0 0 1 31.329500380836986,-16.579842089290906 L 30.968632099164967,-17.512458882664845 A 68.76934403986107 68.76934403986107 0 0 0 21.40063509461097,-12.933012701892217 Z M 76.85643731312489,-18.83868309450625 L 76.55003435854138,-17.886781193351254 A 67.76934403986107 67.76934403986107 0 0 1 86.22379944795479,-13.926020162065866 L 84.8763542528747,-11.245648649335664 L 92.70257384350528,-11.228709959000705 L 88.0203930413949,-17.499848845706136 L 86.67294784631481,-14.819477332975934 A 68.76934403986107 68.76934403986107 0 0 0 76.85643731312489,-18.83868309450625"/><text text-anchor="middle" pointer-events="none" font-size="8px" fill="#000000" x="53.81304746308514" y="-18.617863166665245" transform="rotate(180 53.81304746308514 -21.617863166665245)" font-family="sans-serif">twowheeler</text></g><g class="relationship" transform="translate(113.9998279879998 209.1504520402286) rotate(201.27793856238327)"><path class="outline" fill="#A5ABB6" stroke="none" d="M 21.40063509461097,12.933012701892217 L 21.90063509461097,12.06698729810778 A 80.76224395657735 80.76224395657735 0 0 0 37.48641272403633,18.986597551174455 L 37.17939618841116,19.938301731501895 A 81.76224395657735 81.76224395657735 0 0 1 21.40063509461097,12.933012701892217 Z M 83.28008378192804,21.144670458023896 L 83.02326198138914,20.17821168354463 A 80.76224395657735 80.76224395657735 0 0 0 98.94960752740901,14.083214725627899 L 97.58754097286067,11.410243588301345 L 105.41355127359569,11.350554621236189 L 100.7656962668068,17.647176242063303 L 99.40362971225845,14.974205104736749 A 81.76224395657735 81.76224395657735 0 0 1 83.28008378192804,21.144670458023896"/><text text-anchor="middle" pointer-events="none" font-size="8px" fill="#000000" x="60.156003916318134" y="26.359267590388555" transform="rotate(180 60.156003916318134 23.359267590388555)" font-family="sans-serif">twowheeler</text></g><g class="relationship" transform="translate(-4.984101689652161 162.81332674108586) rotate(183.958636038247)"><path class="outline" fill="#A5ABB6" stroke="none" d="M 25 0.5 L 72.69380447029306 0.5 L 72.69380447029306 -0.5 L 25 -0.5 Z M 92.02974197029306 0.5 L 139.72354644058612 0.5 L 139.72354644058612 3.5 L 146.72354644058612 0 L 139.72354644058612 -3.5 L 139.72354644058612 -0.5 L 92.02974197029306 -0.5 Z"/><text text-anchor="middle" pointer-events="none" font-size="8px" fill="#000000" x="82.36177322029306" y="3" transform="rotate(180 82.36177322029306 0)" font-family="sans-serif">trek</text></g><g class="relationship" transform="translate(205.1118025229014 26.38586109746928) rotate(453.6510483921335)"><path class="outline" fill="#A5ABB6" stroke="none" d="M 24.018736134675446,6.953439040707552 L 24.277555179777966,5.987513214418485 A 101.39239326898291 101.39239326898291 0 0 0 39.276703267245864,8.817086437779125 L 39.165815912124046,9.810919418955592 A 102.39239326898291 102.39239326898291 0 0 1 24.018736134675446,6.953439040707552 Z M 58.56493888888282,10.125828984352893 L 58.48636760984813,9.128920485988644 A 101.39239326898291 101.39239326898291 0 0 0 73.56945451261535,6.78767776902791 L 72.88746202235569,3.8662250065774484 L 80.49984304004303,5.683270752163794 L 74.47877783296155,10.68294811896186 L 73.7967853427019,7.761495356511398 A 102.39239326898291 102.39239326898291 0 0 1 58.56493888888282,10.125828984352893"/><text text-anchor="middle" pointer-events="none" font-size="8px" fill="#000000" x="48.86601733650401" y="12.928952734234755" transform="rotate(180 48.86601733650401 9.928952734234755)" font-family="sans-serif">trek</text></g><g class="relationship" transform="translate(198.4352864878328 131.01834861337107) rotate(497.22046030353613)"><path class="outline" fill="#A5ABB6" stroke="none" d="M 25 0.5 L 43.01364218312849 0.5 L 43.01364218312849 -0.5 L 25 -0.5 Z M 65.0253609331285 0.5 L 83.03900311625698 0.5 L 83.03900311625698 3.5 L 90.03900311625698 0 L 83.03900311625698 -3.5 L 83.03900311625698 -0.5 L 65.0253609331285 -0.5 Z"/><text text-anchor="middle" pointer-events="none" font-size="8px" fill="#000000" x="54.01950155812849" y="3" transform="rotate(180 54.01950155812849 0)" font-family="sans-serif">road</text></g><g class="relationship" transform="translate(198.4352864878328 131.01834861337107) rotate(497.22046030353613)"><path class="outline" fill="#A5ABB6" stroke="none" d="M 21.40063509461097,12.933012701892217 L 21.90063509461097,12.06698729810778 A 67.76934403986107 67.76934403986107 0 0 0 44.285968416975095,20.163608233363718 L 44.116284928659155,21.149106845129836 A 68.76934403986107 68.76934403986107 0 0 1 21.40063509461097,12.933012701892217 Z M 63.52069708646963,21.709922536798814 L 63.408213972373844,20.716268900442913 A 67.76934403986107 67.76934403986107 0 0 0 86.22379944795479,13.926020162065866 L 84.8763542528747,11.245648649335664 L 92.70257384350528,11.228709959000705 L 88.0203930413949,17.499848845706136 L 86.67294784631481,14.819477332975934 A 68.76934403986107 68.76934403986107 0 0 1 63.52069708646963,21.709922536798814"/><text text-anchor="middle" pointer-events="none" font-size="8px" fill="#000000" x="53.813047463085134" y="24.617863166665245" transform="rotate(180 53.813047463085134 21.617863166665245)" font-family="sans-serif">trek</text></g><g class="relationship" transform="translate(113.9998279879998 209.1504520402286) rotate(201.27793856238327)"><path class="outline" fill="#A5ABB6" stroke="none" d="M 25 0.5 L 49.338296000658474 0.5 L 49.338296000658474 -0.5 L 25 -0.5 Z M 71.35001475065847 0.5 L 95.68831075131695 0.5 L 95.68831075131695 3.5 L 102.68831075131695 0 L 95.68831075131695 -3.5 L 95.68831075131695 -0.5 L 71.35001475065847 -0.5 Z"/><text text-anchor="middle" pointer-events="none" font-size="8px" fill="#000000" x="60.344155375658474" y="3" transform="rotate(180 60.344155375658474 0)" font-family="sans-serif">road</text></g><g class="relationship" transform="translate(113.9998279879998 209.1504520402286) rotate(201.27793856238327)"><path class="outline" fill="#A5ABB6" stroke="none" d="M 21.40063509461097,-12.933012701892217 L 21.90063509461097,-12.06698729810778 A 80.76224395657735 80.76224395657735 0 0 1 50.60146666614197,-22.037978122926418 L 50.456841036212246,-23.02746456910313 A 81.76224395657735 81.76224395657735 0 0 0 21.40063509461097,-12.933012701892217 Z M 69.85924592133604,-23.53518919740179 L 69.76656880679329,-22.539492982464708 A 80.76224395657735 80.76224395657735 0 0 1 98.94960752740901,-14.083214725627899 L 97.58754097286067,-11.410243588301345 L 105.41355127359569,-11.350554621236189 L 100.7656962668068,-17.647176242063303 L 99.40362971225845,-14.974205104736749 A 81.76224395657735 81.76224395657735 0 0 0 69.85924592133604,-23.53518919740179"/><text text-anchor="middle" pointer-events="none" font-size="8px" fill="#000000" x="60.156003916318134" y="-20.359267590388555" transform="rotate(180 60.156003916318134 -23.359267590388555)" font-family="sans-serif">trek</text></g><g class="relationship" transform="translate(205.1118025229014 26.38586109746928) rotate(519.2153527055033)"><path class="outline" fill="#A5ABB6" stroke="none" d="M 21.40063509461097,12.933012701892217 L 21.90063509461097,12.06698729810778 A 71.90986274438943 71.90986274438943 0 0 0 46.29380956974784,20.765539645867733 L 46.13302832979255,21.75252971313205 A 72.90986274438943 72.90986274438943 0 0 1 21.40063509461097,12.933012701892217 Z M 65.53709831449588,22.29530308365561 L 65.43174176109487,21.300868572661813 A 71.90986274438943 71.90986274438943 0 0 0 90.27302744931671,13.97950945858124 L 88.92060680441539,11.301644936383623 L 96.74678144192805,11.270172040844411 L 92.07625497585182,17.549995488178062 L 90.7238343309505,14.872130965980446 A 72.90986274438943 72.90986274438943 0 0 1 65.53709831449588,22.29530308365561"/><text text-anchor="middle" pointer-events="none" font-size="8px" fill="#000000" x="55.83089955356796" y="25.172770526546458" transform="rotate(180 55.83089955356796 22.172770526546458)" font-family="sans-serif">trek</text></g><g class="relationship" transform="translate(93.79796439723074 68.63589396857745) rotate(496.3670018576334)"><path class="outline" fill="#A5ABB6" stroke="none" d="M 25 0.5 L 55.072938014223254 0.5 L 55.072938014223254 -0.5 L 25 -0.5 Z M 74.40887551422325 0.5 L 104.48181352844651 0.5 L 104.48181352844651 3.5 L 111.48181352844651 0 L 104.48181352844651 -3.5 L 104.48181352844651 -0.5 L 74.40887551422325 -0.5 Z"/><text text-anchor="middle" pointer-events="none" font-size="8px" fill="#000000" x="64.74090676422325" y="3" transform="rotate(180 64.74090676422325 0)" font-family="sans-serif">trek</text></g><g class="relationship" transform="translate(205.1118025229014 26.38586109746928) rotate(519.2153527055033)"><path class="outline" fill="#A5ABB6" stroke="none" d="M 25 0.5 L 45.0253001884541 0.5 L 45.0253001884541 -0.5 L 25 -0.5 Z M 67.03701893845411 0.5 L 87.0623191269082 0.5 L 87.0623191269082 3.5 L 94.0623191269082 0 L 87.0623191269082 -3.5 L 87.0623191269082 -0.5 L 67.03701893845411 -0.5 Z"/><text text-anchor="middle" pointer-events="none" font-size="8px" fill="#000000" x="56.0311595634541" y="3" transform="rotate(180 56.0311595634541 0)" font-family="sans-serif">road</text></g><g class="relationship" transform="translate(205.1118025229014 26.38586109746928) rotate(519.2153527055033)"><path class="outline" fill="#A5ABB6" stroke="none" d="M 21.40063509461097,-12.933012701892217 L 21.90063509461097,-12.06698729810778 A 71.90986274438943 71.90986274438943 0 0 1 26.30588715050134,-14.410458734870588 L 25.867147899552545,-15.309073151445844 A 72.90986274438943 72.90986274438943 0 0 0 21.40063509461097,-12.933012701892217 Z M 86.13148255668038,-16.994795583388992 L 85.74366237672743,-16.073060530338907 A 71.90986274438943 71.90986274438943 0 0 1 90.27302744931671,-13.97950945858124 L 88.92060680441539,-11.301644936383623 L 96.74678144192805,-11.270172040844411 L 92.07625497585182,-17.549995488178062 L 90.7238343309505,-14.872130965980446 A 72.90986274438943 72.90986274438943 0 0 0 86.13148255668038,-16.994795583388992"/><text text-anchor="middle" pointer-events="none" font-size="8px" fill="#000000" x="55.83089955356794" y="-19.172770526546458" transform="rotate(180 55.83089955356794 -22.172770526546458)" font-family="sans-serif">PublicTransport</text></g><g class="relationship" transform="translate(93.79796439723074 68.63589396857745) rotate(204.23792252988716)"><path class="outline" fill="#A5ABB6" stroke="none" d="M 24.018736134675446,-6.953439040707552 L 24.277555179777966,-5.987513214418485 A 160.47069162884267 160.47069162884267 0 0 1 40.69708444474135,-9.478143853816022 L 40.54058644716656,-10.465822129751615 A 161.47069162884267 161.47069162884267 0 0 0 24.018736134675446,-6.953439040707552 Z M 86.98429690560772,-11.061120386208387 L 86.85316555082179,-10.069755383905004 A 160.47069162884267 160.47069162884267 0 0 1 103.35676903906578,-7.001121250204796 L 102.6548400643005,-4.084394366455657 L 110.27945326360799,-5.849408123043997 L 104.29267433875283,-10.89009042853698 L 103.59074536398755,-7.9733635447878415 A 161.47069162884267 161.47069162884267 0 0 0 86.98429690560772,-11.061120386208387"/><text text-anchor="middle" pointer-events="none" font-size="8px" fill="#000000" x="63.747333194178154" y="-8.942197998012944" transform="rotate(180 63.747333194178154 -11.942197998012944)" font-family="sans-serif">twowheeler</text></g><g class="relationship" transform="translate(-28.92364497023361 13.384954923991614) rotate(489.74392500100043)"><path class="outline" fill="#A5ABB6" stroke="none" d="M 24.018736134675446,-6.953439040707552 L 24.277555179777966,-5.987513214418485 A 84.36440478163797 84.36440478163797 0 0 1 24.43527654217817,-6.029611019337082 L 24.178327022058472,-6.996035845234189 A 85.36440478163797 85.36440478163797 0 0 0 24.018736134675446,-6.953439040707552 Z M 65.1357235189937,-7.715572619216104 L 64.91287825109018,-6.740718790904907 A 84.36440478163797 84.36440478163797 0 0 1 65.07198097414425,-6.704186930110345 L 64.39778747427142,-3.780924518911305 L 72.00529218358749,-5.618279165606914 L 65.97090564064136,-10.601870145042398 L 65.29671214076853,-7.678607733843358 A 85.36440478163797 85.36440478163797 0 0 0 65.1357235189937,-7.715572619216104"/><text text-anchor="middle" pointer-events="none" font-size="8px" fill="#000000" x="44.62200775292586" y="-6.349067682477539" transform="rotate(180 44.62200775292586 -9.34906768247754)" font-family="sans-serif">twowhe…</text></g><g class="relationship" transform="translate(-90.53584777515638 87.48155566460767) rotate(503.49309091957514)"><path class="outline" fill="#A5ABB6" stroke="none" d="M 24.018736134675446,6.953439040707552 L 24.277555179777966,5.987513214418485 A 105.09879965285668 105.09879965285668 0 0 0 26.908140681863316,6.6560922509435585 L 26.674351280398724,7.628379510843033 A 106.09879965285668 106.09879965285668 0 0 1 24.018736134675446,6.953439040707552 Z M 72.97759571217745,8.367756141064064 L 72.77496882445425,7.388500125319652 A 105.09879965285668 105.09879965285668 0 0 0 75.42555965011947,6.8042516449949995 L 74.74201901268508,3.8831607191633895 L 82.35536191663229,5.696171978620002 L 76.33694716669866,10.699039546103812 L 75.65340652926427,7.777948620272203 A 106.09879965285668 106.09879965285668 0 0 1 72.97759571217745,8.367756141064064"/><text text-anchor="middle" pointer-events="none" font-size="8px" fill="#000000" x="49.79312480178413" y="13.05520767689383" transform="rotate(180 49.79312480178413 10.05520767689383)" font-family="sans-serif">twowheeler</text></g><g class="relationship" transform="translate(93.79796439723074 68.63589396857745) rotate(204.23792252988716)"><path class="outline" fill="#A5ABB6" stroke="none" d="M 24.018736134675446,6.953439040707552 L 24.277555179777966,5.987513214418485 A 160.47069162884267 160.47069162884267 0 0 0 54.12609584026354,11.029469340393774 L 54.0532829770844,12.026814961006636 A 161.47069162884267 161.47069162884267 0 0 1 24.018736134675446,6.953439040707552 Z M 73.43602981075722,12.275255821599643 L 73.38880388152054,11.276371588263402 A 160.47069162884267 160.47069162884267 0 0 0 103.35676903906578,7.001121250204796 L 102.6548400643005,4.084394366455657 L 110.27945326360799,5.849408123043997 L 104.29267433875283,10.89009042853698 L 103.59074536398755,7.9733635447878415 A 161.47069162884267 161.47069162884267 0 0 1 73.43602981075722,12.275255821599643"/><text text-anchor="middle" pointer-events="none" font-size="8px" fill="#000000" x="63.74733319417819" y="14.942197998012944" transform="rotate(180 63.74733319417819 11.942197998012944)" font-family="sans-serif">trek</text></g><g class="relationship" transform="translate(-28.92364497023361 13.384954923991614) rotate(489.74392500100043)"><path class="outline" fill="#A5ABB6" stroke="none" d="M 24.018736134675446,6.953439040707552 L 24.277555179777966,5.987513214418485 A 84.36440478163797 84.36440478163797 0 0 0 35.05164392318854,8.133911271087257 L 34.920533818501085,9.125279083984594 A 85.36440478163797 85.36440478163797 0 0 1 24.018736134675446,6.953439040707552 Z M 54.32535573945793,9.466181684220501 L 54.22914835776926,8.470820373083384 A 84.36440478163797 84.36440478163797 0 0 0 65.07198097414425,6.704186930110345 L 64.39778747427142,3.780924518911305 L 72.00529218358749,5.618279165606914 L 65.97090564064136,10.601870145042398 L 65.29671214076853,7.678607733843358 A 85.36440478163797 85.36440478163797 0 0 1 54.32535573945793,9.466181684220501"/><text text-anchor="middle" pointer-events="none" font-size="8px" fill="#000000" x="44.6220077529259" y="12.34906768247754" transform="rotate(180 44.6220077529259 9.34906768247754)" font-family="sans-serif">trek</text></g><g class="relationship" transform="translate(-90.53584777515638 87.48155566460767) rotate(503.49309091957514)"><path class="outline" fill="#A5ABB6" stroke="none" d="M 24.018736134675446,-6.953439040707552 L 24.277555179777966,-5.987513214418485 A 105.09879965285668 105.09879965285668 0 0 1 40.20060524596446,-8.961746732997938 L 40.093291737735626,-9.955971964498133 A 106.09879965285668 106.09879965285668 0 0 0 24.018736134675446,-6.953439040707552 Z M 59.49118098306828,-10.265720150821139 L 59.415665945556725,-9.26857548774079 A 105.09879965285668 105.09879965285668 0 0 1 75.42555965011947,-6.8042516449949995 L 74.74201901268508,-3.8831607191633895 L 82.35536191663229,-5.696171978620002 L 76.33694716669866,-10.699039546103812 L 75.65340652926427,-7.777948620272203 A 106.09879965285668 106.09879965285668 0 0 0 59.49118098306828,-10.265720150821139"/><text text-anchor="middle" pointer-events="none" font-size="8px" fill="#000000" x="49.79312480178412" y="-7.055207676893829" transform="rotate(180 49.79312480178412 -10.05520767689383)" font-family="sans-serif">trek</text></g><g class="relationship" transform="translate(93.79796439723074 68.63589396857745) rotate(390.80246103808395)"><path class="outline" fill="#A5ABB6" stroke="none" d="M 25 0.5 L 47.74290840220109 0.5 L 47.74290840220109 -0.5 L 25 -0.5 Z M 67.0788459022011 0.5 L 89.82175430440218 0.5 L 89.82175430440218 3.5 L 96.82175430440218 0 L 89.82175430440218 -3.5 L 89.82175430440218 -0.5 L 67.0788459022011 -0.5 Z"/><text text-anchor="middle" pointer-events="none" font-size="8px" fill="#000000" x="57.41087715220109" y="3" font-family="sans-serif">trek</text></g><g class="relationship" transform="translate(-28.92364497023361 13.384954923991614) rotate(529.268135456829)"><path class="outline" fill="#A5ABB6" stroke="none" d="M 24.018736134675446,-6.953439040707552 L 24.277555179777966,-5.987513214418485 A 219.62447846499828 219.62447846499828 0 0 1 55.6771205354152,-11.99225017845572 L 55.56127082403675,-12.985516932340857 A 220.62447846499828 220.62447846499828 0 0 0 24.018736134675446,-6.953439040707552 Z M 102.04264996878558,-13.476761030009357 L 101.94781871009152,-12.481267668718345 A 219.62447846499828 219.62447846499828 0 0 1 133.46727986035873,-7.1414980737821825 L 132.75224034496873,-4.227957531515636 L 140.38471437821232,-5.958662628249957 L 134.42066588087872,-11.026218796804244 L 133.7056263654887,-8.112678254537698 A 220.62447846499828 220.62447846499828 0 0 0 102.04264996878558,-13.476761030009357"/><text text-anchor="middle" pointer-events="none" font-size="8px" fill="#000000" x="78.79427062090286" y="-10.958743389321626" transform="rotate(180 78.79427062090286 -13.958743389321626)" font-family="sans-serif">twowheeler</text></g><g class="relationship" transform="translate(-190.7077858612327 44.047582684076275) rotate(383.44127602525083)"><path class="outline" fill="#A5ABB6" stroke="none" d="M 21.40063509461097,12.933012701892217 L 21.90063509461097,12.06698729810778 A 61.72731332536454 61.72731332536454 0 0 0 28.51587189029035,15.37465498436648 L 28.123040604418737,16.294265543701492 A 62.72731332536454 62.72731332536454 0 0 1 21.40063509461097,12.933012701892217 Z M 73.85958565597974,17.68328600086172 L 73.52328408684883,16.74153165146901 A 61.72731332536454 61.72731332536454 0 0 0 80.32705197548428,13.841399602198837 L 78.98747835401912,11.15708544162174 L 86.8137139537417,11.163113512209648 L 82.11315013743783,17.420485149634963 L 80.77357651597266,14.736170989057868 A 62.72731332536454 62.72731332536454 0 0 1 73.85958565597974,17.68328600086172"/><text text-anchor="middle" pointer-events="none" font-size="8px" fill="#000000" x="50.87531703330451" y="23.808201673522532" font-family="sans-serif">twowheeler</text></g><g class="relationship" transform="translate(-28.92364497023361 13.384954923991614) rotate(529.268135456829)"><path class="outline" fill="#A5ABB6" stroke="none" d="M 24.018736134675446,6.953439040707552 L 24.277555179777966,5.987513214418485 A 219.62447846499828 219.62447846499828 0 0 0 69.1594237632234,13.145082064651604 L 69.10496203246551,14.143597923255186 A 220.62447846499828 220.62447846499828 0 0 1 24.018736134675446,6.953439040707552 Z M 88.47750806296598,14.348339027529619 L 88.44416201207932,13.348895161727114 A 219.62447846499828 219.62447846499828 0 0 0 133.46727986035873,7.1414980737821825 L 132.75224034496873,4.227957531515636 L 140.38471437821232,5.958662628249957 L 134.42066588087872,11.026218796804244 L 133.7056263654887,8.112678254537698 A 220.62447846499828 220.62447846499828 0 0 1 88.47750806296598,14.348339027529619"/><text text-anchor="middle" pointer-events="none" font-size="8px" fill="#000000" x="78.79427062090292" y="16.958743389321626" transform="rotate(180 78.79427062090292 13.958743389321626)" font-family="sans-serif">trek</text></g><g class="relationship" transform="translate(-190.7077858612327 44.047582684076275) rotate(383.44127602525083)"><path class="outline" fill="#A5ABB6" stroke="none" d="M 25 0.5 L 40.08563993760873 0.5 L 40.08563993760873 -0.5 L 25 -0.5 Z M 62.09735868760873 0.5 L 77.18299862521746 0.5 L 77.18299862521746 3.5 L 84.18299862521746 0 L 77.18299862521746 -3.5 L 77.18299862521746 -0.5 L 62.09735868760873 -0.5 Z"/><text text-anchor="middle" pointer-events="none" font-size="8px" fill="#000000" x="51.09149931260873" y="3" font-family="sans-serif">road</text></g><g class="relationship" transform="translate(-190.7077858612327 44.047582684076275) rotate(383.44127602525083)"><path class="outline" fill="#A5ABB6" stroke="none" d="M 21.40063509461097,-12.933012701892217 L 21.90063509461097,-12.06698729810778 A 61.72731332536454 61.72731332536454 0 0 1 41.36571649105216,-19.27531971811341 L 41.18105633573066,-20.25812215351771 A 62.72731332536454 62.72731332536454 0 0 0 21.40063509461097,-12.933012701892217 Z M 60.58509249964394,-20.847423403814766 L 60.46041314821397,-19.855226316877392 A 61.72731332536454 61.72731332536454 0 0 1 80.32705197548428,-13.841399602198837 L 78.98747835401912,-11.15708544162174 L 86.8137139537417,-11.163113512209648 L 82.11315013743783,-17.420485149634963 L 80.77357651597266,-14.736170989057868 A 62.72731332536454 62.72731332536454 0 0 0 60.58509249964394,-20.847423403814766"/><text text-anchor="middle" pointer-events="none" font-size="8px" fill="#000000" x="50.87531703330452" y="-17.808201673522532" font-family="sans-serif">trek</text></g><g class="relationship" transform="translate(-190.7077858612327 44.047582684076275) rotate(524.7570436995496)"><path class="outline" fill="#A5ABB6" stroke="none" d="M 25 0.5 L 93.23459468782205 0.5 L 93.23459468782205 -0.5 L 25 -0.5 Z M 112.57053218782205 0.5 L 180.8051268756441 0.5 L 180.8051268756441 3.5 L 187.8051268756441 0 L 180.8051268756441 -3.5 L 180.8051268756441 -0.5 L 112.57053218782205 -0.5 Z"/><text text-anchor="middle" pointer-events="none" font-size="8px" fill="#000000" x="102.90256343782205" y="3" transform="rotate(180 102.90256343782205 0)" font-family="sans-serif">trek</text></g><g class="relationship" transform="translate(-396.0263544188201 99.99673307996937) rotate(373.0577027430411)"><path class="outline" fill="#A5ABB6" stroke="none" d="M 25 0.5 L 99.6123971553187 0.5 L 99.6123971553187 -0.5 L 25 -0.5 Z M 118.9483346553187 0.5 L 193.5607318106374 0.5 L 193.5607318106374 3.5 L 200.5607318106374 0 L 193.5607318106374 -3.5 L 193.5607318106374 -0.5 L 118.9483346553187 -0.5 Z"/><text text-anchor="middle" pointer-events="none" font-size="8px" fill="#000000" x="109.2803659053187" y="3" font-family="sans-serif">trek</text></g></g><g class="layer nodes"><g class="node" transform="translate(205.1118025229014,26.38586109746928)"><circle class="outline" cx="0" cy="0" r="25" fill="#D9C8AE" stroke="#c0a378" stroke-width="2px"/><text text-anchor="middle" pointer-events="none" font-family="sans-serif" dy="1.5625" font-size="25" fill="#2A2C34"/><text text-anchor="middle" pointer-events="none" x="0" y="5" font-size="10px" fill="#2A2C34" font-family="sans-serif"> Darjeeling</text></g><g class="node" transform="translate(-176.29794152336538,150.95817243753515)"><circle class="outline" cx="0" cy="0" r="25" fill="#F16667" stroke="#eb2728" stroke-width="2px"/><text text-anchor="middle" pointer-events="none" font-family="sans-serif" dy="1.5625" font-size="25" fill="#FFFFFF"/><text text-anchor="middle" pointer-events="none" x="0" y="5" font-size="10px" fill="#FFFFFF" font-family="sans-serif"> Sandak…</text></g><g class="node" transform="translate(198.4352864878328,131.01834861337107)"><circle class="outline" cx="0" cy="0" r="25" fill="#8DCC93" stroke="#5db665" stroke-width="2px"/><text text-anchor="middle" pointer-events="none" font-family="sans-serif" dy="1.5625" font-size="25" fill="#2A2C34"/><text text-anchor="middle" pointer-events="none" x="0" y="5" font-size="10px" fill="#2A2C34" font-family="sans-serif"> Tumbling</text></g><g class="node" transform="translate(113.9998279879998,209.1504520402286)"><circle class="outline" cx="0" cy="0" r="25" fill="#8DCC93" stroke="#5db665" stroke-width="2px"/><text text-anchor="middle" pointer-events="none" font-family="sans-serif" dy="1.5625" font-size="25" fill="#2A2C34"/><text text-anchor="middle" pointer-events="none" x="0" y="5" font-size="10px" fill="#2A2C34" font-family="sans-serif"> Gairibus</text></g><g class="node" transform="translate(-4.984101689652161,162.81332674108586)"><circle class="outline" cx="0" cy="0" r="25" fill="#8DCC93" stroke="#5db665" stroke-width="2px"/><text text-anchor="middle" pointer-events="none" font-family="sans-serif" dy="1.5625" font-size="25" fill="#2A2C34"/><text text-anchor="middle" pointer-events="none" x="0" y="5" font-size="10px" fill="#2A2C34" font-family="sans-serif"> BhikeBh…</text></g><g class="node" transform="translate(93.79796439723074,68.63589396857745)"><circle class="outline" cx="0" cy="0" r="25" fill="#D9C8AE" stroke="#c0a378" stroke-width="2px"/><text text-anchor="middle" pointer-events="none" font-family="sans-serif" dy="1.5625" font-size="25" fill="#2A2C34"/><text text-anchor="middle" pointer-events="none" x="0" y="5" font-size="10px" fill="#2A2C34" font-family="sans-serif"> Rimbik</text></g><g class="node" transform="translate(-28.92364497023361,13.384954923991614)"><circle class="outline" cx="0" cy="0" r="25" fill="#8DCC93" stroke="#5db665" stroke-width="2px"/><text text-anchor="middle" pointer-events="none" font-family="sans-serif" dy="1.5625" font-size="25" fill="#2A2C34"/><text text-anchor="middle" pointer-events="none" x="0" y="5" font-size="10px" fill="#2A2C34" font-family="sans-serif"> Sirikhola</text></g><g class="node" transform="translate(-90.53584777515638,87.48155566460767)"><circle class="outline" cx="0" cy="0" r="25" fill="#8DCC93" stroke="#5db665" stroke-width="2px"/><text text-anchor="middle" pointer-events="none" font-family="sans-serif" dy="1.5625" font-size="25" fill="#2A2C34"/><text text-anchor="middle" pointer-events="none" x="0" y="5" font-size="10px" fill="#2A2C34" font-family="sans-serif"> Gurdum</text></g><g class="node" transform="translate(-190.7077858612327,44.047582684076275)"><circle class="outline" cx="0" cy="0" r="25" fill="#8DCC93" stroke="#5db665" stroke-width="2px"/><text text-anchor="middle" pointer-events="none" font-family="sans-serif" dy="1.5625" font-size="25" fill="#2A2C34"/><text text-anchor="middle" pointer-events="none" x="0" y="5" font-size="10px" fill="#2A2C34" font-family="sans-serif"> Rammam</text></g><g class="node" transform="translate(-396.0263544188201,99.99673307996937)"><circle class="outline" cx="0" cy="0" r="25" fill="#F16667" stroke="#eb2728" stroke-width="2px"/><text text-anchor="middle" pointer-events="none" font-family="sans-serif" dy="1.5625" font-size="25" fill="#FFFFFF"/><text text-anchor="middle" pointer-events="none" x="0" y="5" font-size="10px" fill="#FFFFFF" font-family="sans-serif"> Sabargr…</text></g></g></svg>