<svg xmlns="http://www.w3.org/2000/svg" width="1120.312255859375" height="208.2550048828125" viewBox="-504.82830810546875 -52.218109130859375 1120.312255859375 208.2550048828125"><title>Neo4j Graph Visualization</title><desc>Created using Neo4j (http://www.neo4j.com/)</desc><g class="layer relationships"><g class="relationship" transform="translate(586.4839992613695 57.237009207024784) rotate(180.86030427071915)"><path class="outline" fill="#A5ABB6" stroke="none" d="M 21.40063509461097,12.933012701892217 L 21.90063509461097,12.06698729810778 A 337.8800552481573 337.8800552481573 0 0 0 178.14832371404827,57.09585560675839 L 178.11075908480336,58.095149806996574 A 338.8800552481573 338.8800552481573 0 0 1 21.40063509461097,12.933012701892217 Z M 197.47184889153243,58.26944571535182 L 197.45228094685658,57.26963718591173 A 337.8800552481573 337.8800552481573 0 0 0 354.4853144623092,15.061041319556399 L 353.0323315247094,12.43638123050795 L 360.8516851596889,12.108191146664899 L 356.42262504577565,18.560588104954327 L 354.96964210817583,15.93592801590588 A 338.8800552481573 338.8800552481573 0 0 1 197.47184889153243,58.26944571535182"/><text text-anchor="middle" pointer-events="none" font-size="8px" fill="#000000" x="187.79455994507438" y="60.82062045808442" transform="rotate(180 187.79455994507438 57.82062045808442)" font-family="sans-serif">trek</text></g><g class="relationship" transform="translate(203.8032892882698 51.49057211067844) rotate(203.04821149906576)"><path class="outline" fill="#A5ABB6" stroke="none" d="M 24.018736134675446,-6.953439040707552 L 24.277555179777966,-5.987513214418485 A 251.37856568983162 251.37856568983162 0 0 1 77.26797692856604,-14.263036265074504 L 77.21995716781528,-15.26188265095044 A 252.37856568983162 252.37856568983162 0 0 0 24.018736134675446,-6.953439040707552 Z M 96.58861838140335,-15.448888683394358 L 96.55989366442618,-14.449301323212865 A 251.37856568983162 251.37856568983162 0 0 1 149.70022356238837,-7.198479493094908 L 148.97986252580736,-4.286250110478234 L 156.61548562792413,-6.003008638175275 L 150.66070494449642,-11.081452003250474 L 149.9403439079154,-8.1692226206338 A 252.37856568983162 252.37856568983162 0 0 0 96.58861838140335,-15.448888683394358"/><text text-anchor="middle" pointer-events="none" font-size="8px" fill="#000000" x="86.90732038653296" y="-12.04129081058477" transform="rotate(180 86.90732038653296 -15.04129081058477)" font-family="sans-serif">trek</text></g><g class="relationship" transform="translate(203.8032892882698 51.49057211067844) rotate(524.1668354638239)"><path class="outline" fill="#A5ABB6" stroke="none" d="M 25 0.5 L 83.13124401954876 0.5 L 83.13124401954876 -0.5 L 25 -0.5 Z M 102.46718151954876 0.5 L 160.59842553909752 0.5 L 160.59842553909752 3.5 L 167.59842553909752 0 L 160.59842553909752 -3.5 L 160.59842553909752 -0.5 L 102.46718151954876 -0.5 Z"/><text text-anchor="middle" pointer-events="none" font-size="8px" fill="#000000" x="92.79921276954876" y="3" transform="rotate(180 92.79921276954876 0)" font-family="sans-serif">trek</text></g><g class="relationship" transform="translate(37.358160719683326 -19.32654247697525) rotate(533.1249521159673)"><path class="outline" fill="#A5ABB6" stroke="none" d="M 24.018736134675446,-6.953439040707552 L 24.277555179777966,-5.987513214418485 A 625.2296655953458 625.2296655953458 0 0 1 173.45884242855848,-27.163914493762036 L 173.4386257650412,-28.16371011613512 A 626.2296655953458 626.2296655953458 0 0 0 24.018736134675446,-6.953439040707552 Z M 192.7890241498724,-28.255960531789583 L 192.7783409703322,-27.256017598580456 A 625.2296655953458 625.2296655953458 0 0 1 342.15475394469564,-7.50294990620978 L 341.4059610018792,-4.597901003215499 L 349.0580002088184,-6.239941190137103 L 343.1531445351176,-11.376348443535488 L 342.4043515923011,-8.471299540541207 A 626.2296655953458 626.2296655953458 0 0 0 192.7890241498724,-28.255960531789583"/><text text-anchor="middle" pointer-events="none" font-size="8px" fill="#000000" x="183.11585227222767" y="-24.78458685012231" transform="rotate(180 183.11585227222767 -27.78458685012231)" font-family="sans-serif">trek</text></g><g class="relationship" transform="translate(37.358160719683326 -19.32654247697525) rotate(526.6052113658125)"><path class="outline" fill="#A5ABB6" stroke="none" d="M 24.018736134675446,-6.953439040707552 L 24.277555179777966,-5.987513214418485 A 237.67968074901924 237.67968074901924 0 0 1 73.7673568920031,-13.781802678518176 L 73.71675842998224,-14.780521755957437 A 238.67968074901924 238.67968074901924 0 0 0 24.018736134675446,-6.953439040707552 Z M 93.08699235375943,-14.974792434020856 L 93.05643504306018,-13.975259417676313 A 237.67968074901924 237.67968074901924 0 0 1 142.6926090747928,-7.17513814985434 L 141.9744278776795,-4.26237043372714 L 149.60876394527517,-5.984843309277764 L 143.65018400427726,-11.058828438023939 L 142.93200280716394,-8.14606072189674 A 238.67968074901924 238.67968074901924 0 0 0 93.08699235375943,-14.974792434020856"/><text text-anchor="middle" pointer-events="none" font-size="8px" fill="#000000" x="83.40491812556768" y="-11.57427387698047" transform="rotate(180 83.40491812556768 -14.57427387698047)" font-family="sans-serif">trek</text></g><g class="relationship" transform="translate(18.512004048889573 104.0385800127666) rotate(535.7764746637447)"><path class="outline" fill="#A5ABB6" stroke="none" d="M 25 0.5 L 93.14510011409588 0.5 L 93.14510011409588 -0.5 L 25 -0.5 Z M 112.48103761409588 0.5 L 180.62613772819176 0.5 L 180.62613772819176 3.5 L 187.62613772819176 0 L 180.62613772819176 -3.5 L 180.62613772819176 -0.5 L 112.48103761409588 -0.5 Z"/><text text-anchor="middle" pointer-events="none" font-size="8px" fill="#000000" x="102.81306886409588" y="3" transform="rotate(180 102.81306886409588 0)" font-family="sans-serif">trek</text></g><g class="relationship" transform="translate(-333.2246308428131 25.355160541193356) rotate(504.50971372438653)"><path class="outline" fill="#A5ABB6" stroke="none" d="M 25 0.5 L 74.40341383596966 0.5 L 74.40341383596966 -0.5 L 25 -0.5 Z M 93.73935133596966 0.5 L 143.14276517193932 0.5 L 143.14276517193932 3.5 L 150.14276517193932 0 L 143.14276517193932 -3.5 L 143.14276517193932 -0.5 L 93.73935133596966 -0.5 Z"/><text text-anchor="middle" pointer-events="none" font-size="8px" fill="#000000" x="84.07138258596966" y="3" transform="rotate(180 84.07138258596966 0)" font-family="sans-serif">trek</text></g><g class="relationship" transform="translate(-131.79355196826634 20.95482156424511) rotate(482.0173442777374)"><path class="outline" fill="#A5ABB6" stroke="none" d="M 24.018736134675446,6.953439040707552 L 24.277555179777966,5.987513214418485 A 124.55926127315716 124.55926127315716 0 0 0 45.07140997172098,9.704896920605307 L 44.97953037840553,10.700667044846938 A 125.55926127315716 125.55926127315716 0 0 1 24.018736134675446,6.953439040707552 Z M 64.37134788752039,10.98579112908837 L 64.30878393511502,9.98775017208338 A 124.55926127315716 124.55926127315716 0 0 0 85.20294205471946,6.883318629852515 L 84.51201604439325,3.9639657480900685 L 92.12991978055287,5.75771675271843 L 86.1241767351544,10.775789138869111 L 85.4332507248282,7.856436257106664 A 125.55926127315716 125.55926127315716 0 0 1 64.37134788752039,10.98579112908837"/><text text-anchor="middle" pointer-events="none" font-size="8px" fill="#000000" x="54.67727672301506" y="13.718251181149355" transform="rotate(180 54.67727672301506 10.718251181149355)" font-family="sans-serif">trek</text></g><g class="relationship" transform="translate(-475.82831471110575 127.03690688371609) rotate(358.5107826340479)"><path class="outline" fill="#A5ABB6" stroke="none" d="M 25 0.5 L 128.0255242542705 0.5 L 128.0255242542705 -0.5 L 25 -0.5 Z M 147.3614617542705 0.5 L 250.386986008541 0.5 L 250.386986008541 3.5 L 257.386986008541 0 L 250.386986008541 -3.5 L 250.386986008541 -0.5 L 147.3614617542705 -0.5 Z"/><text text-anchor="middle" pointer-events="none" font-size="8px" fill="#000000" x="137.6934930042705" y="3" font-family="sans-serif">trek</text></g><g class="relationship" transform="translate(203.8032892882698 51.49057211067844) rotate(203.04821149906576)"><path class="outline" fill="#A5ABB6" stroke="none" d="M 24.018736134675446,6.953439040707552 L 24.277555179777966,5.987513214418485 A 251.37856568983162 251.37856568983162 0 0 0 63.77010235830469,13.249270956439716 L 63.66838718985987,14.244084519127824 A 252.37856568983162 252.37856568983162 0 0 1 24.018736134675446,6.953439040707552 Z M 110.15731404211617,14.692938968454342 L 110.0748260603244,13.696346909053943 A 251.37856568983162 251.37856568983162 0 0 0 149.70022356238837,7.198479493094908 L 148.97986252580736,4.286250110478234 L 156.61548562792413,6.003008638175275 L 150.66070494449642,11.081452003250474 L 149.9403439079154,8.1692226206338 A 252.37856568983162 252.37856568983162 0 0 1 110.15731404211617,14.692938968454342"/><text text-anchor="middle" pointer-events="none" font-size="8px" fill="#000000" x="86.90732038653299" y="18.04129081058477" transform="rotate(180 86.90732038653299 15.04129081058477)" font-family="sans-serif">twowheeler</text></g><g class="relationship" transform="translate(586.4839992613695 57.237009207024784) rotate(180.86030427071915)"><path class="outline" fill="#A5ABB6" stroke="none" d="M 25 0.5 L 176.85606690921276 0.5 L 176.85606690921276 -0.5 L 25 -0.5 Z M 198.86778565921276 0.5 L 350.7238525684255 0.5 L 350.7238525684255 3.5 L 357.7238525684255 0 L 350.7238525684255 -3.5 L 350.7238525684255 -0.5 L 198.86778565921276 -0.5 Z"/><text text-anchor="middle" pointer-events="none" font-size="8px" fill="#000000" x="187.86192628421276" y="3" transform="rotate(180 187.86192628421276 0)" font-family="sans-serif">road</text></g><g class="relationship" transform="translate(586.4839992613695 57.237009207024784) rotate(180.86030427071915)"><path class="outline" fill="#A5ABB6" stroke="none" d="M 21.40063509461097,-12.933012701892217 L 21.90063509461097,-12.06698729810778 A 337.8800552481573 337.8800552481573 0 0 1 157.03798530239348,-55.639211337953554 L 156.93794187902103,-56.634194409889915 A 338.8800552481573 338.8800552481573 0 0 0 21.40063509461097,-12.933012701892217 Z M 218.6675365867152,-57.18990774469614 L 218.58542235946257,-56.19328482017414 A 337.8800552481573 337.8800552481573 0 0 1 354.4853144623092,-15.061041319556399 L 353.0323315247094,-12.43638123050795 L 360.8516851596889,-12.108191146664899 L 356.42262504577565,-18.560588104954327 L 354.96964210817583,-15.93592801590588 A 338.8800552481573 338.8800552481573 0 0 0 218.6675365867152,-57.18990774469614"/><text text-anchor="middle" pointer-events="none" font-size="8px" fill="#000000" x="187.7945599450744" y="-54.82062045808442" transform="rotate(180 187.7945599450744 -57.82062045808442)" font-family="sans-serif">PublicTransport</text></g><g class="relationship" transform="translate(37.358160719683326 -19.32654247697525) rotate(533.1249521159673)"><path class="outline" fill="#A5ABB6" stroke="none" d="M 24.018736134675446,6.953439040707552 L 24.277555179777966,5.987513214418485 A 625.2296655953458 625.2296655953458 0 0 0 159.9120294028199,26.743056488269758 L 159.87014580030214,27.742178985183955 A 626.2296655953458 626.2296655953458 0 0 1 24.018736134675446,6.953439040707552 Z M 206.36090646035706,27.963817419168095 L 206.3285509087526,26.964340997094837 A 625.2296655953458 625.2296655953458 0 0 0 342.15475394469564,7.50294990620978 L 341.4059610018792,4.597901003215499 L 349.0580002088184,6.239941190137103 L 343.1531445351176,11.376348443535488 L 342.4043515923011,8.471299540541207 A 626.2296655953458 626.2296655953458 0 0 1 206.36090646035706,27.963817419168095"/><text text-anchor="middle" pointer-events="none" font-size="8px" fill="#000000" x="183.11585227222793" y="30.78458685012231" transform="rotate(180 183.11585227222793 27.78458685012231)" font-family="sans-serif">twowheeler</text></g><g class="relationship" transform="translate(37.358160719683326 -19.32654247697525) rotate(526.6052113658125)"><path class="outline" fill="#A5ABB6" stroke="none" d="M 24.018736134675446,6.953439040707552 L 24.277555179777966,5.987513214418485 A 237.67968074901924 237.67968074901924 0 0 0 60.27552143001242,12.712430548503079 L 60.16815818515664,13.706650410331463 A 238.67968074901924 238.67968074901924 0 0 1 24.018736134675446,6.953439040707552 Z M 106.65440550524755,14.172876828816442 L 106.5670045909834,13.176703610853906 A 237.67968074901924 237.67968074901924 0 0 0 142.6926090747928,7.17513814985434 L 141.9744278776795,4.26237043372714 L 149.60876394527517,5.984843309277764 L 143.65018400427726,11.058828438023939 L 142.93200280716394,8.14606072189674 A 238.67968074901924 238.67968074901924 0 0 1 106.65440550524755,14.172876828816442"/><text text-anchor="middle" pointer-events="none" font-size="8px" fill="#000000" x="83.40491812556765" y="17.57427387698047" transform="rotate(180 83.40491812556765 14.57427387698047)" font-family="sans-serif">twowheeler</text></g><g class="relationship" transform="translate(-131.79355196826634 20.95482156424511) rotate(482.0173442777374)"><path class="outline" fill="#A5ABB6" stroke="none" d="M 24.018736134675446,-6.953439040707552 L 24.277555179777966,-5.987513214418485 A 124.55926127315716 124.55926127315716 0 0 1 31.711951145353748,-7.7371422659714 L 31.51281771406739,-8.717114651574235 A 125.55926127315716 125.55926127315716 0 0 0 24.018736134675446,-6.953439040707552 Z M 77.89055613873136,-9.399021347081558 L 77.72032025425081,-8.413618006497032 A 124.55926127315716 124.55926127315716 0 0 1 85.20294205471946,-6.883318629852515 L 84.51201604439325,-3.9639657480900685 L 92.12991978055287,-5.75771675271843 L 86.1241767351544,-10.775789138869111 L 85.4332507248282,-7.856436257106664 A 125.55926127315716 125.55926127315716 0 0 0 77.89055613873136,-9.399021347081558"/><text text-anchor="middle" pointer-events="none" font-size="8px" fill="#000000" x="54.67727672301501" y="-7.718251181149341" transform="rotate(180 54.67727672301501 -10.718251181149341)" font-family="sans-serif">twowheeler</text></g><g class="relationship" transform="translate(-333.2246308428131 25.355160541193356) rotate(358.7485508247895)"><path class="outline" fill="#A5ABB6" stroke="none" d="M 21.40063509461097,12.933012701892217 L 21.90063509461097,12.06698729810778 A 155.69751256736802 155.69751256736802 0 0 0 74.08357033987444,30.7964991122506 L 73.91872620964264,31.782818742354394 A 156.69751256736802 156.69751256736802 0 0 1 21.40063509461097,12.933012701892217 Z M 120.35402410019914,32.56590881287279 L 120.22253105742959,31.574591719454546 A 155.69751256736802 155.69751256736802 0 0 0 173.00732683557376,14.615267491552913 L 171.59578337063408,11.968090684729084 L 179.41932996231932,11.762862207830901 L 174.8893847888267,18.14483656731802 L 173.47784132388702,15.49765976049419 A 156.69751256736802 156.69751256736802 0 0 1 120.35402410019914,32.56590881287279"/><text text-anchor="middle" pointer-events="none" font-size="8px" fill="#000000" x="97.11563350306629" y="36.40429226077403" font-family="sans-serif">twowheeler</text></g><g class="relationship" transform="translate(-333.2246308428131 25.355160541193356) rotate(358.7485508247895)"><path class="outline" fill="#A5ABB6" stroke="none" d="M 25 0.5 L 86.23370896792562 0.5 L 86.23370896792562 -0.5 L 25 -0.5 Z M 108.24542771792562 0.5 L 169.47913668585124 0.5 L 169.47913668585124 3.5 L 176.47913668585124 0 L 169.47913668585124 -3.5 L 169.47913668585124 -0.5 L 108.24542771792562 -0.5 Z"/><text text-anchor="middle" pointer-events="none" font-size="8px" fill="#000000" x="97.23956834292562" y="3" font-family="sans-serif">road</text></g><g class="relationship" transform="translate(-333.2246308428131 25.355160541193356) rotate(358.7485508247895)"><path class="outline" fill="#A5ABB6" stroke="none" d="M 21.40063509461097,-12.933012701892217 L 21.90063509461097,-12.06698729810778 A 155.69751256736802 155.69751256736802 0 0 1 87.4995922433225,-32.44386246024307 L 87.4209153336341,-33.44076262770314 A 156.69751256736802 156.69751256736802 0 0 0 21.40063509461097,-12.933012701892217 Z M 106.8036091870287,-33.76763455027084 L 106.75859112839359,-32.76864837699479 A 155.69751256736802 155.69751256736802 0 0 1 173.00732683557376,-14.615267491552913 L 171.59578337063408,-11.968090684729084 L 179.41932996231932,-11.762862207830901 L 174.8893847888267,-18.14483656731802 L 173.47784132388702,-15.49765976049419 A 156.69751256736802 156.69751256736802 0 0 0 106.8036091870287,-33.76763455027084"/><text text-anchor="middle" pointer-events="none" font-size="8px" fill="#000000" x="97.11563350306632" y="-30.404292260774028" font-family="sans-serif">trek</text></g></g><g class="layer nodes"><g class="node" transform="translate(586.4839992613695,57.237009207024784)"><circle class="outline" cx="0" cy="0" r="25" fill="#D9C8AE" stroke="#c0a378" stroke-width="2px"/><text text-anchor="middle" pointer-events="none" font-family="sans-serif" dy="1.5625" font-size="25" fill="#2A2C34"/><text text-anchor="middle" pointer-events="none" x="0" y="5" font-size="10px" fill="#2A2C34" font-family="sans-serif"> Darjeeling</text></g><g class="node" transform="translate(203.8032892882698,51.49057211067844)"><circle class="outline" cx="0" cy="0" r="25" fill="#D9C8AE" stroke="#c0a378" stroke-width="2px"/><text text-anchor="middle" pointer-events="none" font-family="sans-serif" dy="1.5625" font-size="25" fill="#2A2C34"/><text text-anchor="middle" pointer-events="none" x="0" y="5" font-size="10px" fill="#2A2C34" font-family="sans-serif"> Rimbik</text></g><g class="node" transform="translate(37.358160719683326,-19.32654247697525)"><circle class="outline" cx="0" cy="0" r="25" fill="#8DCC93" stroke="#5db665" stroke-width="2px"/><text text-anchor="middle" pointer-events="none" font-family="sans-serif" dy="1.5625" font-size="25" fill="#2A2C34"/><text text-anchor="middle" pointer-events="none" x="0" y="5" font-size="10px" fill="#2A2C34" font-family="sans-serif"> Sirikhola</text></g><g class="node" transform="translate(18.512004048889573,104.0385800127666)"><circle class="outline" cx="0" cy="0" r="25" fill="#8DCC93" stroke="#5db665" stroke-width="2px"/><text text-anchor="middle" pointer-events="none" font-family="sans-serif" dy="1.5625" font-size="25" fill="#2A2C34"/><text text-anchor="middle" pointer-events="none" x="0" y="5" font-size="10px" fill="#2A2C34" font-family="sans-serif"> BhikeBh…</text></g><g class="node" transform="translate(-333.2246308428131,25.355160541193356)"><circle class="outline" cx="0" cy="0" r="25" fill="#8DCC93" stroke="#5db665" stroke-width="2px"/><text text-anchor="middle" pointer-events="none" font-family="sans-serif" dy="1.5625" font-size="25" fill="#2A2C34"/><text text-anchor="middle" pointer-events="none" x="0" y="5" font-size="10px" fill="#2A2C34" font-family="sans-serif"> Rammam</text></g><g class="node" transform="translate(-131.79355196826634,20.95482156424511)"><circle class="outline" cx="0" cy="0" r="25" fill="#8DCC93" stroke="#5db665" stroke-width="2px"/><text text-anchor="middle" pointer-events="none" font-family="sans-serif" dy="1.5625" font-size="25" fill="#2A2C34"/><text text-anchor="middle" pointer-events="none" x="0" y="5" font-size="10px" fill="#2A2C34" font-family="sans-serif"> Gurdum</text></g><g class="node" transform="translate(-193.53670954448967,119.69800237123837)"><circle class="outline" cx="0" cy="0" r="25" fill="#F16667" stroke="#eb2728" stroke-width="2px"/><text text-anchor="middle" pointer-events="none" font-family="sans-serif" dy="1.5625" font-size="25" fill="#FFFFFF"/><text text-anchor="middle" pointer-events="none" x="0" y="5" font-size="10px" fill="#FFFFFF" font-family="sans-serif"> Sandak…</text></g><g class="node" transform="translate(-475.82831471110575,127.03690688371609)"><circle class="outline" cx="0" cy="0" r="25" fill="#F16667" stroke="#eb2728" stroke-width="2px"/><text text-anchor="middle" pointer-events="none" font-family="sans-serif" dy="1.5625" font-size="25" fill="#FFFFFF"/><text text-anchor="middle" pointer-events="none" x="0" y="5" font-size="10px" fill="#FFFFFF" font-family="sans-serif"> Sabargr…</text></g></g></svg>